<?xml version="1.0" encoding="UTF-8"?>
<!DOCTYPE svg PUBLIC "-//W3C//DTD SVG 1.1//EN" "http://www.w3.org/Graphics/SVG/1.1/DTD/svg11.dtd">
<!-- Creator: CorelDRAW -->
<svg xmlns="http://www.w3.org/2000/svg" xml:space="preserve" width="25mm" height="25mm" style="shape-rendering:geometricPrecision; text-rendering:geometricPrecision; image-rendering:optimizeQuality; fill-rule:evenodd; clip-rule:evenodd"
viewBox="0 0 25 25"
 xmlns:xlink="http://www.w3.org/1999/xlink">
 <defs>
  <style type="text/css">
   <![CDATA[
    .fil0 {fill:none}
    .fil1 {fill:white}
   ]]>
  </style>
 </defs>
 <g id="Слой_x0020_1">
  <metadata id="CorelCorpID_0Corel-Layer"/>
  <g id="_58123616">
   <rect id="_58068960" class="fil0" x="-0.0526552" y="-0.0251545" width="25" height="25"/>
   <g>
    <path id="_58069824" class="fil1" d="M11.1766 20.3072l-0.2194 3.6815c0,0.7833 2.9507,0.6556 2.8926,0.0877l-0.3507 -3.8568c2.2094,0.617 7.2412,1.0784 10.1676,-1.4023 -1.3493,0 -5.3939,-0.6247 -5.9603,-2.1913 0.4915,0.0577 2.4326,0.4757 2.6295,-0.2631 -0.8805,0 -2.6323,-0.34 -2.8927,-1.3145 1.1041,0.0909 3.9493,-0.0939 4.6459,-1.3149 -1.4598,0 -4.1367,-1.3579 -4.3827,-2.279l2.3646 -0.1896c-0.6246,-0.1918 -4.1453,-1.4758 -1.4005,-1.4758l0 -0.1754c0.5525,0 1.727,-0.5379 1.8408,-0.964 -1.1936,0 -4.4257,-0.507 -4.9086,-1.8406 0.4975,0 1.5029,0.0825 1.6654,-0.526 -0.6455,-0.0536 -1.6507,-0.4793 -1.6654,-1.1395 0.4562,-0.1064 1.6466,-0.4775 1.7531,-0.8766 -1.4682,-0.3418 -4.4066,-2.3056 -4.8209,-3.8565l-0.1754 0c-0.4876,1.8249 -3.3174,3.1354 -4.8207,3.8565 0.5132,0.555 1.3579,0.5126 1.7529,1.0518 -0.3021,0.4515 -1.0194,0.9479 -1.7529,0.9643 0,0.4219 1.4022,0.4383 1.7529,0.4383 -0.1365,1.3518 -3.7487,1.8738 -4.9084,1.9283 0.0729,0.6664 2.0916,1.1486 2.8049,1.3149 -0.0606,0.727 -1.5877,1.1394 -2.4542,1.1394l2.4542 0.3505c-0.2336,0.8739 -3.0774,2.3376 -4.3826,2.3666 0.7492,0.8175 4.0334,1.2774 4.6455,1.2273 -0.2391,0.8956 -2.1785,1.3145 -2.98,1.3145 0,0.4553 2.3317,0.2951 2.7171,0.2631 -0.617,1.579 -5.2298,2.1913 -5.9603,2.1913 2.0353,1.9189 8.888,2.3273 9.9487,1.4899z"/>
   </g>
  </g>
 </g>
</svg>
