<?xml version="1.0" encoding="UTF-8"?>
<!DOCTYPE svg PUBLIC "-//W3C//DTD SVG 1.1//EN" "http://www.w3.org/Graphics/SVG/1.1/DTD/svg11.dtd">
<!-- Creator: CorelDRAW -->
<svg xmlns="http://www.w3.org/2000/svg" xml:space="preserve" width="25mm" height="25mm" style="shape-rendering:geometricPrecision; text-rendering:geometricPrecision; image-rendering:optimizeQuality; fill-rule:evenodd; clip-rule:evenodd"
viewBox="0 0 25 25"
 xmlns:xlink="http://www.w3.org/1999/xlink">
 <defs>
  <style type="text/css">
   <![CDATA[
    .fil0 {fill:none}
    .fil1 {fill:white}
   ]]>
  </style>
 </defs>
 <g id="Слой_x0020_1">
  <metadata id="CorelCorpID_0Corel-Layer"/>
  <g id="_58586000">
   <rect id="_58069920" class="fil0" x="-0.000400284" y="0.0314005" width="25" height="25"/>
   <g>
    <g>
     <polygon id="_58585592" class="fil1" points="4.3554,1.6407 4.1538,1.6407 4.1538,1.6767 4.0866,1.6767 4.0866,1.7127 4.0195,1.7127 4.0195,1.7487 3.9523,1.7487 3.9523,1.7849 3.9187,1.7849 3.9187,1.8209 3.8515,1.8209 3.8515,1.8569 3.8179,1.8569 3.8179,1.8931 3.7843,1.8931 3.7843,1.9291 3.7507,1.9291 3.7507,1.9652 3.7172,1.9652 3.7172,2.0013 3.6837,2.0013 3.6837,2.0733 3.65,2.0733 3.65,2.1093 3.6165,2.1093 3.6165,2.1455 3.5829,2.1455 3.5829,2.2176 3.5493,2.2176 3.5493,2.2898 3.5157,2.2898 3.5157,2.3619 3.4821,2.3619 3.4821,2.4339 3.4486,2.4339 3.4486,2.5061 3.4149,2.5061 3.4149,2.5782 3.3814,2.5782 3.3814,2.6863 3.3478,2.6863 3.3478,2.7585 3.3142,2.7585 3.3142,2.8306 3.2806,2.8306 3.2806,2.9388 3.247,2.9388 3.247,3.0469 3.2134,3.0469 3.2134,3.1912 3.1798,3.1912 3.1798,3.2994 3.1462,3.2994 3.1462,3.5158 3.1126,3.5158 3.1126,3.7322 3.079,3.7322 3.079,3.9486 3.0456,3.9486 3.0456,4.2731 3.012,4.2731 3.012,4.6337 2.9783,4.6337 2.9783,6.509 2.9448,6.509 2.9448,7.6991 2.9112,7.6991 2.9112,9.6464 2.8775,9.6464 2.8775,14.7671 2.9112,14.7671 2.9112,17.4357 2.9448,17.4357 2.9448,18.5536 2.9783,18.5536 2.9783,20.3207 3.012,20.3207 3.012,20.7896 3.0456,20.7896 3.0456,21.1502 3.079,21.1502 3.079,21.3305 3.1126,21.3305 3.1126,21.583 3.1462,21.583 3.1462,21.7632 3.1798,21.7632 3.1798,21.8714 3.2134,21.8714 3.2134,22.0156 3.247,22.0156 3.247,22.1238 3.2806,22.1238 3.2806,22.2321 3.3142,22.2321 3.3142,22.3043 3.3478,22.3043 3.3478,22.3762 3.3814,22.3762 3.3814,22.4845 3.4149,22.4845 3.4149,22.5566 3.4486,22.5566 3.4486,22.6286 3.4821,22.6286 3.4821,22.7008 3.5157,22.7008 3.5157,22.7729 3.5493,22.7729 3.5493,22.8451 3.5829,22.8451 3.5829,22.9173 3.6165,22.9173 3.6165,22.9533 3.65,22.9533 3.65,22.9892 3.6837,22.9892 3.6837,23.0614 3.7172,23.0614 3.7172,23.0975 3.7507,23.0975 3.7507,23.1335 3.7843,23.1335 3.7843,23.1697 3.8179,23.1697 3.8179,23.2057 3.8515,23.2057 3.8515,23.2417 3.9187,23.2417 3.9187,23.2779 3.9523,23.2779 3.9523,23.3139 4.0195,23.3139 4.0195,23.3499 4.0866,23.3499 4.0866,23.386 4.1538,23.386 4.1538,23.4221 4.3554,23.4221 4.3554,23.4581 4.859,23.4581 4.859,23.4221 5.0941,23.4221 5.0941,23.386 5.2285,23.386 5.2285,23.3499 5.2957,23.3499 5.2957,23.3139 5.3629,23.3139 5.3629,23.2779 5.3965,23.2779 5.3965,23.2417 5.4299,23.2417 5.4299,23.2057 5.4635,23.2057 5.4635,23.1697 5.4972,23.1697 5.4972,23.1335 5.5307,23.1335 5.5307,23.0614 5.5643,23.0614 5.5643,23.0255 5.598,23.0255 5.598,22.9892 5.6315,22.9892 5.6315,22.9533 5.6651,22.9533 5.6651,22.8811 5.6988,22.8811 5.6988,22.8451 5.7323,22.8451 5.7323,22.809 5.7658,22.809 5.7658,22.7368 5.7994,22.7368 5.7994,22.6649 5.833,22.6649 5.833,22.6286 5.8666,22.6286 5.8666,22.5566 5.9002,22.5566 5.9002,22.4845 5.9338,22.4845 5.9338,22.3762 5.9674,22.3762 5.9674,22.268 6.0009,22.268 6.0009,22.1599 6.0346,22.1599 6.0346,22.0156 6.0682,22.0156 6.0682,21.8714 6.1016,21.8714 6.1016,21.7632 6.1352,21.7632 6.1352,21.6189 6.1689,21.6189 6.1689,21.4386 6.2024,21.4386 6.2024,21.2583 6.236,21.2583 6.236,21.1502 6.2697,21.1502 6.2697,20.9699 6.3032,20.9699 6.3032,20.7174 6.3368,20.7174 6.3368,20.5371 6.3705,20.5371 6.3705,20.2847 6.404,20.2847 6.404,19.1668 6.4375,19.1668 6.4375,5.896 6.404,5.896 6.404,4.8863 6.3705,4.8863 6.3705,4.5257 6.3368,4.5257 6.3368,4.3453 6.3032,4.3453 6.3032,4.0929 6.2697,4.0929 6.2697,3.9125 6.236,3.9125 6.236,3.8044 6.2024,3.8044 6.2024,3.624 6.1689,3.624 6.1689,3.4438 6.1352,3.4438 6.1352,3.2994 6.1016,3.2994 6.1016,3.1912 6.0682,3.1912 6.0682,3.0469 6.0346,3.0469 6.0346,2.9028 6.0009,2.9028 6.0009,2.7945 5.9674,2.7945 5.9674,2.6863 5.9338,2.6863 5.9338,2.5782 5.9002,2.5782 5.9002,2.5061 5.8666,2.5061 5.8666,2.4339 5.833,2.4339 5.833,2.3979 5.7994,2.3979 5.7994,2.3257 5.7658,2.3257 5.7658,2.2537 5.7323,2.2537 5.7323,2.2176 5.6988,2.2176 5.6988,2.1815 5.6651,2.1815 5.6651,2.1093 5.6315,2.1093 5.6315,2.0733 5.598,2.0733 5.598,2.0373 5.5643,2.0373 5.5643,2.0013 5.5307,2.0013 5.5307,1.9291 5.4972,1.9291 5.4972,1.8931 5.4635,1.8931 5.4635,1.8569 5.4299,1.8569 5.4299,1.8209 5.3965,1.8209 5.3965,1.7849 5.3629,1.7849 5.3629,1.7487 5.2957,1.7487 5.2957,1.7127 5.2285,1.7127 5.2285,1.6767 5.0941,1.6767 5.0941,1.6407 4.7583,1.6407 4.7583,1.6045 4.3554,1.6045 "/>
     <polygon id="_27868760" class="fil1" points="20.14,1.6767 19.9049,1.6767 19.9049,1.7127 19.7706,1.7127 19.7706,1.7487 19.7034,1.7487 19.7034,1.7849 19.6361,1.7849 19.6361,1.8209 19.6026,1.8209 19.6026,1.8569 19.5691,1.8569 19.5691,1.8931 19.5353,1.8931 19.5353,1.9291 19.5019,1.9291 19.5019,1.9652 19.4683,1.9652 19.4683,2.0373 19.4346,2.0373 19.4346,2.0733 19.4011,2.0733 19.4011,2.1093 19.3675,2.1093 19.3675,2.1455 19.3339,2.1455 19.3339,2.2176 19.3003,2.2176 19.3003,2.2537 19.2667,2.2537 19.2667,2.2898 19.2333,2.2898 19.2333,2.3619 19.1995,2.3619 19.1995,2.4339 19.166,2.4339 19.166,2.47 19.1325,2.47 19.1325,2.5421 19.0988,2.5421 19.0988,2.6143 19.0652,2.6143 19.0652,2.7226 19.0317,2.7226 19.0317,2.8306 18.9981,2.8306 18.9981,2.9388 18.9644,2.9388 18.9644,3.0832 18.9309,3.0832 18.9309,3.2274 18.8974,3.2274 18.8974,3.3356 18.8638,3.3356 18.8638,3.4797 18.8302,3.4797 18.8302,3.624 18.7966,3.624 18.7966,3.8404 18.763,3.8404 18.763,3.9486 18.7294,3.9486 18.7294,4.1288 18.6958,4.1288 18.6958,4.3813 18.6622,4.3813 18.6622,4.5616 18.6286,4.5616 18.6286,4.8141 18.595,4.8141 18.595,6.1123 18.5616,6.1123 18.5616,17.4719 18.595,17.4719 18.595,20.1405 18.6286,20.1405 18.6286,20.5011 18.6622,20.5011 18.6622,20.6813 18.6958,20.6813 18.6958,20.9337 18.7294,20.9337 18.7294,21.1142 18.763,21.1142 18.763,21.2224 18.7966,21.2224 18.7966,21.4386 18.8302,21.4386 18.8302,21.583 18.8638,21.583 18.8638,21.7272 18.8974,21.7272 18.8974,21.8354 18.9309,21.8354 18.9309,21.9796 18.9644,21.9796 18.9644,22.1238 18.9981,22.1238 18.9981,22.2321 19.0317,22.2321 19.0317,22.3402 19.0652,22.3402 19.0652,22.4484 19.0988,22.4484 19.0988,22.5205 19.1325,22.5205 19.1325,22.5927 19.166,22.5927 19.166,22.6286 19.1995,22.6286 19.1995,22.7008 19.2333,22.7008 19.2333,22.7729 19.2667,22.7729 19.2667,22.809 19.3003,22.809 19.3003,22.8451 19.3339,22.8451 19.3339,22.9173 19.3675,22.9173 19.3675,22.9533 19.4011,22.9533 19.4011,22.9892 19.4346,22.9892 19.4346,23.0255 19.4683,23.0255 19.4683,23.0975 19.5019,23.0975 19.5019,23.1335 19.5353,23.1335 19.5353,23.1697 19.5691,23.1697 19.5691,23.2057 19.6026,23.2057 19.6026,23.2417 19.6361,23.2417 19.6361,23.2779 19.7034,23.2779 19.7034,23.3139 19.7706,23.3139 19.7706,23.3499 19.9049,23.3499 19.9049,23.386 20.2408,23.386 20.2408,23.4221 20.6437,23.4221 20.6437,23.386 20.8453,23.386 20.8453,23.3499 20.9125,23.3499 20.9125,23.3139 20.9795,23.3139 20.9795,23.2779 21.0467,23.2779 21.0467,23.2417 21.0803,23.2417 21.0803,23.2057 21.1475,23.2057 21.1475,23.1697 21.1811,23.1697 21.1811,23.1335 21.2146,23.1335 21.2146,23.0975 21.2483,23.0975 21.2483,23.0614 21.2818,23.0614 21.2818,23.0255 21.3154,23.0255 21.3154,22.9533 21.349,22.9533 21.349,22.9173 21.3826,22.9173 21.3826,22.8811 21.4162,22.8811 21.4162,22.809 21.4497,22.809 21.4497,22.7368 21.4834,22.7368 21.4834,22.6649 21.517,22.6649 21.517,22.5927 21.5504,22.5927 21.5504,22.5205 21.5842,22.5205 21.5842,22.4484 21.6176,22.4484 21.6176,22.3402 21.6512,22.3402 21.6512,22.268 21.6849,22.268 21.6849,22.196 21.7184,22.196 21.7184,22.0878 21.752,22.0878 21.752,21.9796 21.7857,21.9796 21.7857,21.8354 21.8192,21.8354 21.8192,21.7272 21.8528,21.7272 21.8528,21.5108 21.8863,21.5108 21.8863,21.2944 21.92,21.2944 21.92,21.042 21.9535,21.042 21.9535,20.6453 21.9871,20.6453 21.9871,20.3929 22.0207,20.3929 22.0207,18.9864 22.0543,18.9864 22.0543,16.8589 22.0879,16.8589 22.0879,15.3802 22.1214,15.3802 22.1214,10.3316 22.0879,10.3316 22.0879,7.6628 22.0543,7.6628 22.0543,6.545 22.0207,6.545 22.0207,4.7419 21.9871,4.7419 21.9871,4.4175 21.9535,4.4175 21.9535,4.0207 21.92,4.0207 21.92,3.7682 21.8863,3.7682 21.8863,3.5518 21.8528,3.5518 21.8528,3.3356 21.8192,3.3356 21.8192,3.2274 21.7857,3.2274 21.7857,3.0832 21.752,3.0832 21.752,2.975 21.7184,2.975 21.7184,2.8667 21.6849,2.8667 21.6849,2.7945 21.6512,2.7945 21.6512,2.7226 21.6176,2.7226 21.6176,2.6143 21.5842,2.6143 21.5842,2.5421 21.5504,2.5421 21.5504,2.47 21.517,2.47 21.517,2.3979 21.4834,2.3979 21.4834,2.3257 21.4497,2.3257 21.4497,2.2537 21.4162,2.2537 21.4162,2.1815 21.3826,2.1815 21.3826,2.1455 21.349,2.1455 21.349,2.1093 21.3154,2.1093 21.3154,2.0373 21.2818,2.0373 21.2818,2.0013 21.2483,2.0013 21.2483,1.9652 21.2146,1.9652 21.2146,1.9291 21.1811,1.9291 21.1811,1.8931 21.1475,1.8931 21.1475,1.8569 21.0803,1.8569 21.0803,1.8209 21.0467,1.8209 21.0467,1.7849 20.9795,1.7849 20.9795,1.7487 20.9125,1.7487 20.9125,1.7127 20.8453,1.7127 20.8453,1.6767 20.6437,1.6767 20.6437,1.6407 20.14,1.6407 "/>
     <polygon id="_41745392" class="fil1" points="9.5945,1.6767 9.3593,1.6767 9.3593,1.7127 9.2251,1.7127 9.2251,1.7487 9.1578,1.7487 9.1578,1.7849 9.0907,1.7849 9.0907,1.8209 9.057,1.8209 9.057,1.8569 9.0235,1.8569 9.0235,1.8931 8.99,1.8931 8.99,1.9291 8.9562,1.9291 8.9562,1.9652 8.9228,1.9652 8.9228,2.0373 8.8892,2.0373 8.8892,2.0733 8.8557,2.0733 8.8557,2.1093 8.822,2.1093 8.822,2.1455 8.7884,2.1455 8.7884,2.2176 8.7549,2.2176 8.7549,2.2537 8.7212,2.2537 8.7212,2.2898 8.6876,2.2898 8.6876,2.3619 8.6542,2.3619 8.6542,2.4339 8.6204,2.4339 8.6204,2.47 8.5869,2.47 8.5869,2.5421 8.5534,2.5421 8.5534,2.6143 8.5198,2.6143 8.5198,2.7226 8.4861,2.7226 8.4861,2.8306 8.4526,2.8306 8.4526,2.9388 8.419,2.9388 8.419,3.0832 8.3855,3.0832 8.3855,3.2274 8.3518,3.2274 8.3518,3.3356 8.3183,3.3356 8.3183,3.4797 8.2848,3.4797 8.2848,3.6601 8.2511,3.6601 8.2511,3.8404 8.2175,3.8404 8.2175,3.9486 8.184,3.9486 8.184,4.1288 8.1503,4.1288 8.1503,4.3813 8.1167,4.3813 8.1167,4.5616 8.0832,4.5616 8.0832,4.8141 8.0495,4.8141 8.0495,5.9319 8.0159,5.9319 8.0159,19.1306 8.0495,19.1306 8.0495,20.2486 8.0832,20.2486 8.0832,20.5371 8.1167,20.5371 8.1167,20.6813 8.1503,20.6813 8.1503,20.9337 8.184,20.9337 8.184,21.1142 8.2175,21.1142 8.2175,21.2224 8.2511,21.2224 8.2511,21.4386 8.2848,21.4386 8.2848,21.583 8.3183,21.583 8.3183,21.7272 8.3518,21.7272 8.3518,21.8354 8.3855,21.8354 8.3855,21.9796 8.419,21.9796 8.419,22.1238 8.4526,22.1238 8.4526,22.2321 8.4861,22.2321 8.4861,22.3402 8.5198,22.3402 8.5198,22.4484 8.5534,22.4484 8.5534,22.5205 8.5869,22.5205 8.5869,22.5927 8.6204,22.5927 8.6204,22.6286 8.6542,22.6286 8.6542,22.7008 8.6876,22.7008 8.6876,22.7729 8.7212,22.7729 8.7212,22.809 8.7549,22.809 8.7549,22.8451 8.7884,22.8451 8.7884,22.9173 8.822,22.9173 8.822,22.9533 8.8557,22.9533 8.8557,22.9892 8.8892,22.9892 8.8892,23.0255 8.9228,23.0255 8.9228,23.0975 8.9562,23.0975 8.9562,23.1335 8.99,23.1335 8.99,23.1697 9.0235,23.1697 9.0235,23.2057 9.057,23.2057 9.057,23.2417 9.0907,23.2417 9.0907,23.2779 9.1578,23.2779 9.1578,23.3139 9.2251,23.3139 9.2251,23.3499 9.3593,23.3499 9.3593,23.386 9.5945,23.386 9.5945,23.4221 10.1654,23.4221 10.1654,23.386 10.2996,23.386 10.2996,23.3499 10.3669,23.3499 10.3669,23.3139 10.4341,23.3139 10.4341,23.2779 10.4677,23.2779 10.4677,23.2417 10.5012,23.2417 10.5012,23.2057 10.5349,23.2057 10.5349,23.1697 10.5685,23.1697 10.5685,23.1335 10.602,23.1335 10.602,23.0614 10.6355,23.0614 10.6355,23.0255 10.6692,23.0255 10.6692,22.9892 10.7027,22.9892 10.7027,22.9533 10.7363,22.9533 10.7363,22.8811 10.7699,22.8811 10.7699,22.8451 10.8035,22.8451 10.8035,22.809 10.8371,22.809 10.8371,22.7368 10.8707,22.7368 10.8707,22.6649 10.9043,22.6649 10.9043,22.6286 10.9379,22.6286 10.9379,22.5566 10.9713,22.5566 10.9713,22.4845 11.0051,22.4845 11.0051,22.3762 11.0386,22.3762 11.0386,22.268 11.0721,22.268 11.0721,22.1599 11.1058,22.1599 11.1058,22.0156 11.1394,22.0156 11.1394,21.8714 11.1729,21.8714 11.1729,21.7632 11.2066,21.7632 11.2066,21.6189 11.2401,21.6189 11.2401,21.4748 11.2737,21.4748 11.2737,21.2583 11.3072,21.2583 11.3072,21.1502 11.3409,21.1502 11.3409,20.9699 11.3744,20.9699 11.3744,20.7174 11.408,20.7174 11.408,20.5371 11.4416,20.5371 11.4416,20.2847 11.4752,20.2847 11.4752,18.9864 11.5088,18.9864 11.5088,17.3997 11.5423,17.3997 11.5423,14.7312 11.576,14.7312 11.576,10.3316 11.5423,10.3316 11.5423,8.3121 11.5088,8.3121 11.5088,6.0762 11.4752,6.0762 11.4752,4.7781 11.4416,4.7781 11.4416,4.5257 11.408,4.5257 11.408,4.3453 11.3744,4.3453 11.3744,4.0929 11.3409,4.0929 11.3409,3.9125 11.3072,3.9125 11.3072,3.8044 11.2737,3.8044 11.2737,3.624 11.2401,3.624 11.2401,3.4438 11.2066,3.4438 11.2066,3.2994 11.1729,3.2994 11.1729,3.1912 11.1394,3.1912 11.1394,3.0469 11.1058,3.0469 11.1058,2.9028 11.0721,2.9028 11.0721,2.7945 11.0386,2.7945 11.0386,2.6863 11.0051,2.6863 11.0051,2.5782 10.9713,2.5782 10.9713,2.5061 10.9379,2.5061 10.9379,2.4339 10.9043,2.4339 10.9043,2.3979 10.8707,2.3979 10.8707,2.3257 10.8371,2.3257 10.8371,2.2537 10.8035,2.2537 10.8035,2.2176 10.7699,2.2176 10.7699,2.1815 10.7363,2.1815 10.7363,2.1093 10.7027,2.1093 10.7027,2.0733 10.6692,2.0733 10.6692,2.0373 10.6355,2.0373 10.6355,2.0013 10.602,2.0013 10.602,1.9291 10.5685,1.9291 10.5685,1.8931 10.5349,1.8931 10.5349,1.8569 10.5012,1.8569 10.5012,1.8209 10.4677,1.8209 10.4677,1.7849 10.4341,1.7849 10.4341,1.7487 10.3669,1.7487 10.3669,1.7127 10.2996,1.7127 10.2996,1.6767 10.1654,1.6767 10.1654,1.6407 9.5945,1.6407 "/>
     <polygon id="_56272520" class="fil1" points="14.968,1.6407 14.7329,1.6407 14.7329,1.6767 14.5984,1.6767 14.5984,1.7127 14.5314,1.7127 14.5314,1.7487 14.4642,1.7487 14.4642,1.7849 14.4306,1.7849 14.4306,1.8209 14.397,1.8209 14.397,1.8569 14.3634,1.8569 14.3634,1.8931 14.3298,1.8931 14.3298,1.9291 14.2963,1.9291 14.2963,2.0013 14.2626,2.0013 14.2626,2.0373 14.2291,2.0373 14.2291,2.0733 14.1955,2.0733 14.1955,2.1093 14.162,2.1093 14.162,2.1815 14.1283,2.1815 14.1283,2.2176 14.0947,2.2176 14.0947,2.2537 14.0612,2.2537 14.0612,2.3257 14.0277,2.3257 14.0277,2.3979 13.994,2.3979 13.994,2.4339 13.9605,2.4339 13.9605,2.5061 13.9269,2.5061 13.9269,2.5782 13.8933,2.5782 13.8933,2.6863 13.8597,2.6863 13.8597,2.7945 13.8261,2.7945 13.8261,2.9028 13.7925,2.9028 13.7925,3.0469 13.7589,3.0469 13.7589,3.1912 13.7253,3.1912 13.7253,3.2994 13.6917,3.2994 13.6917,3.4438 13.6581,3.4438 13.6581,3.624 13.6246,3.624 13.6246,3.8044 13.5911,3.8044 13.5911,3.9125 13.5574,3.9125 13.5574,4.0929 13.5238,4.0929 13.5238,4.3453 13.4903,4.3453 13.4903,4.4894 13.4566,4.4894 13.4566,4.8863 13.4231,4.8863 13.4231,5.6073 13.3895,5.6073 13.3895,19.4552 13.4231,19.4552 13.4231,20.1764 13.4566,20.1764 13.4566,20.5371 13.4903,20.5371 13.4903,20.7174 13.5238,20.7174 13.5238,20.9699 13.5574,20.9699 13.5574,21.1502 13.5911,21.1502 13.5911,21.2583 13.6246,21.2583 13.6246,21.4386 13.6581,21.4386 13.6581,21.6189 13.6917,21.6189 13.6917,21.7632 13.7253,21.7632 13.7253,21.8714 13.7589,21.8714 13.7589,22.0156 13.7925,22.0156 13.7925,22.1599 13.8261,22.1599 13.8261,22.268 13.8597,22.268 13.8597,22.3762 13.8933,22.3762 13.8933,22.4845 13.9269,22.4845 13.9269,22.5566 13.9605,22.5566 13.9605,22.6286 13.994,22.6286 13.994,22.6649 14.0277,22.6649 14.0277,22.7368 14.0612,22.7368 14.0612,22.809 14.0947,22.809 14.0947,22.8451 14.1283,22.8451 14.1283,22.8811 14.162,22.8811 14.162,22.9533 14.1955,22.9533 14.1955,22.9892 14.2291,22.9892 14.2291,23.0255 14.2626,23.0255 14.2626,23.0614 14.2963,23.0614 14.2963,23.1335 14.3298,23.1335 14.3298,23.1697 14.3634,23.1697 14.3634,23.2057 14.397,23.2057 14.397,23.2417 14.4306,23.2417 14.4306,23.2779 14.4642,23.2779 14.4642,23.3139 14.5314,23.3139 14.5314,23.3499 14.5984,23.3499 14.5984,23.386 14.7329,23.386 14.7329,23.4221 14.968,23.4221 14.968,23.4581 15.3373,23.4581 15.3373,23.4221 15.5054,23.4221 15.5054,23.386 15.6397,23.386 15.6397,23.3499 15.7068,23.3499 15.7068,23.3139 15.774,23.3139 15.774,23.2779 15.8075,23.2779 15.8075,23.2417 15.8412,23.2417 15.8412,23.2057 15.8748,23.2057 15.8748,23.1697 15.9083,23.1697 15.9083,23.1335 15.942,23.1335 15.942,23.0614 15.9756,23.0614 15.9756,23.0255 16.009,23.0255 16.009,22.9892 16.0426,22.9892 16.0426,22.9533 16.0763,22.9533 16.0763,22.8811 16.1098,22.8811 16.1098,22.8451 16.1434,22.8451 16.1434,22.809 16.1771,22.809 16.1771,22.7368 16.2106,22.7368 16.2106,22.6649 16.2442,22.6649 16.2442,22.6286 16.2777,22.6286 16.2777,22.5566 16.3114,22.5566 16.3114,22.4845 16.3449,22.4845 16.3449,22.3762 16.3784,22.3762 16.3784,22.268 16.4121,22.268 16.4121,22.1599 16.4457,22.1599 16.4457,22.0156 16.4792,22.0156 16.4792,21.8714 16.5129,21.8714 16.5129,21.7632 16.5465,21.7632 16.5465,21.6189 16.58,21.6189 16.58,21.4748 16.6135,21.4748 16.6135,21.2583 16.6473,21.2583 16.6473,21.1502 16.6807,21.1502 16.6807,20.9699 16.7143,20.9699 16.7143,20.7174 16.748,20.7174 16.748,20.5731 16.7815,20.5731 16.7815,20.2847 16.8151,20.2847 16.8151,19.2028 16.8823,19.2028 16.8823,16.7867 16.9159,16.7867 16.9159,14.4787 16.9493,14.4787 16.9493,10.2954 16.9159,10.2954 16.9159,7.6269 16.8823,7.6269 16.8823,6.2204 16.8488,6.2204 16.8488,6.1123 16.8151,6.1123 16.8151,4.8863 16.7815,4.8863 16.7815,4.4894 16.748,4.4894 16.748,4.3453 16.7143,4.3453 16.7143,4.0929 16.6807,4.0929 16.6807,3.9125 16.6473,3.9125 16.6473,3.8044 16.6135,3.8044 16.6135,3.588 16.58,3.588 16.58,3.4438 16.5465,3.4438 16.5465,3.2994 16.5129,3.2994 16.5129,3.1912 16.4792,3.1912 16.4792,3.0469 16.4457,3.0469 16.4457,2.9028 16.4121,2.9028 16.4121,2.7945 16.3784,2.7945 16.3784,2.6863 16.3449,2.6863 16.3449,2.5782 16.3114,2.5782 16.3114,2.5061 16.2777,2.5061 16.2777,2.4339 16.2442,2.4339 16.2442,2.3979 16.2106,2.3979 16.2106,2.3257 16.1771,2.3257 16.1771,2.2537 16.1434,2.2537 16.1434,2.2176 16.1098,2.2176 16.1098,2.1815 16.0763,2.1815 16.0763,2.1093 16.0426,2.1093 16.0426,2.0733 16.009,2.0733 16.009,2.0373 15.9756,2.0373 15.9756,2.0013 15.942,2.0013 15.942,1.9291 15.9083,1.9291 15.9083,1.8931 15.8748,1.8931 15.8748,1.8569 15.8412,1.8569 15.8412,1.8209 15.8075,1.8209 15.8075,1.7849 15.774,1.7849 15.774,1.7487 15.7068,1.7487 15.7068,1.7127 15.6397,1.7127 15.6397,1.6767 15.5054,1.6767 15.5054,1.6407 15.2701,1.6407 15.2701,1.6045 14.968,1.6045 "/>
     <path id="_58122752" class="fil1" d="M11.9789 23.0614l-0.2686 0 0 0.0361 -0.168 0 0 0.036 -0.2351 0 0 0.0362 -0.1678 0 0 0.036 -0.3359 0 0 -0.036 0.0336 0 0 -0.0722 0.0336 0 0 -0.0361 0.0336 0 0 -0.0359 0.0336 0 0 -0.0363 0.0334 0 0 -0.0719 0.0338 0 0 -0.0362 0.0335 0 0 -0.0721 0.0335 0 0 -0.0361 0.0337 0 0 -0.0721 0.0336 0 0 -0.0722 0.0335 0 0 -0.072 0.0337 0 0 -0.1082 0.0335 0 0 -0.0722 0.0336 0 0 -0.0719 0.0335 0 0 -0.1083 0.0337 0 0 -0.1082 0.0335 0 0 -0.1082 0.0336 0 0 -0.1082 0.0336 0 0 -0.1082 0.0336 0 0 -0.1802 0.0336 0 0 -0.2165 0.0335 0 0 -0.2163 0.0337 0 0 -0.1803 0.0336 0 0 -0.2886 0.0334 0 0 -0.2164 0.0338 0 0 -0.2163 0.0335 0 0 -0.2885 0.0335 0 0 -0.2165 0.2016 0 0 0.0363 0.1007 0 0 0.0359 0.1008 0 0 0.0361 0.1344 0 0 0.0361 0.3358 0 0 -0.0361 0.1343 0 0 -0.0361 0.0672 0 0 -0.0359 0.1343 0 0 -0.0363 0.2015 0 0 0.2165 0.0336 0 0 0.2885 0.0336 0 0 0.2163 0.0336 0 0 0.2164 0.0336 0 0 0.2886 0.0335 0 0 0.1803 0.0335 0 0 0.2163 0.0337 0 0 0.2165 0.0336 0 0 0.1802 0.0335 0 0 0.1082 0.0337 0 0 0.1082 0.0335 0 0 0.1082 0.0336 0 0 0.1082 0.0337 0 0 0.1083 0.0335 0 0 0.0719 0.0335 0 0 0.0722 0.0336 0 0 0.1082 0.0336 0 0 0.072 0.0336 0 0 0.0722 0.0336 0 0 0.0721 0.0336 0 0 0.0361 0.0336 0 0 0.0721 0.0336 0 0 0.0362 0.0336 0 0 0.0719 0.0336 0 0 0.0363 0.0335 0 0 0.0359 0.0337 0 0 0.0361 0.0335 0 0 0.0722 0.0335 0 0 0.036 -0.3358 0 0 -0.036 -0.1678 0 0 -0.0362 -0.2353 0 0 -0.036 -0.2014 0 0 -0.0361 -0.3022 0 0 -0.0359 -0.8733 0 0 0.0359zm5.7429 -0.0359l0 0 -0.3358 0 0 0.0359 -0.3022 0 0 0.0361 -0.2015 0 0 0.036 -0.235 0 0 0.0362 -0.1681 0 0 0.036 -0.3358 0 0 -0.036 0.0337 0 0 -0.0722 0.0335 0 0 -0.0361 0.0336 0 0 -0.0359 0.0335 0 0 -0.0363 0.0337 0 0 -0.0719 0.0335 0 0 -0.0362 0.0335 0 0 -0.0721 0.0337 0 0 -0.0361 0.0336 0 0 -0.0721 0.0335 0 0 -0.0722 0.0337 0 0 -0.072 0.0336 0 0 -0.1082 0.0335 0 0 -0.0722 0.0335 0 0 -0.0719 0.0338 0 0 -0.1083 0.0334 0 0 -0.1082 0.0336 0 0 -0.1082 0.0337 0 0 -0.1082 0.0335 0 0 -0.1082 0.0336 0 0 -0.1802 0.0337 0 0 -0.2165 0.0335 0 0 -0.2163 0.0336 0 0 -0.1803 0.0334 0 0 -0.2886 0.0338 0 0 -0.2164 0.0335 0 0 -0.2163 0.0335 0 0 -0.2885 0.0337 0 0 -0.2165 0.2014 0 0 0.0363 0.1345 0 0 0.0359 0.0671 0 0 0.0361 0.1342 0 0 0.0361 0.1008 0 0 -0.0361 0.0673 0 0 -0.0361 0.1342 0 0 -0.0359 0.1008 0 0 -0.0363 0.1008 0 0 -0.0359 0.2015 0 0 0.2163 0.0336 0 0 0.2885 0.0335 0 0 0.2164 0.0337 0 0 0.2164 0.0336 0 0 0.2884 0.0335 0 0 0.1805 0.0335 0 0 0.2163 0.0338 0 0 0.2162 0.0334 0 0 0.1805 0.0336 0 0 0.1082 0.0336 0 0 0.1082 0.0336 0 0 0.1081 0.0336 0 0 0.1082 0.0336 0 0 0.1081 0.0336 0 0 0.0722 0.0336 0 0 0.0722 0.0336 0 0 0.1081 0.0336 0 0 0.0722 0.0335 0 0 0.0722 0.0335 0 0 0.0719 0.0337 0 0 0.0361 0.0336 0 0 0.0722 0.0335 0 0 0.036 0.0336 0 0 0.0722 0.0337 0 0 0.0359 0.0335 0 0 0.0363 0.0335 0 0 0.0359 0.0338 0 0 0.0721 0.0334 0 0 0.0362 -0.3358 0 0 -0.0362 -0.1679 0 0 -0.036 -0.2352 0 0 -0.0361 -0.1678 0 0 -0.0359 -0.3359 0 0 -0.0363 -0.3023 0 0 0.0363zm-10.5454 0l0 0 -0.2015 0 0 0.0359 -0.3023 0 0 0.0361 -0.2015 0 0 0.036 -0.2351 0 0 0.0362 -0.1678 0 0 0.036 -0.3359 0 0 -0.036 0.0335 0 0 -0.0722 0.0336 0 0 -0.0361 0.0336 0 0 -0.0359 0.0336 0 0 -0.0363 0.0336 0 0 -0.0719 0.0336 0 0 -0.0362 0.0336 0 0 -0.0721 0.0335 0 0 -0.0361 0.0337 0 0 -0.0721 0.0336 0 0 -0.0722 0.0334 0 0 -0.072 0.0336 0 0 -0.1082 0.0337 0 0 -0.0722 0.0335 0 0 -0.0719 0.0336 0 0 -0.1083 0.0337 0 0 -0.1082 0.0335 0 0 -0.1082 0.0336 0 0 -0.1082 0.0337 0 0 -0.1082 0.0335 0 0 -0.1802 0.0335 0 0 -0.2165 0.0336 0 0 -0.2163 0.0336 0 0 -0.1803 0.0336 0 0 -0.2886 0.0335 0 0 -0.2164 0.0337 0 0 -0.2163 0.0336 0 0 -0.2885 0.0335 0 0 -0.2165 0.2015 0 0 0.0363 0.1008 0 0 0.0359 0.1008 0 0 0.0361 0.1678 0 0 -0.0361 0.1345 0 0 -0.0359 0.1006 0 0 -0.0363 0.1008 0 0 -0.0359 0.2015 0 0 0.2163 0.0335 0 0 0.2885 0.0337 0 0 0.2164 0.0336 0 0 0.2164 0.0335 0 0 0.2884 0.0335 0 0 0.1805 0.0338 0 0 0.2163 0.0334 0 0 0.2162 0.0336 0 0 0.1805 0.0337 0 0 0.1082 0.0335 0 0 0.1082 0.0336 0 0 0.1081 0.0337 0 0 0.1082 0.0335 0 0 0.1081 0.0336 0 0 0.0722 0.0337 0 0 0.0722 0.0335 0 0 0.1081 0.0335 0 0 0.0722 0.0337 0 0 0.0722 0.0335 0 0 0.0719 0.0336 0 0 0.0361 0.0335 0 0 0.0722 0.0337 0 0 0.036 0.0336 0 0 0.0722 0.0335 0 0 0.0359 0.0335 0 0 0.0363 0.0338 0 0 0.0359 0.0334 0 0 0.0721 0.0336 0 0 0.0362 -0.3357 0 0 -0.0362 -0.168 0 0 -0.036 -0.235 0 0 -0.0361 -0.2016 0 0 -0.0359 -0.3023 0 0 -0.0363 -0.3022 0 0 0.0363zm14.9115 -6.1666l0 0 0 -1.4787 0.0335 0 0 -5.0486 -0.0335 0 0 -2.6688 -0.0336 0 0 -1.1178 -0.0336 0 0 -1.8031 -0.0336 0 0 -0.3244 -0.0336 0 0 -0.3968 -0.0335 0 0 -0.2525 -0.0337 0 0 -0.2164 -0.0335 0 0 -0.2162 -0.0336 0 0 -0.1082 -0.0335 0 0 -0.1442 -0.0337 0 0 -0.1082 -0.0336 0 0 -0.1083 -0.0335 0 0 -0.0722 -0.0337 0 0 -0.0719 -0.0336 0 0 -0.1083 -0.0334 0 0 -0.0722 -0.0338 0 0 -0.0721 -0.0334 0 0 -0.0721 -0.0336 0 0 -0.0722 -0.0337 0 0 -0.072 -0.0335 0 0 -0.0722 -0.0336 0 0 -0.036 -0.0336 0 0 -0.0362 -0.0336 0 0 -0.072 -0.0336 0 0 -0.036 -0.0335 0 0 -0.0361 -0.0337 0 0 -0.0361 -0.0335 0 0 -0.036 -0.0336 0 0 -0.0362 -0.0672 0 0 -0.036 -0.0336 0 0 -0.036 -0.0672 0 0 -0.0362 -0.067 0 0 -0.036 -0.0672 0 0 -0.036 -0.2016 0 0 -0.036 -0.5037 0 0 0.036 -0.2351 0 0 0.036 -0.1343 0 0 0.036 -0.0672 0 0 0.0362 -0.0673 0 0 0.036 -0.0335 0 0 0.036 -0.0335 0 0 0.0362 -0.0338 0 0 0.036 -0.0334 0 0 0.0361 -0.0336 0 0 0.0721 -0.0337 0 0 0.036 -0.0335 0 0 0.036 -0.0336 0 0 0.0362 -0.0336 0 0 0.0721 -0.0336 0 0 0.0361 -0.0336 0 0 0.0361 -0.0334 0 0 0.0721 -0.0338 0 0 0.072 -0.0335 0 0 0.0361 -0.0335 0 0 0.0721 -0.0337 0 0 0.0722 -0.0336 0 0 0.1083 -0.0335 0 0 0.108 -0.0336 0 0 0.1082 -0.0337 0 0 0.1444 -0.0335 0 0 0.1442 -0.0335 0 0 0.1082 -0.0336 0 0 0.1441 -0.0336 0 0 0.1443 -0.0336 0 0 0.2164 -0.0336 0 0 0.1082 -0.0336 0 0 0.1802 -0.0336 0 0 0.2525 -0.0336 0 0 0.1803 -0.0336 0 0 0.2525 -0.0336 0 0 1.2982 -0.0334 0 0 11.3596 0.0334 0 0 2.6686 0.0336 0 0 0.3606 0.0336 0 0 0.1802 0.0336 0 0 0.2524 0.0336 0 0 0.1805 0.0336 0 0 0.1082 0.0336 0 0 0.2162 0.0336 0 0 0.1444 0.0336 0 0 0.1442 0.0336 0 0 0.1082 0.0335 0 0 0.1442 0.0335 0 0 0.1442 0.0337 0 0 0.1083 0.0336 0 0 0.1081 0.0335 0 0 0.1082 0.0336 0 0 0.0721 0.0337 0 0 0.0722 0.0335 0 0 0.0359 0.0335 0 0 0.0722 0.0338 0 0 0.0721 0.0334 0 0 0.0361 0.0336 0 0 0.0361 0.0336 0 0 0.0722 0.0336 0 0 0.036 0.0336 0 0 0.0359 0.0335 0 0 0.0363 0.0337 0 0 0.072 0.0336 0 0 0.036 0.0334 0 0 0.0362 0.0338 0 0 0.036 0.0335 0 0 0.036 0.0335 0 0 0.0362 0.0673 0 0 0.036 0.0672 0 0 0.036 0.1343 0 0 0.0361 0.3359 0 0 0.0361 0.4029 0 0 -0.0361 0.2016 0 0 -0.0361 0.0672 0 0 -0.036 0.067 0 0 -0.036 0.0672 0 0 -0.0362 0.0336 0 0 -0.036 0.0672 0 0 -0.036 0.0336 0 0 -0.0362 0.0335 0 0 -0.036 0.0337 0 0 -0.0361 0.0335 0 0 -0.0359 0.0336 0 0 -0.0722 0.0336 0 0 -0.036 0.0336 0 0 -0.0362 0.0336 0 0 -0.0721 0.0335 0 0 -0.0722 0.0337 0 0 -0.0719 0.0336 0 0 -0.0722 0.0334 0 0 -0.0722 0.0338 0 0 -0.0721 0.0334 0 0 -0.1082 0.0336 0 0 -0.0722 0.0337 0 0 -0.072 0.0335 0 0 -0.1082 0.0336 0 0 -0.1082 0.0337 0 0 -0.1442 0.0335 0 0 -0.1082 0.0336 0 0 -0.2164 0.0335 0 0 -0.2164 0.0337 0 0 -0.2524 0.0335 0 0 -0.3967 0.0336 0 0 -0.2524 0.0336 0 0 -1.4065 0.0336 0 0 -2.1275 0.0336 0zm-19.2104 -7.2125l0 0 0 5.1207 0.0337 0 0 2.6686 0.0336 0 0 1.1179 0.0335 0 0 1.7671 0.0337 0 0 0.4689 0.0336 0 0 0.3606 0.0334 0 0 0.1803 0.0336 0 0 0.2525 0.0336 0 0 0.1802 0.0336 0 0 0.1082 0.0336 0 0 0.1442 0.0336 0 0 0.1082 0.0336 0 0 0.1083 0.0336 0 0 0.0722 0.0336 0 0 0.0719 0.0336 0 0 0.1083 0.0335 0 0 0.0721 0.0337 0 0 0.072 0.0335 0 0 0.0722 0.0336 0 0 0.0721 0.0336 0 0 0.0722 0.0336 0 0 0.0722 0.0336 0 0 0.036 0.0335 0 0 0.0359 0.0337 0 0 0.0722 0.0335 0 0 0.0361 0.0335 0 0 0.036 0.0336 0 0 0.0362 0.0336 0 0 0.036 0.0336 0 0 0.036 0.0672 0 0 0.0362 0.0336 0 0 0.036 0.0672 0 0 0.036 0.0671 0 0 0.0361 0.0672 0 0 0.0361 0.2016 0 0 0.036 0.5036 0 0 -0.036 0.2351 0 0 -0.0361 0.1344 0 0 -0.0361 0.0672 0 0 -0.036 0.0672 0 0 -0.036 0.0336 0 0 -0.0362 0.0334 0 0 -0.036 0.0336 0 0 -0.036 0.0337 0 0 -0.0362 0.0335 0 0 -0.0721 0.0336 0 0 -0.0359 0.0337 0 0 -0.0363 0.0335 0 0 -0.0359 0.0336 0 0 -0.0722 0.0337 0 0 -0.036 0.0335 0 0 -0.0361 0.0335 0 0 -0.0722 0.0336 0 0 -0.0719 0.0336 0 0 -0.0363 0.0336 0 0 -0.072 0.0336 0 0 -0.0721 0.0336 0 0 -0.1083 0.0336 0 0 -0.1082 0.0335 0 0 -0.1081 0.0337 0 0 -0.1443 0.0336 0 0 -0.1442 0.0334 0 0 -0.1082 0.0336 0 0 -0.1443 0.0337 0 0 -0.1803 0.0335 0 0 -0.1803 0.0336 0 0 -0.1081 0.0337 0 0 -0.1803 0.0335 0 0 -0.2525 0.0336 0 0 -0.1803 0.0337 0 0 -0.2524 0.0335 0 0 -1.1179 0.0335 0 0 -13.2708 -0.0335 0 0 -1.0097 -0.0335 0 0 -0.3606 -0.0337 0 0 -0.1804 -0.0336 0 0 -0.2524 -0.0335 0 0 -0.1804 -0.0337 0 0 -0.1081 -0.0336 0 0 -0.1804 -0.0335 0 0 -0.1802 -0.0337 0 0 -0.1444 -0.0336 0 0 -0.1082 -0.0334 0 0 -0.1443 -0.0336 0 0 -0.1441 -0.0337 0 0 -0.1083 -0.0335 0 0 -0.1082 -0.0336 0 0 -0.1081 -0.0336 0 0 -0.0721 -0.0336 0 0 -0.0722 -0.0336 0 0 -0.036 -0.0336 0 0 -0.0722 -0.0336 0 0 -0.072 -0.0335 0 0 -0.0361 -0.0335 0 0 -0.0361 -0.0337 0 0 -0.0722 -0.0336 0 0 -0.036 -0.0335 0 0 -0.036 -0.0337 0 0 -0.036 -0.0336 0 0 -0.0722 -0.0335 0 0 -0.036 -0.0337 0 0 -0.0362 -0.0336 0 0 -0.036 -0.0334 0 0 -0.036 -0.0336 0 0 -0.0362 -0.0672 0 0 -0.036 -0.0672 0 0 -0.036 -0.1344 0 0 -0.036 -0.3358 0 0 -0.0362 -0.4029 0 0 0.0362 -0.2016 0 0 0.036 -0.0672 0 0 0.036 -0.0671 0 0 0.036 -0.0672 0 0 0.0362 -0.0336 0 0 0.036 -0.0672 0 0 0.036 -0.0336 0 0 0.0362 -0.0336 0 0 0.036 -0.0336 0 0 0.0361 -0.0335 0 0 0.0361 -0.0335 0 0 0.072 -0.0337 0 0 0.036 -0.0335 0 0 0.0362 -0.0336 0 0 0.0721 -0.0336 0 0 0.0722 -0.0336 0 0 0.0721 -0.0336 0 0 0.072 -0.0335 0 0 0.0722 -0.0337 0 0 0.0721 -0.0335 0 0 0.1081 -0.0336 0 0 0.0722 -0.0336 0 0 0.0721 -0.0336 0 0 0.1082 -0.0336 0 0 0.1081 -0.0336 0 0 0.1443 -0.0336 0 0 0.1082 -0.0336 0 0 0.2164 -0.0336 0 0 0.2164 -0.0336 0 0 0.2164 -0.0334 0 0 0.3245 -0.0336 0 0 0.3606 -0.0337 0 0 1.8753 -0.0335 0 0 1.1901 -0.0336 0 0 1.9473 -0.0337 0zm8.6648 7.7533l0 0 0 -2.6685 0.0337 0 0 -4.3996 -0.0337 0 0 -2.0195 -0.0335 0 0 -2.2359 -0.0336 0 0 -1.2981 -0.0336 0 0 -0.2524 -0.0336 0 0 -0.1804 -0.0336 0 0 -0.2524 -0.0335 0 0 -0.1804 -0.0337 0 0 -0.1081 -0.0335 0 0 -0.1804 -0.0336 0 0 -0.1802 -0.0335 0 0 -0.1444 -0.0337 0 0 -0.1082 -0.0335 0 0 -0.1443 -0.0336 0 0 -0.1441 -0.0337 0 0 -0.1083 -0.0335 0 0 -0.1082 -0.0335 0 0 -0.1081 -0.0338 0 0 -0.0721 -0.0334 0 0 -0.0722 -0.0336 0 0 -0.036 -0.0336 0 0 -0.0722 -0.0336 0 0 -0.072 -0.0336 0 0 -0.0361 -0.0336 0 0 -0.0361 -0.0336 0 0 -0.0722 -0.0336 0 0 -0.036 -0.0335 0 0 -0.036 -0.0337 0 0 -0.036 -0.0335 0 0 -0.0722 -0.0335 0 0 -0.036 -0.0336 0 0 -0.0362 -0.0337 0 0 -0.036 -0.0335 0 0 -0.036 -0.0336 0 0 -0.0362 -0.0672 0 0 -0.036 -0.0673 0 0 -0.036 -0.1342 0 0 -0.036 -0.5709 0 0 0.036 -0.2352 0 0 0.036 -0.1342 0 0 0.036 -0.0673 0 0 0.0362 -0.0671 0 0 0.036 -0.0337 0 0 0.036 -0.0335 0 0 0.0362 -0.0335 0 0 0.036 -0.0338 0 0 0.0361 -0.0334 0 0 0.0721 -0.0336 0 0 0.036 -0.0335 0 0 0.036 -0.0337 0 0 0.0362 -0.0336 0 0 0.0721 -0.0335 0 0 0.0361 -0.0337 0 0 0.0361 -0.0336 0 0 0.0721 -0.0334 0 0 0.072 -0.0338 0 0 0.0361 -0.0335 0 0 0.0721 -0.0335 0 0 0.0722 -0.0336 0 0 0.1083 -0.0337 0 0 0.108 -0.0335 0 0 0.1082 -0.0336 0 0 0.1444 -0.0335 0 0 0.1442 -0.0337 0 0 0.1082 -0.0335 0 0 0.1441 -0.0335 0 0 0.1804 -0.0337 0 0 0.1803 -0.0336 0 0 0.1082 -0.0335 0 0 0.1802 -0.0337 0 0 0.2525 -0.0336 0 0 0.1803 -0.0335 0 0 0.2525 -0.0337 0 0 1.1178 -0.0336 0 0 13.1987 0.0336 0 0 1.118 0.0337 0 0 0.2885 0.0335 0 0 0.1442 0.0336 0 0 0.2524 0.0337 0 0 0.1805 0.0335 0 0 0.1082 0.0336 0 0 0.2162 0.0337 0 0 0.1444 0.0335 0 0 0.1442 0.0335 0 0 0.1082 0.0337 0 0 0.1442 0.0335 0 0 0.1442 0.0336 0 0 0.1083 0.0335 0 0 0.1081 0.0337 0 0 0.1082 0.0336 0 0 0.0721 0.0335 0 0 0.0722 0.0335 0 0 0.0359 0.0338 0 0 0.0722 0.0334 0 0 0.0721 0.0336 0 0 0.0361 0.0337 0 0 0.0361 0.0335 0 0 0.0722 0.0336 0 0 0.036 0.0337 0 0 0.0359 0.0335 0 0 0.0363 0.0336 0 0 0.072 0.0334 0 0 0.036 0.0338 0 0 0.0362 0.0335 0 0 0.036 0.0335 0 0 0.036 0.0337 0 0 0.0362 0.0671 0 0 0.036 0.0673 0 0 0.036 0.1342 0 0 0.0361 0.2352 0 0 0.0361 0.5709 0 0 -0.0361 0.1342 0 0 -0.0361 0.0673 0 0 -0.036 0.0672 0 0 -0.036 0.0336 0 0 -0.0362 0.0335 0 0 -0.036 0.0337 0 0 -0.036 0.0336 0 0 -0.0362 0.0335 0 0 -0.0721 0.0335 0 0 -0.0359 0.0337 0 0 -0.0363 0.0335 0 0 -0.0359 0.0336 0 0 -0.0722 0.0336 0 0 -0.036 0.0336 0 0 -0.0361 0.0336 0 0 -0.0722 0.0336 0 0 -0.0719 0.0336 0 0 -0.0363 0.0336 0 0 -0.072 0.0334 0 0 -0.0721 0.0338 0 0 -0.1083 0.0335 0 0 -0.1082 0.0335 0 0 -0.1081 0.0337 0 0 -0.1443 0.0336 0 0 -0.1442 0.0335 0 0 -0.1082 0.0337 0 0 -0.1443 0.0335 0 0 -0.1441 0.0336 0 0 -0.2165 0.0335 0 0 -0.1081 0.0337 0 0 -0.1803 0.0335 0 0 -0.2525 0.0336 0 0 -0.1803 0.0336 0 0 -0.2524 0.0336 0 0 -1.2983 0.0336 0 0 -1.5867 0.0335 0zm5.3736 -0.613l0 0 0 -2.308 0.0334 0 0 -4.1833 -0.0334 0 0 -2.6685 -0.0336 0 0 -1.4065 -0.0335 0 0 -0.1081 -0.0337 0 0 -1.226 -0.0336 0 0 -0.3969 -0.0335 0 0 -0.1441 -0.0337 0 0 -0.2524 -0.0336 0 0 -0.1804 -0.0334 0 0 -0.1081 -0.0338 0 0 -0.2164 -0.0335 0 0 -0.1442 -0.0335 0 0 -0.1444 -0.0336 0 0 -0.1082 -0.0337 0 0 -0.1443 -0.0335 0 0 -0.1441 -0.0336 0 0 -0.1083 -0.0337 0 0 -0.1082 -0.0335 0 0 -0.1081 -0.0335 0 0 -0.0721 -0.0337 0 0 -0.0722 -0.0335 0 0 -0.036 -0.0336 0 0 -0.0722 -0.0335 0 0 -0.072 -0.0337 0 0 -0.0361 -0.0336 0 0 -0.0361 -0.0335 0 0 -0.0722 -0.0337 0 0 -0.036 -0.0336 0 0 -0.036 -0.0334 0 0 -0.036 -0.0336 0 0 -0.0722 -0.0337 0 0 -0.036 -0.0335 0 0 -0.0362 -0.0336 0 0 -0.036 -0.0337 0 0 -0.036 -0.0335 0 0 -0.0362 -0.0672 0 0 -0.036 -0.0671 0 0 -0.036 -0.1343 0 0 -0.036 -0.2353 0 0 -0.0362 -0.3021 0 0 0.0362 -0.2351 0 0 0.036 -0.1345 0 0 0.036 -0.067 0 0 0.036 -0.0672 0 0 0.0362 -0.0336 0 0 0.036 -0.0336 0 0 0.036 -0.0336 0 0 0.0362 -0.0336 0 0 0.036 -0.0335 0 0 0.0722 -0.0337 0 0 0.036 -0.0335 0 0 0.036 -0.0336 0 0 0.036 -0.0335 0 0 0.0722 -0.0337 0 0 0.0361 -0.0336 0 0 0.0361 -0.0335 0 0 0.072 -0.0335 0 0 0.0722 -0.0337 0 0 0.036 -0.0335 0 0 0.0722 -0.0336 0 0 0.0721 -0.0336 0 0 0.1081 -0.0336 0 0 0.1082 -0.0336 0 0 0.1083 -0.0336 0 0 0.1441 -0.0336 0 0 0.1443 -0.0336 0 0 0.1082 -0.0336 0 0 0.1444 -0.0336 0 0 0.1802 -0.0335 0 0 0.1804 -0.0335 0 0 0.1081 -0.0337 0 0 0.1804 -0.0336 0 0 0.2524 -0.0335 0 0 0.1441 -0.0337 0 0 0.3969 -0.0335 0 0 0.721 -0.0336 0 0 13.8479 0.0336 0 0 0.7212 0.0335 0 0 0.3607 0.0337 0 0 0.1803 0.0335 0 0 0.2525 0.0336 0 0 0.1803 0.0337 0 0 0.1081 0.0335 0 0 0.1803 0.0335 0 0 0.1803 0.0336 0 0 0.1443 0.0336 0 0 0.1082 0.0336 0 0 0.1442 0.0336 0 0 0.1443 0.0336 0 0 0.1081 0.0336 0 0 0.1082 0.0336 0 0 0.1083 0.0336 0 0 0.0721 0.0336 0 0 0.072 0.0335 0 0 0.0363 0.0337 0 0 0.0719 0.0335 0 0 0.0722 0.0335 0 0 0.0361 0.0336 0 0 0.036 0.0337 0 0 0.0722 0.0335 0 0 0.0359 0.0336 0 0 0.0363 0.0335 0 0 0.0359 0.0337 0 0 0.0721 0.0335 0 0 0.0362 0.0336 0 0 0.036 0.0336 0 0 0.036 0.0336 0 0 0.0362 0.0336 0 0 0.036 0.0672 0 0 0.036 0.067 0 0 0.0361 0.1345 0 0 0.0361 0.2351 0 0 0.036 0.3693 0 0 -0.036 0.1681 0 0 -0.0361 0.1343 0 0 -0.0361 0.0671 0 0 -0.036 0.0672 0 0 -0.036 0.0335 0 0 -0.0362 0.0337 0 0 -0.036 0.0336 0 0 -0.036 0.0335 0 0 -0.0362 0.0337 0 0 -0.0721 0.0336 0 0 -0.0359 0.0334 0 0 -0.0363 0.0336 0 0 -0.0359 0.0337 0 0 -0.0722 0.0335 0 0 -0.036 0.0336 0 0 -0.0361 0.0337 0 0 -0.0722 0.0335 0 0 -0.0719 0.0336 0 0 -0.0363 0.0335 0 0 -0.072 0.0337 0 0 -0.0721 0.0335 0 0 -0.1083 0.0335 0 0 -0.1082 0.0337 0 0 -0.1081 0.0336 0 0 -0.1443 0.0335 0 0 -0.1442 0.0337 0 0 -0.1082 0.0336 0 0 -0.1443 0.0335 0 0 -0.1441 0.0335 0 0 -0.2165 0.0338 0 0 -0.1081 0.0334 0 0 -0.1803 0.0336 0 0 -0.2525 0.0337 0 0 -0.1443 0.0335 0 0 -0.2884 0.0336 0 0 -1.0819 0.0672 0 0 -2.4161 0.0336 0zm-0.6382 -14.533l0 0 0 0.072 0.0337 0 0 0.0722 0.0335 0 0 0.0721 0.0335 0 0 0.0721 0.0337 0 0 0.0722 0.0336 0 0 0.1083 0.0335 0 0 0.108 0.0337 0 0 0.1082 0.0336 0 0 0.1081 0.0335 0 0 0.1443 0.0335 0 0 0.1444 0.0338 0 0 0.1441 0.0334 0 0 0.2165 0.0336 0 0 0.1082 0.0337 0 0 0.2163 0.0335 0 0 0.1803 0.0336 0 0 0.1803 0.0337 0 0 0.2524 0.0335 0 0 0.3246 0.0336 0 0 0.9016 0.0334 0 0 1.0458 0.0338 0 0 2.0555 0.0335 0 0 2.0195 0.0335 0 0 3.9307 -0.0335 0 0 1.3704 -0.0335 0 0 1.7669 -0.0338 0 0 1.1541 -0.0334 0 0 1.0097 -0.0336 0 0 0.2164 -0.0335 0 0 0.2524 -0.0337 0 0 0.1805 -0.0336 0 0 0.1802 -0.0335 0 0 0.2163 -0.0337 0 0 0.1082 -0.0336 0 0 0.2165 -0.0334 0 0 0.1442 -0.0338 0 0 0.1442 -0.0335 0 0 0.1442 -0.0335 0 0 0.1082 -0.0336 0 0 0.1083 -0.0337 0 0 0.1081 -0.0335 0 0 0.1082 -0.0336 0 0 0.0721 -0.0337 0 0 0.0722 -0.0335 0 0 0.0722 -0.0335 0 0 0.0719 -0.0337 0 0 0.0722 0.0337 0 0 -0.0361 0.0335 0 0 -0.0721 0.0335 0 0 -0.0722 0.0337 0 0 -0.072 0.0336 0 0 -0.0721 0.0335 0 0 -0.1083 0.0337 0 0 -0.0719 0.0336 0 0 -0.0722 0.0335 0 0 -0.1083 0.0335 0 0 -0.1082 0.0338 0 0 -0.1082 0.0334 0 0 -0.1442 0.0336 0 0 -0.1082 0.0337 0 0 -0.1802 0.0335 0 0 -0.2887 0.0336 0 0 -0.1441 0.0337 0 0 -0.2165 0.0335 0 0 -0.2162 0.0336 0 0 -0.2886 0.0334 0 0 -0.2524 0.0338 0 0 -0.1803 0.0335 0 0 -0.2525 0.2351 0 0 0.0362 0.1343 0 0 0.036 0.0672 0 0 0.0359 0.1678 0 0 0.0363 0.1008 0 0 -0.0363 0.0673 0 0 -0.0359 0.1678 0 0 -0.036 0.0672 0 0 -0.0362 0.1344 0 0 -0.036 0.235 0 0 0.2524 0.0337 0 0 0.1804 0.0336 0 0 0.2524 0.0335 0 0 0.2884 0.0335 0 0 0.2165 0.0338 0 0 0.2163 0.0334 0 0 0.1443 0.0336 0 0 0.2884 0.0336 0 0 0.1803 0.0336 0 0 0.1083 0.0336 0 0 0.1442 0.0336 0 0 0.1082 0.0336 0 0 0.1082 0.0336 0 0 0.1082 0.0336 0 0 0.072 0.0336 0 0 0.1082 0.0335 0 0 0.0722 0.0335 0 0 0.0721 0.0337 0 0 0.0722 0.0336 0 0 0.0722 0.0335 0 0 0.0719 0.0336 0 0 0.0361 0.0337 0 0 -0.0721 -0.0337 0 0 -0.0722 -0.0336 0 0 -0.072 -0.0335 0 0 -0.0721 -0.0336 0 0 -0.0721 -0.0337 0 0 -0.1081 -0.0335 0 0 -0.1083 -0.0335 0 0 -0.1082 -0.0336 0 0 -0.1082 -0.0336 0 0 -0.1442 -0.0336 0 0 -0.1443 -0.0336 0 0 -0.1444 -0.0336 0 0 -0.2162 -0.0336 0 0 -0.1081 -0.0336 0 0 -0.2165 -0.0336 0 0 -0.1804 -0.0336 0 0 -0.1802 -0.0334 0 0 -0.2524 -0.0338 0 0 -0.2165 -0.0335 0 0 -3.6782 -0.0335 0 0 -9.4122 0.0335 0 0 -1.9473 0.0335 0 0 -0.4689 0.0338 0 0 -0.2523 0.0334 0 0 -0.1805 0.0336 0 0 -0.1802 0.0336 0 0 -0.2164 0.0336 0 0 -0.1082 0.0336 0 0 -0.2164 0.0336 0 0 -0.1442 0.0336 0 0 -0.1442 0.0336 0 0 -0.1442 0.0336 0 0 -0.1082 0.0336 0 0 -0.1083 0.0335 0 0 -0.1082 0.0335 0 0 -0.1081 0.0337 0 0 -0.0722 0.0336 0 0 -0.0721 0.0335 0 0 -0.0722 0.0336 0 0 -0.072 0.0337 0 0 -0.0721 -0.0337 0 0 0.0359 -0.0336 0 0 0.0722 -0.0335 0 0 0.0721 -0.0336 0 0 0.0721 -0.0337 0 0 0.0722 -0.0335 0 0 0.1083 -0.0335 0 0 0.0719 -0.0336 0 0 0.0722 -0.0336 0 0 0.1083 -0.0336 0 0 0.1082 -0.0336 0 0 0.108 -0.0336 0 0 0.1444 -0.0336 0 0 0.1082 -0.0336 0 0 0.1802 -0.0336 0 0 0.2885 -0.0336 0 0 0.1443 -0.0334 0 0 0.2524 -0.0338 0 0 0.1802 -0.0335 0 0 0.2887 -0.0335 0 0 0.2524 -0.0336 0 0 0.1802 -0.0337 0 0 0.2525 -0.235 0 0 -0.0361 -0.1344 0 0 -0.036 -0.0672 0 0 -0.0362 -0.1678 0 0 -0.036 -0.0673 0 0 -0.036 -0.1008 0 0 0.036 -0.1678 0 0 0.036 -0.0672 0 0 0.0362 -0.1343 0 0 0.036 -0.2351 0 0 -0.2524 -0.0335 0 0 -0.1804 -0.0338 0 0 -0.2524 -0.0334 0 0 -0.2884 -0.0336 0 0 -0.1804 -0.0335 0 0 -0.2524 -0.0337 0 0 -0.1443 -0.0336 0 0 -0.2884 -0.0335 0 0 -0.1804 -0.0337 0 0 -0.1082 -0.0336 0 0 -0.1442 -0.0334 0 0 -0.1083 -0.0338 0 0 -0.1081 -0.0335 0 0 -0.1082 -0.0335 0 0 -0.0721 -0.0336 0 0 -0.1081 -0.0337 0 0 -0.0722 -0.0335 0 0 -0.0721 -0.0336 0 0 -0.0722 -0.0337 0 0 -0.072 -0.0335 0 0 -0.0721 -0.0335 0 0 -0.0361 -0.0337 0zm-5.3398 0l0 0 0 0.072 0.0334 0 0 0.0722 0.0338 0 0 0.0721 0.0335 0 0 0.0721 0.0335 0 0 0.0722 0.0337 0 0 0.1083 0.0336 0 0 0.108 0.0335 0 0 0.1082 0.0337 0 0 0.1081 0.0335 0 0 0.1443 0.0336 0 0 0.1444 0.0335 0 0 0.1441 0.0337 0 0 0.2165 0.0335 0 0 0.1082 0.0336 0 0 0.2163 0.0336 0 0 0.1803 0.0336 0 0 0.1803 0.0336 0 0 0.2524 0.0335 0 0 0.2163 0.0337 0 0 2.1998 0.0336 0 0 1.7671 0.0334 0 0 2.0196 0.0338 0 0 3.2093 -0.0338 0 0 2.3081 -0.0334 0 0 1.767 -0.0336 0 0 1.9834 -0.0337 0 0 0.3246 -0.0335 0 0 0.2524 -0.0336 0 0 0.1805 -0.0336 0 0 0.1802 -0.0336 0 0 0.2163 -0.0336 0 0 0.1082 -0.0335 0 0 0.2165 -0.0337 0 0 0.1442 -0.0335 0 0 0.1442 -0.0336 0 0 0.1442 -0.0335 0 0 0.1082 -0.0337 0 0 0.1083 -0.0335 0 0 0.1081 -0.0336 0 0 0.1082 -0.0337 0 0 0.0721 -0.0335 0 0 0.0722 -0.0335 0 0 0.0722 -0.0338 0 0 0.0719 -0.0334 0 0 0.0722 0.0334 0 0 -0.0361 0.0338 0 0 -0.0721 0.0335 0 0 -0.0722 0.0335 0 0 -0.072 0.0337 0 0 -0.0721 0.0336 0 0 -0.1083 0.0335 0 0 -0.0719 0.0337 0 0 -0.0722 0.0335 0 0 -0.1083 0.0336 0 0 -0.1082 0.0335 0 0 -0.1082 0.0337 0 0 -0.1442 0.0335 0 0 -0.1082 0.0336 0 0 -0.1802 0.0336 0 0 -0.2887 0.0336 0 0 -0.1441 0.0336 0 0 -0.2165 0.0335 0 0 -0.2162 0.0337 0 0 -0.2886 0.0336 0 0 -0.2524 0.0334 0 0 -0.1803 0.0338 0 0 -0.2525 0.235 0 0 0.0362 0.1343 0 0 0.036 0.0672 0 0 0.0359 0.168 0 0 0.0363 0.3358 0 0 -0.0363 0.1678 0 0 -0.0359 0.0673 0 0 -0.036 0.1342 0 0 -0.0362 0.2352 0 0 0.2525 0.0336 0 0 0.1803 0.0336 0 0 0.2524 0.0335 0 0 0.2886 0.0335 0 0 0.2162 0.0337 0 0 0.2165 0.0336 0 0 0.1441 0.0335 0 0 0.2887 0.0337 0 0 0.1802 0.0335 0 0 0.1082 0.0336 0 0 0.1442 0.0337 0 0 0.1082 0.0335 0 0 0.1082 0.0335 0 0 0.1083 0.0336 0 0 0.0722 0.0336 0 0 0.0719 0.0336 0 0 0.1083 0.0336 0 0 0.0721 0.0336 0 0 0.072 0.0336 0 0 0.0722 0.0336 0 0 0.0721 0.0336 0 0 0.0361 0.0336 0 0 -0.0722 -0.0336 0 0 -0.0719 -0.0336 0 0 -0.0722 -0.0336 0 0 -0.0722 -0.0336 0 0 -0.0721 -0.0336 0 0 -0.1082 -0.0336 0 0 -0.1081 -0.0336 0 0 -0.1083 -0.0336 0 0 -0.1082 -0.0336 0 0 -0.1442 -0.0335 0 0 -0.1442 -0.0335 0 0 -0.1442 -0.0337 0 0 -0.2165 -0.0336 0 0 -0.1082 -0.0335 0 0 -0.2163 -0.0337 0 0 -0.1802 -0.0335 0 0 -0.1805 -0.0336 0 0 -0.2524 -0.0337 0 0 -0.3966 -0.0335 0 0 -2.0196 -0.0335 0 0 -9.4842 0.0335 0 0 -3.6785 0.0335 0 0 -0.2163 0.0337 0 0 -0.2524 0.0336 0 0 -0.1803 0.0335 0 0 -0.1803 0.0337 0 0 -0.2163 0.0335 0 0 -0.1082 0.0336 0 0 -0.2165 0.0337 0 0 -0.1441 0.0335 0 0 -0.1444 0.0335 0 0 -0.1443 0.0336 0 0 -0.1081 0.0336 0 0 -0.1082 0.0336 0 0 -0.108 0.0336 0 0 -0.1083 0.0336 0 0 -0.0722 0.0336 0 0 -0.0721 0.0336 0 0 -0.0721 0.0336 0 0 -0.0722 0.0336 0 0 -0.072 -0.0336 0 0 0.0361 -0.0336 0 0 0.0721 -0.0336 0 0 0.072 -0.0336 0 0 0.0722 -0.0336 0 0 0.0721 -0.0336 0 0 0.1081 -0.0336 0 0 0.0722 -0.0336 0 0 0.0721 -0.0336 0 0 0.1082 -0.0335 0 0 0.1081 -0.0335 0 0 0.1083 -0.0337 0 0 0.1442 -0.0336 0 0 0.1082 -0.0335 0 0 0.1804 -0.0337 0 0 0.2884 -0.0335 0 0 0.1443 -0.0336 0 0 0.2524 -0.0337 0 0 0.1804 -0.0335 0 0 0.2884 -0.0335 0 0 0.2524 -0.0336 0 0 0.1804 -0.0336 0 0 0.2524 -0.2352 0 0 -0.036 -0.1342 0 0 -0.0362 -0.0673 0 0 -0.036 -0.1678 0 0 -0.036 -0.3358 0 0 0.036 -0.168 0 0 0.036 -0.0672 0 0 0.0362 -0.1343 0 0 0.036 -0.235 0 0 -0.2524 -0.0338 0 0 -0.1804 -0.0334 0 0 -0.2524 -0.0336 0 0 -0.2884 -0.0337 0 0 -0.2165 -0.0335 0 0 -0.2163 -0.0336 0 0 -0.1443 -0.0336 0 0 -0.2884 -0.0336 0 0 -0.1804 -0.0336 0 0 -0.1082 -0.0335 0 0 -0.1442 -0.0337 0 0 -0.1083 -0.0335 0 0 -0.1081 -0.0336 0 0 -0.1082 -0.0335 0 0 -0.0721 -0.0337 0 0 -0.0722 -0.0335 0 0 -0.1081 -0.0336 0 0 -0.0721 -0.0337 0 0 -0.0722 -0.0335 0 0 -0.072 -0.0335 0 0 -0.0721 -0.0338 0 0 -0.0361 -0.0334 0zm-5.0713 0l0 0 0 0.072 0.0336 0 0 0.0722 0.0336 0 0 0.0721 0.0336 0 0 0.0721 0.0335 0 0 0.0722 0.0337 0 0 0.1083 0.0336 0 0 0.108 0.0334 0 0 0.1082 0.0336 0 0 0.1081 0.0337 0 0 0.1443 0.0335 0 0 0.1444 0.0336 0 0 0.1441 0.0337 0 0 0.2165 0.0335 0 0 0.1082 0.0336 0 0 0.2163 0.0337 0 0 0.1803 0.0335 0 0 0.1803 0.0335 0 0 0.2524 0.0336 0 0 0.3246 0.0336 0 0 3.2816 0.0336 0 0 8.2944 -0.0336 0 0 3.6782 -0.0336 0 0 0.2164 -0.0336 0 0 0.2524 -0.0335 0 0 0.1805 -0.0335 0 0 0.1802 -0.0337 0 0 0.2163 -0.0336 0 0 0.1082 -0.0335 0 0 0.2165 -0.0337 0 0 0.1442 -0.0336 0 0 0.1442 -0.0335 0 0 0.1442 -0.0337 0 0 0.1082 -0.0336 0 0 0.1083 -0.0334 0 0 0.1081 -0.0336 0 0 0.1082 -0.0337 0 0 0.0721 -0.0335 0 0 0.0722 -0.0336 0 0 0.0722 -0.0336 0 0 0.0719 -0.0336 0 0 0.0722 0.0336 0 0 -0.0361 0.0336 0 0 -0.0721 0.0336 0 0 -0.0722 0.0335 0 0 -0.072 0.0337 0 0 -0.0721 0.0336 0 0 -0.1083 0.0334 0 0 -0.0719 0.0336 0 0 -0.0722 0.0337 0 0 -0.1083 0.0335 0 0 -0.1082 0.0336 0 0 -0.1082 0.0337 0 0 -0.1442 0.0335 0 0 -0.1082 0.0336 0 0 -0.1802 0.0337 0 0 -0.2887 0.0335 0 0 -0.1441 0.0335 0 0 -0.2165 0.0336 0 0 -0.2162 0.0336 0 0 -0.2886 0.0336 0 0 -0.2524 0.0335 0 0 -0.1803 0.0337 0 0 -0.2525 0.2351 0 0 0.0362 0.1343 0 0 0.036 0.0671 0 0 0.0359 0.2015 0 0 -0.0359 0.168 0 0 -0.036 0.0671 0 0 -0.0362 0.1344 0 0 -0.036 0.2351 0 0 0.2524 0.0336 0 0 0.1804 0.0335 0 0 0.2524 0.0335 0 0 0.2884 0.0338 0 0 0.1804 0.0334 0 0 0.2524 0.0336 0 0 0.1443 0.0337 0 0 0.2884 0.0335 0 0 0.1803 0.0336 0 0 0.1083 0.0337 0 0 0.1442 0.0335 0 0 0.1082 0.0336 0 0 0.1082 0.0337 0 0 0.1082 0.0335 0 0 0.072 0.0335 0 0 0.0722 0.0337 0 0 0.1082 0.0335 0 0 0.0721 0.0336 0 0 0.0722 0.0335 0 0 0.0722 0.0337 0 0 0.0719 0.0336 0 0 0.0361 0.0335 0 0 -0.0721 -0.0335 0 0 -0.0722 -0.0336 0 0 -0.072 -0.0337 0 0 -0.0721 -0.0335 0 0 -0.0721 -0.0336 0 0 -0.1081 -0.0335 0 0 -0.1083 -0.0337 0 0 -0.1082 -0.0335 0 0 -0.1082 -0.0335 0 0 -0.1442 -0.0337 0 0 -0.1443 -0.0336 0 0 -0.1444 -0.0335 0 0 -0.2162 -0.0337 0 0 -0.1081 -0.0336 0 0 -0.2165 -0.0335 0 0 -0.1804 -0.0337 0 0 -0.1802 -0.0336 0 0 -0.2524 -0.0334 0 0 -0.4689 -0.0338 0 0 -3.3178 -0.0335 0 0 -9.5202 0.0335 0 0 -1.9473 0.0338 0 0 -0.4689 0.0334 0 0 -0.2523 0.0336 0 0 -0.1805 0.0337 0 0 -0.1802 0.0335 0 0 -0.2164 0.0336 0 0 -0.1082 0.0337 0 0 -0.2164 0.0335 0 0 -0.1442 0.0336 0 0 -0.1442 0.0337 0 0 -0.1442 0.0335 0 0 -0.1082 0.0335 0 0 -0.1083 0.0337 0 0 -0.1082 0.0335 0 0 -0.1081 0.0336 0 0 -0.0722 0.0335 0 0 -0.0721 0.0337 0 0 -0.0722 0.0336 0 0 -0.072 0.0335 0 0 -0.0721 -0.0335 0 0 0.0359 -0.0336 0 0 0.0722 -0.0337 0 0 0.0721 -0.0335 0 0 0.0721 -0.0336 0 0 0.0722 -0.0335 0 0 0.1083 -0.0337 0 0 0.0719 -0.0335 0 0 0.0722 -0.0335 0 0 0.1083 -0.0337 0 0 0.1082 -0.0336 0 0 0.108 -0.0335 0 0 0.1444 -0.0337 0 0 0.1082 -0.0336 0 0 0.1802 -0.0335 0 0 0.2885 -0.0337 0 0 0.1443 -0.0336 0 0 0.2163 -0.0334 0 0 0.2163 -0.0338 0 0 0.2887 -0.0335 0 0 0.2524 -0.0335 0 0 0.1802 -0.0336 0 0 0.2525 -0.2351 0 0 -0.0361 -0.1344 0 0 -0.036 -0.0671 0 0 -0.0362 -0.168 0 0 -0.036 -0.2015 0 0 0.036 -0.0671 0 0 0.0362 -0.1343 0 0 0.036 -0.2351 0 0 -0.2524 -0.0337 0 0 -0.1804 -0.0335 0 0 -0.2524 -0.0336 0 0 -0.2884 -0.0336 0 0 -0.1804 -0.0336 0 0 -0.2524 -0.0335 0 0 -0.1443 -0.0335 0 0 -0.2884 -0.0337 0 0 -0.1804 -0.0336 0 0 -0.1082 -0.0335 0 0 -0.1442 -0.0337 0 0 -0.1083 -0.0336 0 0 -0.1081 -0.0335 0 0 -0.1082 -0.0337 0 0 -0.0721 -0.0336 0 0 -0.0722 -0.0334 0 0 -0.1081 -0.0336 0 0 -0.0721 -0.0337 0 0 -0.0722 -0.0335 0 0 -0.072 -0.0336 0 0 -0.0721 -0.0336 0 0 -0.0361 -0.0336 0zm10.2768 -0.3968l0 0 0.3358 0 0 0.0362 0.1681 0 0 0.036 0.235 0 0 0.0361 0.2015 0 0 0.0361 0.3022 0 0 0.036 0.2687 0 0 0.036 0.4366 0 0 -0.036 0.2351 0 0 -0.036 0.2014 0 0 -0.0361 0.2352 0 0 -0.0361 0.1679 0 0 -0.036 0.3358 0 0 0.036 -0.0334 0 0 0.0722 -0.0338 0 0 0.036 -0.0335 0 0 0.036 -0.0335 0 0 0.036 -0.0337 0 0 0.0722 -0.0336 0 0 0.0361 -0.0335 0 0 0.0722 -0.0336 0 0 0.0359 -0.0337 0 0 0.0722 -0.0335 0 0 0.0721 -0.0335 0 0 0.0721 -0.0336 0 0 0.1083 -0.0336 0 0 0.0722 -0.0336 0 0 0.0719 -0.0336 0 0 0.1083 -0.0336 0 0 0.1082 -0.0336 0 0 0.1081 -0.0336 0 0 0.1083 -0.0336 0 0 0.1082 -0.0336 0 0 0.1802 -0.0334 0 0 0.2164 -0.0338 0 0 0.2164 -0.0335 0 0 0.1802 -0.0335 0 0 0.2887 -0.0336 0 0 0.2162 -0.0337 0 0 0.2163 -0.0335 0 0 0.2887 -0.0336 0 0 0.2162 -0.2015 0 0 -0.036 -0.1343 0 0 -0.036 -0.1007 0 0 -0.0362 -0.0673 0 0 -0.036 -0.1008 0 0 -0.036 -0.1008 0 0 0.036 -0.1005 0 0 0.036 -0.1345 0 0 0.0362 -0.1008 0 0 0.036 -0.2014 0 0 -0.2163 -0.0337 0 0 -0.2885 -0.0335 0 0 -0.2164 -0.0335 0 0 -0.2164 -0.0338 0 0 -0.2884 -0.0334 0 0 -0.1804 -0.0336 0 0 -0.2163 -0.0335 0 0 -0.2165 -0.0337 0 0 -0.1803 -0.0336 0 0 -0.1082 -0.0335 0 0 -0.108 -0.0337 0 0 -0.1082 -0.0336 0 0 -0.1083 -0.0334 0 0 -0.1082 -0.0338 0 0 -0.0722 -0.0335 0 0 -0.072 -0.0335 0 0 -0.1082 -0.0336 0 0 -0.0722 -0.0337 0 0 -0.072 -0.0335 0 0 -0.0721 -0.0336 0 0 -0.0361 -0.0337 0 0 -0.0722 -0.0335 0 0 -0.036 -0.0335 0 0 -0.0722 -0.0337 0 0 -0.036 -0.0335 0 0 -0.036 -0.0336 0 0 -0.0361 -0.0335 0 0 -0.0721 -0.0337 0 0 -0.0362zm-5.3399 0l0 0 0.3359 0 0 0.0362 0.1678 0 0 0.036 0.2351 0 0 0.0361 0.168 0 0 0.0361 0.1679 0 0 0.036 0.5373 0 0 0.036 0.2016 0 0 -0.036 0.3023 0 0 -0.036 0.235 0 0 -0.0361 0.2014 0 0 -0.0361 0.2353 0 0 -0.036 0.1678 0 0 -0.0362 0.3358 0 0 0.0362 -0.0335 0 0 0.0721 -0.0335 0 0 0.0361 -0.0337 0 0 0.036 -0.0335 0 0 0.036 -0.0336 0 0 0.0722 -0.0336 0 0 0.036 -0.0336 0 0 0.0722 -0.0336 0 0 0.0361 -0.0336 0 0 0.0721 -0.0336 0 0 0.072 -0.0336 0 0 0.0722 -0.0336 0 0 0.1082 -0.0336 0 0 0.072 -0.0335 0 0 0.0722 -0.0335 0 0 0.1082 -0.0337 0 0 0.1083 -0.0336 0 0 0.1082 -0.0335 0 0 0.108 -0.0337 0 0 0.1082 -0.0335 0 0 0.1803 -0.0336 0 0 0.2165 -0.0337 0 0 0.2163 -0.0335 0 0 0.1804 -0.0335 0 0 0.2884 -0.0336 0 0 0.2164 -0.0336 0 0 0.2164 -0.0336 0 0 0.2885 -0.0336 0 0 0.2163 -0.2015 0 0 -0.036 -0.1343 0 0 -0.0362 -0.0672 0 0 -0.036 -0.1343 0 0 -0.036 -0.3358 0 0 0.036 -0.1344 0 0 0.036 -0.1008 0 0 0.0362 -0.1007 0 0 0.036 -0.2016 0 0 -0.2163 -0.0335 0 0 -0.2885 -0.0335 0 0 -0.2164 -0.0338 0 0 -0.2164 -0.0334 0 0 -0.2884 -0.0336 0 0 -0.1804 -0.0337 0 0 -0.2163 -0.0335 0 0 -0.2165 -0.0336 0 0 -0.1803 -0.0336 0 0 -0.1082 -0.0336 0 0 -0.108 -0.0336 0 0 -0.1082 -0.0335 0 0 -0.1083 -0.0337 0 0 -0.1082 -0.0335 0 0 -0.0722 -0.0336 0 0 -0.072 -0.0335 0 0 -0.1082 -0.0337 0 0 -0.0722 -0.0335 0 0 -0.072 -0.0336 0 0 -0.0721 -0.0337 0 0 -0.0361 -0.0335 0 0 -0.0722 -0.0335 0 0 -0.036 -0.0338 0 0 -0.0722 -0.0334 0 0 -0.036 -0.0336 0 0 -0.036 -0.0336 0 0 -0.0361 -0.0336 0 0 -0.0721 -0.0336 0 0 -0.0362zm-3.392 0.1083l0 0 0 0.0361 -0.1007 0 0 0.036 0.5036 0 0 -0.036 0.1681 0 0 -0.0361 0.235 0 0 -0.0361 0.168 0 0 -0.036 0.3357 0 0 0.036 -0.0336 0 0 0.0722 -0.0334 0 0 0.036 -0.0338 0 0 0.036 -0.0335 0 0 0.036 -0.0335 0 0 0.0722 -0.0336 0 0 0.0361 -0.0337 0 0 0.0722 -0.0335 0 0 0.0359 -0.0336 0 0 0.0722 -0.0335 0 0 0.0721 -0.0337 0 0 0.0721 -0.0335 0 0 0.1083 -0.0335 0 0 0.0722 -0.0337 0 0 0.0719 -0.0336 0 0 0.1083 -0.0335 0 0 0.1082 -0.0337 0 0 0.1081 -0.0336 0 0 0.1083 -0.0335 0 0 0.1082 -0.0337 0 0 0.1802 -0.0336 0 0 0.2164 -0.0334 0 0 0.2164 -0.0338 0 0 0.1802 -0.0335 0 0 0.2887 -0.0335 0 0 0.2162 -0.0336 0 0 0.2163 -0.0337 0 0 0.2887 -0.0335 0 0 0.2162 -0.2015 0 0 -0.036 -0.1008 0 0 -0.036 -0.1006 0 0 -0.0362 -0.1345 0 0 -0.036 -0.1678 0 0 0.036 -0.0672 0 0 0.0362 -0.1344 0 0 0.036 -0.2015 0 0 -0.2163 -0.0335 0 0 -0.2885 -0.0336 0 0 -0.2164 -0.0337 0 0 -0.2164 -0.0335 0 0 -0.2884 -0.0336 0 0 -0.1804 -0.0336 0 0 -0.2163 -0.0336 0 0 -0.2165 -0.0335 0 0 -0.1803 -0.0335 0 0 -0.1082 -0.0337 0 0 -0.108 -0.0336 0 0 -0.1082 -0.0335 0 0 -0.1083 -0.0337 0 0 -0.1082 -0.0336 0 0 -0.0722 -0.0335 0 0 -0.072 -0.0337 0 0 -0.1082 -0.0336 0 0 -0.0722 -0.0334 0 0 -0.072 -0.0336 0 0 -0.0721 -0.0337 0 0 -0.0361 -0.0335 0 0 -0.0722 -0.0336 0 0 -0.036 -0.0336 0 0 -0.0722 -0.0336 0 0 -0.036 -0.0336 0 0 -0.036 -0.0336 0 0 -0.0361 -0.0336 0 0 -0.0721 -0.0335 0 0 -0.0362 0.3359 0 0 0.0362 0.1678 0 0 0.036 0.2351 0 0 0.0361 0.168 0 0 0.0361 0.2686 0 0 -0.0361 0.0337 0 0 -0.0361 -0.1008 0 0 -0.036 -0.2688 0 0 -0.0362 -0.235 0 0 -0.036 -0.1679 0 0 -0.036 -0.168 0 0 -0.0362 -0.3358 0 0 0.1804 0.0337 0 0 0.0722 0.0335 0 0 0.036 0.0335 0 0 0.072 -0.0335 0 0 -0.036 -0.0335 0 0 -0.036 -0.0337 0 0 -0.0721 -0.0336 0 0 -0.0361 -0.0335 0 0 -0.036 -0.0337 0 0 -0.0722 -0.0336 0 0 -0.036 -0.0335 0 0 -0.0362 -0.0337 0 0 -0.036 -0.067 0 0 -0.036 -0.0336 0 0 -0.036 -0.0672 0 0 -0.0362 -0.1008 0 0 -0.036 -0.1678 0 0 -0.036 -0.7725 0 0 0.036 -0.168 0 0 0.036 -0.0671 0 0 0.0362 -0.0672 0 0 0.036 -0.0672 0 0 0.036 -0.0336 0 0 0.036 -0.0336 0 0 0.0362 -0.0336 0 0 0.036 -0.0336 0 0 0.036 -0.0335 0 0 0.0362 -0.0335 0 0 0.036 -0.0337 0 0 0.0361 -0.0335 0 0 0.0361 -0.0336 0 0 0.072 -0.0336 0 0 0.036 -0.0336 0 0 0.0722 -0.0336 0 0 0.0361 -0.0335 0 0 0.0722 -0.0337 0 0 0.0721 -0.0335 0 0 0.072 -0.0336 0 0 0.0722 -0.0336 0 0 0.1082 -0.0336 0 0 0.072 -0.0336 0 0 0.1082 -0.0336 0 0 0.0722 -0.0336 0 0 0.1083 -0.0336 0 0 0.1082 -0.0336 0 0 0.108 -0.0336 0 0 0.1804 -0.0334 0 0 0.2524 -0.0336 0 0 0.1804 -0.0337 0 0 0.3607 -0.0335 0 0 0.2524 -0.0336 0 0 0.7572 -0.0337 0 0 1.8391 -0.0335 0 0 1.7672 -0.0336 0 0 1.3703 -0.0337 0 0 3.7143 0.0337 0 0 2.885 0.0336 0 0 1.2981 0.0335 0 0 1.8393 0.0337 0 0 0.7573 0.0336 0 0 0.2524 0.0335 0 0 0.3606 0.0337 0 0 0.2165 0.0336 0 0 0.2163 0.0334 0 0 0.1803 0.0336 0 0 0.1082 0.0336 0 0 0.1082 0.0336 0 0 0.1082 0.0336 0 0 0.072 0.0336 0 0 0.1082 0.0336 0 0 0.0722 0.0336 0 0 0.1082 0.0336 0 0 0.072 0.0336 0 0 0.0722 0.0335 0 0 0.0721 0.0337 0 0 0.0722 0.0335 0 0 0.036 0.0336 0 0 0.0722 0.0336 0 0 0.0359 0.0336 0 0 0.0722 0.0336 0 0 0.0361 0.0335 0 0 0.036 0.0337 0 0 0.0362 0.0335 0 0 0.036 0.0335 0 0 0.036 0.0336 0 0 0.0362 0.0336 0 0 0.036 0.0336 0 0 0.036 0.0336 0 0 0.0361 0.0672 0 0 0.0361 0.0672 0 0 0.036 0.0671 0 0 0.036 0.168 0 0 0.0362 0.7725 0 0 -0.0362 0.1678 0 0 -0.036 0.1008 0 0 -0.036 0.0672 0 0 -0.0361 0.0336 0 0 -0.0361 0.067 0 0 -0.036 0.0337 0 0 -0.036 0.0335 0 0 -0.0362 0.0336 0 0 -0.072 0.0337 0 0 -0.0362 0.0335 0 0 -0.036 0.0336 0 0 -0.072 0.0337 0 0 -0.0363 0.0335 0 0 -0.0359 0.0335 0 0 0.0722 -0.0335 0 0 0.0359 -0.0335 0 0 0.0721 -0.0337 0 0 0.1804 0.3358 0 0 -0.036 0.168 0 0 -0.0362 0.1679 0 0 -0.036 0.235 0 0 -0.036 0.2688 0 0 -0.0362 0.3358 0 0 -0.036 0.4366 0 0 0.036 0.2687 0 0 0.0362 0.235 0 0 0.036 0.1681 0 0 0.036 0.1678 0 0 0.0362 0.3358 0 0 -0.1804 -0.0335 0 0 -0.072 -0.0337 0 0 -0.0363 -0.0336 0 0 -0.0719 0.0336 0 0 0.036 0.0337 0 0 0.0359 0.0335 0 0 0.0722 0.0336 0 0 0.0361 0.0337 0 0 0.036 0.0335 0 0 0.0722 0.0336 0 0 0.036 0.0334 0 0 0.0362 0.0338 0 0 0.036 0.067 0 0 0.036 0.0337 0 0 0.0361 0.0671 0 0 0.0361 0.2687 0 0 0.036 0.3359 0 0 0.036 0.5038 0 0 -0.036 0.1007 0 0 -0.036 0.0672 0 0 -0.0361 0.0336 0 0 -0.0361 0.0672 0 0 -0.036 0.0336 0 0 -0.036 0.0335 0 0 -0.0362 0.0335 0 0 -0.072 0.0337 0 0 -0.0362 0.0335 0 0 -0.036 0.0336 0 0 -0.072 0.0336 0 0 -0.0363 0.0336 0 0 -0.0359 0.0336 0 0 0.0722 -0.0336 0 0 0.0359 -0.0336 0 0 0.0721 -0.0336 0 0 0.1804 0.3358 0 0 -0.036 0.168 0 0 -0.0362 0.1679 0 0 -0.036 0.235 0 0 -0.036 0.2688 0 0 -0.0362 1.0746 0 0 0.0362 0.2688 0 0 0.036 0.2351 0 0 0.036 0.1678 0 0 0.0362 0.168 0 0 0.036 0.3359 0 0 -0.1804 -0.0337 0 0 -0.0721 -0.0336 0 0 -0.0359 -0.0335 0 0 -0.0722 0.0335 0 0 0.0359 0.0336 0 0 0.0363 0.0337 0 0 0.072 0.0335 0 0 0.036 0.0336 0 0 0.0362 0.0335 0 0 0.072 0.0337 0 0 0.0362 0.0335 0 0 0.036 0.0336 0 0 0.036 0.0672 0 0 0.0361 0.0336 0 0 0.0361 0.0672 0 0 0.036 0.1008 0 0 0.036 0.1678 0 0 0.0362 0.6381 0 0 -0.0362 0.1679 0 0 -0.036 0.1008 0 0 -0.036 0.0672 0 0 -0.0361 0.0335 0 0 -0.0361 0.0673 0 0 -0.036 0.0335 0 0 -0.036 0.0337 0 0 -0.0362 0.0336 0 0 -0.072 0.0334 0 0 -0.0362 0.0336 0 0 -0.036 0.0337 0 0 -0.072 0.0335 0 0 -0.0363 0.0336 0 0 -0.0359 0.0337 0 0 0.0722 -0.0337 0 0 0.0359 -0.0336 0 0 0.0721 -0.0335 0 0 0.1804 0.3358 0 0 -0.036 0.1679 0 0 -0.0362 0.168 0 0 -0.036 0.2351 0 0 -0.036 0.2686 0 0 -0.0362 0.4701 0 0 -0.036 0.4367 0 0 0.036 0.2687 0 0 0.0362 0.235 0 0 0.036 0.168 0 0 0.036 0.1679 0 0 0.0362 0.3358 0 0 -0.1804 -0.0336 0 0 -0.072 -0.0336 0 0 -0.0363 -0.0334 0 0 -0.0719 0.0334 0 0 0.036 0.0336 0 0 0.0359 0.0336 0 0 0.0722 0.0336 0 0 0.0361 0.0336 0 0 0.036 0.0335 0 0 0.0722 0.0337 0 0 0.036 0.0336 0 0 0.0362 0.0334 0 0 0.036 0.0673 0 0 0.036 0.0335 0 0 0.0361 0.0673 0 0 0.0361 0.1008 0 0 0.036 0.1678 0 0 0.036 0.7725 0 0 -0.036 0.168 0 0 -0.036 0.067 0 0 -0.0361 0.0672 0 0 -0.0361 0.0672 0 0 -0.036 0.0336 0 0 -0.036 0.0336 0 0 -0.0362 0.0335 0 0 -0.036 0.0337 0 0 -0.036 0.0335 0 0 -0.0362 0.0336 0 0 -0.036 0.0336 0 0 -0.0361 0.0336 0 0 -0.0359 0.0336 0 0 -0.0722 0.0335 0 0 -0.036 0.0337 0 0 -0.0722 0.0336 0 0 -0.0361 0.0334 0 0 -0.0722 0.0338 0 0 -0.0719 0.0334 0 0 -0.0722 0.0336 0 0 -0.0722 0.0337 0 0 -0.1081 0.0335 0 0 -0.0722 0.0336 0 0 -0.1081 0.0337 0 0 -0.0722 0.0335 0 0 -0.1082 0.0336 0 0 -0.1081 0.0335 0 0 -0.1082 0.0337 0 0 -0.1804 0.0335 0 0 -0.2164 0.0336 0 0 -0.2162 0.0336 0 0 -0.3606 0.0336 0 0 -0.3607 0.0336 0 0 -0.6492 0.0335 0 0 -1.731 0.0337 0 0 -2.0555 0.0335 0 0 -2.0196 0.0335 0 0 -3.5699 -0.0335 0 0 -1.659 -0.0335 0 0 -1.7671 -0.0337 0 0 -1.8391 -0.0335 0 0 -0.6491 -0.0336 0 0 -0.3606 -0.0336 0 0 -0.3606 -0.0336 0 0 -0.1803 -0.0336 0 0 -0.2525 -0.0335 0 0 -0.1802 -0.0337 0 0 -0.1083 -0.0335 0 0 -0.1081 -0.0336 0 0 -0.1082 -0.0335 0 0 -0.0722 -0.0337 0 0 -0.108 -0.0336 0 0 -0.0722 -0.0335 0 0 -0.1083 -0.0337 0 0 -0.0721 -0.0336 0 0 -0.0721 -0.0334 0 0 -0.0722 -0.0338 0 0 -0.072 -0.0334 0 0 -0.0361 -0.0336 0 0 -0.0721 -0.0337 0 0 -0.0362 -0.0335 0 0 -0.072 -0.0336 0 0 -0.036 -0.0336 0 0 -0.0361 -0.0336 0 0 -0.0361 -0.0336 0 0 -0.036 -0.0335 0 0 -0.0362 -0.0337 0 0 -0.036 -0.0335 0 0 -0.036 -0.0336 0 0 -0.0362 -0.0336 0 0 -0.036 -0.0672 0 0 -0.036 -0.0672 0 0 -0.036 -0.067 0 0 -0.0362 -0.168 0 0 -0.036 -0.7725 0 0 0.036 -0.1678 0 0 0.0362 -0.1008 0 0 0.036 -0.0673 0 0 0.036 -0.0335 0 0 0.036 -0.0673 0 0 0.0362 -0.0334 0 0 0.036 -0.0336 0 0 0.036 -0.0337 0 0 0.0722 -0.0335 0 0 0.0361 -0.0336 0 0 0.0361 -0.0336 0 0 0.072 -0.0336 0 0 0.036 -0.0336 0 0 0.0362 -0.0334 0 0 -0.0722 0.0334 0 0 -0.036 0.0336 0 0 -0.0721 0.0336 0 0 -0.1803 -0.3358 0 0 0.036 -0.1679 0 0 0.036 -0.168 0 0 0.0362 -0.235 0 0 0.036 -0.2687 0 0 0.0361 -0.4367 0 0 -0.0361 -0.4701 0 0 -0.036 -0.2686 0 0 -0.0362 -0.2351 0 0 -0.036 -0.168 0 0 -0.036 -0.1679 0 0 -0.0362 -0.3358 0 0 0.1804 0.0335 0 0 0.0722 0.0336 0 0 0.036 0.0337 0 0 0.072 -0.0337 0 0 -0.036 -0.0336 0 0 -0.036 -0.0335 0 0 -0.0721 -0.0337 0 0 -0.0361 -0.0336 0 0 -0.036 -0.0334 0 0 -0.0722 -0.0336 0 0 -0.036 -0.0337 0 0 -0.0362 -0.0335 0 0 -0.036 -0.0673 0 0 -0.036 -0.0335 0 0 -0.036 -0.0672 0 0 -0.0362 -0.1008 0 0 -0.036 -0.1679 0 0 -0.036 -0.6381 0 0 0.036 -0.1678 0 0 0.036 -0.1008 0 0 0.0362 -0.0672 0 0 0.036 -0.0336 0 0 0.036 -0.0672 0 0 0.036 -0.0336 0 0 0.0362 -0.0335 0 0 0.036 -0.0337 0 0 0.0722 -0.0335 0 0 0.036 -0.0336 0 0 0.0361 -0.0335 0 0 0.0721 -0.0337 0 0 0.036 -0.0336 0 0 0.036 -0.0335 0 0 -0.072 0.0335 0 0 -0.036 0.0336 0 0 -0.0722 0.0337 0 0 -0.1804 -0.3359 0 0 0.0362 -0.168 0 0 0.036 -0.1678 0 0 0.036 -0.2351 0 0 0.0362 -0.2688 0 0 0.036 -1.1754 0 0 -0.036 -0.168 0 0 -0.0362 -0.235 0 0 -0.036 -0.1679 0 0 -0.036 -0.168 0 0 -0.0362 -0.3358 0 0 0.1804 0.0336 0 0 0.0722 0.0336 0 0 0.036 0.0336 0 0 0.072 -0.0336 0 0 -0.036 -0.0336 0 0 -0.036 -0.0336 0 0 -0.0721 -0.0336 0 0 -0.0361 -0.0335 0 0 -0.036 -0.0337 0 0 -0.0722 -0.0335 0 0 -0.036 -0.0335 0 0 -0.0362 -0.0336 0 0 -0.036 -0.0672 0 0 -0.036 -0.0336 0 0 -0.036 -0.0672 0 0 -0.0362 -0.1007 0 0 -0.036 -0.168 0 0 -0.036 -0.235 0 0 0.036 -0.4367 0 0 0.036 -0.1679 0 0 0.0362 -0.1008 0 0 0.036 -0.0671 0 0 0.036 -0.0337 0 0 0.036 -0.067 0 0 0.0362 -0.0338 0 0 0.036 -0.0334 0 0 0.036 -0.0336 0 0 0.0722 -0.0335 0 0 0.0361 -0.0337 0 0 0.0361 -0.0336 0 0 0.072 -0.0335 0 0 0.036 -0.0337 0 0 0.0362 -0.0336 0 0 -0.0722 0.0336 0 0 -0.036 0.0337 0 0 -0.0721 0.0335 0 0 -0.1803 -0.3358 0 0 0.036 -0.1678 0 0 0.036 -0.1681 0 0 0.0362 -0.235 0 0 0.036 -0.2687 0 0 0.0361 -0.2015 0z"/>
     <polygon id="_58123328" class="fil1" points="11.7438,19.9601 11.7103,19.9601 11.7103,20.2486 11.6768,20.2486 11.6768,20.4649 11.643,20.4649 11.643,20.6813 11.6096,20.6813 11.6096,20.9699 11.576,20.9699 11.576,21.1502 11.5423,21.1502 11.5423,21.3665 11.5088,21.3665 11.5088,21.583 11.4752,21.583 11.4752,21.7632 11.4416,21.7632 11.4416,21.8714 11.408,21.8714 11.408,21.9796 11.3744,21.9796 11.3744,22.0878 11.3409,22.0878 11.3409,22.196 11.3072,22.196 11.3072,22.3043 11.2737,22.3043 11.2737,22.3762 11.2401,22.3762 11.2401,22.4484 11.2066,22.4484 11.2066,22.5566 11.1729,22.5566 11.1729,22.6286 11.1394,22.6286 11.1394,22.7008 11.1058,22.7008 11.1058,22.7729 11.0721,22.7729 11.0721,22.809 11.0386,22.809 11.0386,22.8811 11.0051,22.8811 11.0051,22.9173 10.9713,22.9173 10.9713,22.9892 10.9379,22.9892 10.9379,23.0255 10.9043,23.0255 10.9043,23.0614 10.8707,23.0614 10.8707,23.0975 10.8371,23.0975 10.8371,23.1697 10.8035,23.1697 10.8035,23.2057 11.1394,23.2057 11.1394,23.1697 11.3072,23.1697 11.3072,23.1335 11.5423,23.1335 11.5423,23.0975 11.7103,23.0975 11.7103,23.0614 11.9789,23.0614 11.9789,23.0255 12.8522,23.0255 12.8522,23.0614 13.1544,23.0614 13.1544,23.0975 13.3558,23.0975 13.3558,23.1335 13.5911,23.1335 13.5911,23.1697 13.7589,23.1697 13.7589,23.2057 14.0947,23.2057 14.0947,23.1697 14.0612,23.1697 14.0612,23.0975 14.0277,23.0975 14.0277,23.0614 13.994,23.0614 13.994,23.0255 13.9605,23.0255 13.9605,22.9892 13.9269,22.9892 13.9269,22.9173 13.8933,22.9173 13.8933,22.8811 13.8597,22.8811 13.8597,22.809 13.8261,22.809 13.8261,22.7729 13.7925,22.7729 13.7925,22.7008 13.7589,22.7008 13.7589,22.6286 13.7253,22.6286 13.7253,22.5566 13.6917,22.5566 13.6917,22.4484 13.6581,22.4484 13.6581,22.3762 13.6246,22.3762 13.6246,22.3043 13.5911,22.3043 13.5911,22.196 13.5574,22.196 13.5574,22.0878 13.5238,22.0878 13.5238,21.9796 13.4903,21.9796 13.4903,21.8714 13.4566,21.8714 13.4566,21.7632 13.4231,21.7632 13.4231,21.583 13.3895,21.583 13.3895,21.3665 13.3558,21.3665 13.3558,21.1502 13.3223,21.1502 13.3223,20.9699 13.2888,20.9699 13.2888,20.6813 13.2552,20.6813 13.2552,20.4649 13.2216,20.4649 13.2216,20.2486 13.188,20.2486 13.188,19.9601 13.1544,19.9601 13.1544,19.7436 12.9529,19.7436 12.9529,19.7799 12.8186,19.7799 12.8186,19.8158 12.7514,19.8158 12.7514,19.8519 12.6171,19.8519 12.6171,19.888 12.2813,19.888 12.2813,19.8519 12.1469,19.8519 12.1469,19.8158 12.0461,19.8158 12.0461,19.7799 11.9454,19.7799 11.9454,19.7436 11.7438,19.7436 "/>
     <polygon id="_58194912" class="fil1" points="10.8035,1.8931 10.8371,1.8931 10.8371,1.9652 10.8707,1.9652 10.8707,2.0013 10.9043,2.0013 10.9043,2.0373 10.9379,2.0373 10.9379,2.0733 10.9713,2.0733 10.9713,2.1455 11.0051,2.1455 11.0051,2.1815 11.0386,2.1815 11.0386,2.2537 11.0721,2.2537 11.0721,2.2898 11.1058,2.2898 11.1058,2.3619 11.1394,2.3619 11.1394,2.4339 11.1729,2.4339 11.1729,2.5061 11.2066,2.5061 11.2066,2.6143 11.2401,2.6143 11.2401,2.6863 11.2737,2.6863 11.2737,2.7585 11.3072,2.7585 11.3072,2.8667 11.3409,2.8667 11.3409,2.975 11.3744,2.975 11.3744,3.0832 11.408,3.0832 11.408,3.1912 11.4416,3.1912 11.4416,3.2994 11.4752,3.2994 11.4752,3.4797 11.5088,3.4797 11.5088,3.6962 11.5423,3.6962 11.5423,3.9125 11.576,3.9125 11.576,4.0929 11.6096,4.0929 11.6096,4.3813 11.643,4.3813 11.643,4.5977 11.6768,4.5977 11.6768,4.8141 11.7103,4.8141 11.7103,5.1026 11.7438,5.1026 11.7438,5.3189 11.9454,5.3189 11.9454,5.2829 12.0461,5.2829 12.0461,5.2467 12.1469,5.2467 12.1469,5.2107 12.2813,5.2107 12.2813,5.1747 12.6171,5.1747 12.6171,5.2107 12.7514,5.2107 12.7514,5.2467 12.8186,5.2467 12.8186,5.2829 12.9529,5.2829 12.9529,5.3189 13.1544,5.3189 13.1544,5.1026 13.188,5.1026 13.188,4.8141 13.2216,4.8141 13.2216,4.5977 13.2552,4.5977 13.2552,4.3813 13.2888,4.3813 13.2888,4.0929 13.3223,4.0929 13.3223,3.9125 13.3558,3.9125 13.3558,3.6962 13.3895,3.6962 13.3895,3.4797 13.4231,3.4797 13.4231,3.2994 13.4566,3.2994 13.4566,3.1912 13.4903,3.1912 13.4903,3.0832 13.5238,3.0832 13.5238,2.975 13.5574,2.975 13.5574,2.8667 13.5911,2.8667 13.5911,2.7585 13.6246,2.7585 13.6246,2.6863 13.6581,2.6863 13.6581,2.6143 13.6917,2.6143 13.6917,2.5061 13.7253,2.5061 13.7253,2.4339 13.7589,2.4339 13.7589,2.3619 13.7925,2.3619 13.7925,2.2898 13.8261,2.2898 13.8261,2.2537 13.8597,2.2537 13.8597,2.1815 13.8933,2.1815 13.8933,2.1455 13.9269,2.1455 13.9269,2.0733 13.9605,2.0733 13.9605,2.0373 13.994,2.0373 13.994,2.0013 14.0277,2.0013 14.0277,1.9652 14.0612,1.9652 14.0612,1.8931 14.0947,1.8931 14.0947,1.8569 13.7589,1.8569 13.7589,1.8931 13.5911,1.8931 13.5911,1.9291 13.3558,1.9291 13.3558,1.9652 13.1544,1.9652 13.1544,2.0013 12.9194,2.0013 12.9194,2.0373 12.6171,2.0373 12.6171,2.0733 12.4155,2.0733 12.4155,2.0373 11.8782,2.0373 11.8782,2.0013 11.7103,2.0013 11.7103,1.9652 11.5423,1.9652 11.5423,1.9291 11.3072,1.9291 11.3072,1.8931 11.1394,1.8931 11.1394,1.8569 10.8035,1.8569 "/>
     <polygon id="_58193688" class="fil1" points="18.1249,19.7436 18.0241,19.7436 18.0241,19.7799 17.9233,19.7799 17.9233,19.8158 17.7891,19.8158 17.7891,19.8519 17.7218,19.8519 17.7218,19.888 17.621,19.888 17.621,19.8519 17.4868,19.8519 17.4868,19.8158 17.4197,19.8158 17.4197,19.7799 17.2852,19.7799 17.2852,19.7436 17.0838,19.7436 17.0838,19.9601 17.0501,19.9601 17.0501,20.2486 17.0166,20.2486 17.0166,20.4649 16.9831,20.4649 16.9831,20.6813 16.9493,20.6813 16.9493,20.9699 16.9159,20.9699 16.9159,21.1502 16.8823,21.1502 16.8823,21.3665 16.8488,21.3665 16.8488,21.583 16.8151,21.583 16.8151,21.7632 16.7815,21.7632 16.7815,21.8714 16.748,21.8714 16.748,21.9796 16.7143,21.9796 16.7143,22.0878 16.6807,22.0878 16.6807,22.196 16.6473,22.196 16.6473,22.3043 16.6135,22.3043 16.6135,22.3762 16.58,22.3762 16.58,22.4484 16.5465,22.4484 16.5465,22.5566 16.5129,22.5566 16.5129,22.6286 16.4792,22.6286 16.4792,22.7008 16.4457,22.7008 16.4457,22.7729 16.4121,22.7729 16.4121,22.809 16.3784,22.809 16.3784,22.8811 16.3449,22.8811 16.3449,22.9173 16.3114,22.9173 16.3114,22.9892 16.2777,22.9892 16.2777,23.0255 16.2442,23.0255 16.2442,23.0614 16.2106,23.0614 16.2106,23.0975 16.1771,23.0975 16.1771,23.1697 16.1434,23.1697 16.1434,23.2057 16.4792,23.2057 16.4792,23.1697 16.6473,23.1697 16.6473,23.1335 16.8823,23.1335 16.8823,23.0975 17.0838,23.0975 17.0838,23.0614 17.386,23.0614 17.386,23.0255 17.7218,23.0255 17.7218,22.9892 18.0241,22.9892 18.0241,23.0255 18.36,23.0255 18.36,23.0614 18.5278,23.0614 18.5278,23.0975 18.763,23.0975 18.763,23.1335 18.9309,23.1335 18.9309,23.1697 19.2667,23.1697 19.2667,23.1335 19.2333,23.1335 19.2333,23.0614 19.1995,23.0614 19.1995,23.0255 19.166,23.0255 19.166,22.9892 19.1325,22.9892 19.1325,22.9533 19.0988,22.9533 19.0988,22.8811 19.0652,22.8811 19.0652,22.8451 19.0317,22.8451 19.0317,22.7729 18.9981,22.7729 18.9981,22.7368 18.9644,22.7368 18.9644,22.6649 18.9309,22.6649 18.9309,22.5927 18.8974,22.5927 18.8974,22.5205 18.8638,22.5205 18.8638,22.4124 18.8302,22.4124 18.8302,22.3402 18.7966,22.3402 18.7966,22.268 18.763,22.268 18.763,22.1599 18.7294,22.1599 18.7294,22.0517 18.6958,22.0517 18.6958,21.9436 18.6622,21.9436 18.6622,21.8354 18.6286,21.8354 18.6286,21.7272 18.595,21.7272 18.595,21.5467 18.5616,21.5467 18.5616,21.3305 18.5278,21.3305 18.5278,21.1142 18.4943,21.1142 18.4943,20.9337 18.4608,20.9337 18.4608,20.6453 18.4272,20.6453 18.4272,20.4289 18.3935,20.4289 18.3935,20.2125 18.36,20.2125 18.36,19.924 18.3264,19.924 18.3264,19.7077 18.1249,19.7077 "/>
     <polygon id="_58194360" class="fil1" points="16.1434,1.8931 16.1771,1.8931 16.1771,1.9652 16.2106,1.9652 16.2106,2.0013 16.2442,2.0013 16.2442,2.0373 16.2777,2.0373 16.2777,2.0733 16.3114,2.0733 16.3114,2.1455 16.3449,2.1455 16.3449,2.1815 16.3784,2.1815 16.3784,2.2537 16.4121,2.2537 16.4121,2.2898 16.4457,2.2898 16.4457,2.3619 16.4792,2.3619 16.4792,2.4339 16.5129,2.4339 16.5129,2.5061 16.5465,2.5061 16.5465,2.6143 16.58,2.6143 16.58,2.6863 16.6135,2.6863 16.6135,2.7585 16.6473,2.7585 16.6473,2.8667 16.6807,2.8667 16.6807,2.975 16.7143,2.975 16.7143,3.0832 16.748,3.0832 16.748,3.1912 16.7815,3.1912 16.7815,3.2994 16.8151,3.2994 16.8151,3.4797 16.8488,3.4797 16.8488,3.6962 16.8823,3.6962 16.8823,3.9125 16.9159,3.9125 16.9159,4.0929 16.9493,4.0929 16.9493,4.3813 16.9831,4.3813 16.9831,4.5977 17.0166,4.5977 17.0166,4.8141 17.0501,4.8141 17.0501,5.1026 17.0838,5.1026 17.0838,5.3189 17.2852,5.3189 17.2852,5.2829 17.386,5.2829 17.386,5.2467 17.5205,5.2467 17.5205,5.2107 17.621,5.2107 17.621,5.1747 17.7218,5.1747 17.7218,5.2107 17.8226,5.2107 17.8226,5.2467 17.8899,5.2467 17.8899,5.2829 17.9906,5.2829 17.9906,5.3189 18.1249,5.3189 18.1249,5.3549 18.3264,5.3549 18.3264,5.1387 18.36,5.1387 18.36,4.85 18.3935,4.85 18.3935,4.6337 18.4272,4.6337 18.4272,4.4175 18.4608,4.4175 18.4608,4.1288 18.4943,4.1288 18.4943,3.9486 18.5278,3.9486 18.5278,3.7322 18.5616,3.7322 18.5616,3.5158 18.595,3.5158 18.595,3.3356 18.6286,3.3356 18.6286,3.2274 18.6622,3.2274 18.6622,3.1191 18.6958,3.1191 18.6958,3.011 18.7294,3.011 18.7294,2.9028 18.763,2.9028 18.763,2.7945 18.7966,2.7945 18.7966,2.7226 18.8302,2.7226 18.8302,2.6504 18.8638,2.6504 18.8638,2.5421 18.8974,2.5421 18.8974,2.47 18.9309,2.47 18.9309,2.3979 18.9644,2.3979 18.9644,2.3257 18.9981,2.3257 18.9981,2.2898 19.0317,2.2898 19.0317,2.2176 19.0652,2.2176 19.0652,2.1815 19.0988,2.1815 19.0988,2.1093 19.1325,2.1093 19.1325,2.0733 19.166,2.0733 19.166,2.0373 19.1995,2.0373 19.1995,2.0013 19.2333,2.0013 19.2333,1.9291 19.2667,1.9291 19.2667,1.8931 18.9309,1.8931 18.9309,1.9291 18.763,1.9291 18.763,1.9652 18.5278,1.9652 18.5278,2.0013 18.3264,2.0013 18.3264,2.0373 18.0913,2.0373 18.0913,2.0733 17.6547,2.0733 17.6547,2.0373 17.386,2.0373 17.386,2.0013 17.0838,2.0013 17.0838,1.9652 16.8823,1.9652 16.8823,1.9291 16.6473,1.9291 16.6473,1.8931 16.4792,1.8931 16.4792,1.8569 16.1434,1.8569 "/>
     <polygon id="_58072416" class="fil1" points="7.5794,19.7436 7.4786,19.7436 7.4786,19.7799 7.378,19.7799 7.378,19.8158 7.2435,19.8158 7.2435,19.8519 7.0757,19.8519 7.0757,19.8158 6.9749,19.8158 6.9749,19.7799 6.8741,19.7799 6.8741,19.7436 6.6726,19.7436 6.6726,19.9601 6.6391,19.9601 6.6391,20.2486 6.6055,20.2486 6.6055,20.4649 6.5718,20.4649 6.5718,20.6813 6.5383,20.6813 6.5383,20.9699 6.5047,20.9699 6.5047,21.1502 6.4711,21.1502 6.4711,21.3665 6.4375,21.3665 6.4375,21.583 6.404,21.583 6.404,21.7632 6.3705,21.7632 6.3705,21.8714 6.3368,21.8714 6.3368,21.9796 6.3032,21.9796 6.3032,22.0878 6.2697,22.0878 6.2697,22.196 6.236,22.196 6.236,22.3043 6.2024,22.3043 6.2024,22.3762 6.1689,22.3762 6.1689,22.4484 6.1352,22.4484 6.1352,22.5566 6.1016,22.5566 6.1016,22.6286 6.0682,22.6286 6.0682,22.7008 6.0346,22.7008 6.0346,22.7729 6.0009,22.7729 6.0009,22.809 5.9674,22.809 5.9674,22.8811 5.9338,22.8811 5.9338,22.9173 5.9002,22.9173 5.9002,22.9892 5.8666,22.9892 5.8666,23.0255 5.833,23.0255 5.833,23.0614 5.7994,23.0614 5.7994,23.0975 5.7658,23.0975 5.7658,23.1697 5.7323,23.1697 5.7323,23.2057 6.0682,23.2057 6.0682,23.1697 6.236,23.1697 6.236,23.1335 6.4711,23.1335 6.4711,23.0975 6.6726,23.0975 6.6726,23.0614 6.9749,23.0614 6.9749,23.0255 7.1764,23.0255 7.1764,22.9892 7.4786,22.9892 7.4786,23.0255 7.7809,23.0255 7.7809,23.0614 7.9825,23.0614 7.9825,23.0975 8.2175,23.0975 8.2175,23.1335 8.3855,23.1335 8.3855,23.1697 8.7212,23.1697 8.7212,23.1335 8.6876,23.1335 8.6876,23.0614 8.6542,23.0614 8.6542,23.0255 8.6204,23.0255 8.6204,22.9892 8.5869,22.9892 8.5869,22.9533 8.5534,22.9533 8.5534,22.8811 8.5198,22.8811 8.5198,22.8451 8.4861,22.8451 8.4861,22.7729 8.4526,22.7729 8.4526,22.7368 8.419,22.7368 8.419,22.6649 8.3855,22.6649 8.3855,22.5927 8.3518,22.5927 8.3518,22.5205 8.3183,22.5205 8.3183,22.4124 8.2848,22.4124 8.2848,22.3402 8.2511,22.3402 8.2511,22.268 8.2175,22.268 8.2175,22.1599 8.184,22.1599 8.184,22.0517 8.1503,22.0517 8.1503,21.9436 8.1167,21.9436 8.1167,21.8354 8.0832,21.8354 8.0832,21.7272 8.0495,21.7272 8.0495,21.5467 8.0159,21.5467 8.0159,21.3305 7.9825,21.3305 7.9825,21.1142 7.9487,21.1142 7.9487,20.9337 7.9152,20.9337 7.9152,20.6453 7.8817,20.6453 7.8817,20.4289 7.8481,20.4289 7.8481,20.2125 7.8144,20.2125 7.8144,19.924 7.7809,19.924 7.7809,19.7077 7.5794,19.7077 "/>
     <polygon id="_57445344" class="fil1" points="7.5458,2.0373 7.5458,2.0733 7.3443,2.0733 7.3443,2.1093 7.1427,2.1093 7.1427,2.0733 6.9414,2.0733 6.9414,2.0373 6.9077,2.0373 6.9077,2.0013 6.6391,2.0013 6.6391,1.9652 6.4711,1.9652 6.4711,1.9291 6.236,1.9291 6.236,1.8931 6.0682,1.8931 6.0682,1.8569 5.7323,1.8569 5.7323,1.8931 5.7658,1.8931 5.7658,1.9652 5.7994,1.9652 5.7994,2.0013 5.833,2.0013 5.833,2.0373 5.8666,2.0373 5.8666,2.0733 5.9002,2.0733 5.9002,2.1455 5.9338,2.1455 5.9338,2.1815 5.9674,2.1815 5.9674,2.2537 6.0009,2.2537 6.0009,2.2898 6.0346,2.2898 6.0346,2.3619 6.0682,2.3619 6.0682,2.4339 6.1016,2.4339 6.1016,2.5061 6.1352,2.5061 6.1352,2.6143 6.1689,2.6143 6.1689,2.6863 6.2024,2.6863 6.2024,2.7585 6.236,2.7585 6.236,2.8667 6.2697,2.8667 6.2697,2.975 6.3032,2.975 6.3032,3.0832 6.3368,3.0832 6.3368,3.1912 6.3705,3.1912 6.3705,3.2994 6.404,3.2994 6.404,3.4797 6.4375,3.4797 6.4375,3.6962 6.4711,3.6962 6.4711,3.9125 6.5047,3.9125 6.5047,4.0929 6.5383,4.0929 6.5383,4.3813 6.5718,4.3813 6.5718,4.5977 6.6055,4.5977 6.6055,4.8141 6.6391,4.8141 6.6391,5.1026 6.6726,5.1026 6.6726,5.3189 6.8741,5.3189 6.8741,5.2829 7.0085,5.2829 7.0085,5.2467 7.0757,5.2467 7.0757,5.2107 7.2435,5.2107 7.2435,5.2467 7.378,5.2467 7.378,5.2829 7.4786,5.2829 7.4786,5.3189 7.5794,5.3189 7.5794,5.3549 7.7809,5.3549 7.7809,5.1387 7.8144,5.1387 7.8144,4.85 7.8481,4.85 7.8481,4.6337 7.8817,4.6337 7.8817,4.4175 7.9152,4.4175 7.9152,4.1288 7.9487,4.1288 7.9487,3.9486 7.9825,3.9486 7.9825,3.7322 8.0159,3.7322 8.0159,3.5158 8.0495,3.5158 8.0495,3.3356 8.0832,3.3356 8.0832,3.2274 8.1167,3.2274 8.1167,3.1191 8.1503,3.1191 8.1503,3.011 8.184,3.011 8.184,2.9028 8.2175,2.9028 8.2175,2.7945 8.2511,2.7945 8.2511,2.7226 8.2848,2.7226 8.2848,2.6504 8.3183,2.6504 8.3183,2.5421 8.3518,2.5421 8.3518,2.47 8.3855,2.47 8.3855,2.3979 8.419,2.3979 8.419,2.3257 8.4526,2.3257 8.4526,2.2898 8.4861,2.2898 8.4861,2.2176 8.5198,2.2176 8.5198,2.1815 8.5534,2.1815 8.5534,2.1093 8.5869,2.1093 8.5869,2.0733 8.6204,2.0733 8.6204,2.0373 8.6542,2.0373 8.6542,2.0013 8.6876,2.0013 8.6876,1.9291 8.7212,1.9291 8.7212,1.8931 8.3855,1.8931 8.3855,1.9291 8.2175,1.9291 8.2175,1.9652 7.9825,1.9652 7.9825,2.0013 7.8144,2.0013 7.8144,2.0373 "/>
     <polygon id="_58123232" class="fil1" points="2.5081,19.6355 2.3739,19.6355 2.3739,19.6717 2.2731,19.6717 2.2731,19.7077 2.2058,19.7077 2.2058,19.7436 2.1723,19.7436 2.1723,19.7799 2.1387,19.7799 2.1387,19.8158 2.1052,19.8158 2.1052,20.0683 2.1387,20.0683 2.1387,20.1764 2.1723,20.1764 2.1723,20.2847 2.2058,20.2847 2.2058,20.5011 2.1723,20.5011 2.1723,20.5371 2.1387,20.5371 2.1387,20.5731 1.7022,20.5731 1.7022,20.6093 1.6686,20.6093 1.6686,20.6813 1.6349,20.6813 1.6349,21.078 1.6014,21.078 1.6014,22.0878 1.6349,22.0878 1.6349,22.1599 1.7694,22.1599 1.7694,22.1238 1.87,22.1238 1.87,22.0878 2.0715,22.0878 2.0715,22.1238 2.1052,22.1238 2.1052,22.1599 2.1387,22.1599 2.1387,22.196 2.1723,22.196 2.1723,22.5205 2.1387,22.5205 2.1387,23.0255 2.1723,23.0255 2.1723,23.0975 2.2058,23.0975 2.2058,23.1335 2.2395,23.1335 2.2395,23.1697 2.3066,23.1697 2.3066,23.2057 2.5081,23.2057 2.5081,23.2417 2.7432,23.2417 2.7432,23.2779 3.5829,23.2779 3.5829,23.2057 3.5493,23.2057 3.5493,23.1697 3.5157,23.1697 3.5157,23.1335 3.4821,23.1335 3.4821,23.0975 3.4486,23.0975 3.4486,23.0255 3.4149,23.0255 3.4149,22.9892 3.3814,22.9892 3.3814,22.9533 3.3478,22.9533 3.3478,22.8811 3.3142,22.8811 3.3142,22.8451 3.2806,22.8451 3.2806,22.7729 3.247,22.7729 3.247,22.7008 3.2134,22.7008 3.2134,22.6286 3.1798,22.6286 3.1798,22.5566 3.1462,22.5566 3.1462,22.4845 3.1126,22.4845 3.1126,22.3762 3.079,22.3762 3.079,22.268 3.0456,22.268 3.0456,22.1599 3.012,22.1599 3.012,22.0517 2.9783,22.0517 2.9783,21.9436 2.9448,21.9436 2.9448,21.8354 2.9112,21.8354 2.9112,21.655 2.8775,21.655 2.8775,21.5467 2.844,21.5467 2.844,21.3305 2.8104,21.3305 2.8104,21.0059 2.7767,21.0059 2.7767,19.7077 2.7432,19.7077 2.7432,19.6355 2.6761,19.6355 2.6761,19.5995 2.5081,19.5995 "/>
     <polygon id="_58122464" class="fil1" points="22.3229,19.5995 22.2559,19.5995 22.2559,19.6717 22.2221,19.6717 22.2221,21.0059 22.1886,21.0059 22.1886,21.2944 22.1551,21.2944 22.1551,21.5108 22.1214,21.5108 22.1214,21.6189 22.0879,21.6189 22.0879,21.7992 22.0543,21.7992 22.0543,21.9074 22.0207,21.9074 22.0207,22.0156 21.9871,22.0156 21.9871,22.1599 21.9535,22.1599 21.9535,22.2321 21.92,22.2321 21.92,22.3402 21.8863,22.3402 21.8863,22.4484 21.8528,22.4484 21.8528,22.5205 21.8192,22.5205 21.8192,22.5927 21.7857,22.5927 21.7857,22.6649 21.752,22.6649 21.752,22.7368 21.7184,22.7368 21.7184,22.809 21.6849,22.809 21.6849,22.8451 21.6512,22.8451 21.6512,22.9173 21.6176,22.9173 21.6176,22.9533 21.5842,22.9533 21.5842,22.9892 21.5504,22.9892 21.5504,23.0614 21.517,23.0614 21.517,23.0975 21.4834,23.0975 21.4834,23.1335 21.4497,23.1335 21.4497,23.1697 21.4162,23.1697 21.4162,23.2417 22.2559,23.2417 22.2559,23.2057 22.4909,23.2057 22.4909,23.1697 22.6924,23.1697 22.6924,23.1335 22.7595,23.1335 22.7595,23.0975 22.7931,23.0975 22.7931,23.0614 22.8268,23.0614 22.8268,22.9892 22.8603,22.9892 22.8603,22.4484 22.8268,22.4484 22.8268,22.1599 22.8603,22.1599 22.8603,22.1238 22.8938,22.1238 22.8938,22.0878 22.9276,22.0878 22.9276,22.0517 23.129,22.0517 23.129,22.0878 23.2297,22.0878 23.2297,22.1238 23.364,22.1238 23.364,22.0517 23.3977,22.0517 23.3977,21.042 23.364,21.042 23.364,20.6453 23.3304,20.6453 23.3304,20.5731 23.2969,20.5731 23.2969,20.5371 22.8603,20.5371 22.8603,20.5011 22.8268,20.5011 22.8268,20.4649 22.7931,20.4649 22.7931,20.2486 22.8268,20.2486 22.8268,20.1405 22.8603,20.1405 22.8603,20.0323 22.8938,20.0323 22.8938,19.7799 22.8603,19.7799 22.8603,19.7436 22.8268,19.7436 22.8268,19.7077 22.7931,19.7077 22.7931,19.6717 22.726,19.6717 22.726,19.6355 22.6252,19.6355 22.6252,19.5995 22.4909,19.5995 22.4909,19.5634 22.3229,19.5634 "/>
     <polygon id="_58070112" class="fil1" points="2.7432,1.8209 2.5081,1.8209 2.5081,1.8569 2.3066,1.8569 2.3066,1.8931 2.2395,1.8931 2.2395,1.9291 2.2058,1.9291 2.2058,1.9652 2.1723,1.9652 2.1723,2.0373 2.1387,2.0373 2.1387,2.5421 2.1723,2.5421 2.1723,2.8667 2.1387,2.8667 2.1387,2.9028 2.1052,2.9028 2.1052,2.9388 2.0715,2.9388 2.0715,2.975 1.87,2.975 1.87,2.9388 1.7694,2.9388 1.7694,2.9028 1.6349,2.9028 1.6349,2.975 1.6014,2.975 1.6014,3.9846 1.6349,3.9846 1.6349,4.3813 1.6686,4.3813 1.6686,4.4535 1.7022,4.4535 1.7022,4.4894 2.1387,4.4894 2.1387,4.5257 2.1723,4.5257 2.1723,4.5616 2.2058,4.5616 2.2058,4.7781 2.1723,4.7781 2.1723,4.8863 2.1387,4.8863 2.1387,4.9943 2.1052,4.9943 2.1052,5.2467 2.1387,5.2467 2.1387,5.2829 2.1723,5.2829 2.1723,5.3189 2.2058,5.3189 2.2058,5.3549 2.2731,5.3549 2.2731,5.3911 2.3739,5.3911 2.3739,5.4271 2.5081,5.4271 2.5081,5.4632 2.6761,5.4632 2.6761,5.4271 2.7432,5.4271 2.7432,5.3549 2.7767,5.3549 2.7767,4.0207 2.8104,4.0207 2.8104,3.7322 2.844,3.7322 2.844,3.5158 2.8775,3.5158 2.8775,3.4076 2.9112,3.4076 2.9112,3.2274 2.9448,3.2274 2.9448,3.1191 2.9783,3.1191 2.9783,3.011 3.012,3.011 3.012,2.9028 3.0456,2.9028 3.0456,2.7945 3.079,2.7945 3.079,2.6863 3.1126,2.6863 3.1126,2.5782 3.1462,2.5782 3.1462,2.5061 3.1798,2.5061 3.1798,2.4339 3.2134,2.4339 3.2134,2.3619 3.247,2.3619 3.247,2.2898 3.2806,2.2898 3.2806,2.2176 3.3142,2.2176 3.3142,2.1815 3.3478,2.1815 3.3478,2.1093 3.3814,2.1093 3.3814,2.0733 3.4149,2.0733 3.4149,2.0373 3.4486,2.0373 3.4486,1.9652 3.4821,1.9652 3.4821,1.9291 3.5157,1.9291 3.5157,1.8931 3.5493,1.8931 3.5493,1.8569 3.5829,1.8569 3.5829,1.7849 2.7432,1.7849 "/>
     <polygon id="_58069776" class="fil1" points="21.4162,1.8931 21.4497,1.8931 21.4497,1.9291 21.4834,1.9291 21.4834,1.9652 21.517,1.9652 21.517,2.0013 21.5504,2.0013 21.5504,2.0733 21.5842,2.0733 21.5842,2.1093 21.6176,2.1093 21.6176,2.1455 21.6512,2.1455 21.6512,2.2176 21.6849,2.2176 21.6849,2.2537 21.7184,2.2537 21.7184,2.3257 21.752,2.3257 21.752,2.3979 21.7857,2.3979 21.7857,2.47 21.8192,2.47 21.8192,2.5421 21.8528,2.5421 21.8528,2.6143 21.8863,2.6143 21.8863,2.7226 21.92,2.7226 21.92,2.8306 21.9535,2.8306 21.9535,2.9388 21.9871,2.9388 21.9871,3.0469 22.0207,3.0469 22.0207,3.1552 22.0543,3.1552 22.0543,3.2634 22.0879,3.2634 22.0879,3.4438 22.1214,3.4438 22.1214,3.5518 22.1551,3.5518 22.1551,3.7322 22.1886,3.7322 22.1886,3.9486 22.2221,3.9486 22.2221,5.3911 22.2559,5.3911 22.2559,5.4632 22.3229,5.4632 22.3229,5.4993 22.4909,5.4993 22.4909,5.4632 22.6252,5.4632 22.6252,5.4271 22.726,5.4271 22.726,5.3911 22.7931,5.3911 22.7931,5.3549 22.8268,5.3549 22.8268,5.3189 22.8603,5.3189 22.8603,5.2829 22.8938,5.2829 22.8938,5.0305 22.8603,5.0305 22.8603,4.9222 22.8268,4.9222 22.8268,4.8141 22.7931,4.8141 22.7931,4.5977 22.8268,4.5977 22.8268,4.5616 22.8603,4.5616 22.8603,4.5257 23.2969,4.5257 23.2969,4.4894 23.3304,4.4894 23.3304,4.4175 23.364,4.4175 23.364,4.0207 23.3977,4.0207 23.3977,3.011 23.364,3.011 23.364,2.9388 23.2297,2.9388 23.2297,2.975 23.129,2.975 23.129,3.011 22.9276,3.011 22.9276,2.975 22.8938,2.975 22.8938,2.9388 22.8603,2.9388 22.8603,2.9028 22.8268,2.9028 22.8268,2.6143 22.8603,2.6143 22.8603,2.0733 22.8268,2.0733 22.8268,2.0013 22.7931,2.0013 22.7931,1.9652 22.7595,1.9652 22.7595,1.9291 22.6924,1.9291 22.6924,1.8931 22.5245,1.8931 22.5245,1.8569 22.1886,1.8569 22.1886,1.8209 21.4162,1.8209 "/>
     <path id="_58069632" class="fil1" d="M21.4162 1.8209l0.7724 0 0 0.036 0.3359 0 0 0.0362 0.1679 0 0 0.036 0.0671 0 0 0.0361 0.0336 0 0 0.0361 0.0337 0 0 0.072 0.0335 0 0 0.541 -0.0335 0 0 0.2885 0.0335 0 0 0.036 0.0335 0 0 0.0362 0.0338 0 0 0.036 0.2014 0 0 -0.036 0.1007 0 0 -0.0362 0.1343 0 0 0.0722 0.0337 0 0 1.0097 -0.0337 0 0 0.3968 -0.0336 0 0 0.0719 -0.0335 0 0 0.0363 -0.4366 0 0 0.0359 -0.0335 0 0 0.0361 -0.0337 0 0 0.2164 0.0337 0 0 0.1081 0.0335 0 0 0.1083 0.0335 0 0 0.2524 -0.0335 0 0 0.036 -0.0335 0 0 0.036 -0.0337 0 0 0.0362 -0.0671 0 0 0.036 -0.1008 0 0 0.0361 -0.1343 0 0 0.0361 -0.168 0 0 -0.0361 -0.067 0 0 -0.0721 -0.0338 0 0 -1.4425 -0.0335 0 0 -0.2164 -0.0335 0 0 -0.1804 -0.0337 0 0 -0.108 -0.0335 0 0 -0.1804 -0.0336 0 0 -0.1082 -0.0336 0 0 -0.1083 -0.0336 0 0 -0.1081 -0.0336 0 0 -0.1082 -0.0335 0 0 -0.108 -0.0337 0 0 -0.1083 -0.0335 0 0 -0.0722 -0.0336 0 0 -0.0721 -0.0335 0 0 -0.0721 -0.0337 0 0 -0.0722 -0.0336 0 0 -0.072 -0.0335 0 0 -0.0361 -0.0337 0 0 -0.0721 -0.0336 0 0 -0.0362 -0.0334 0 0 -0.036 -0.0338 0 0 -0.072 -0.0334 0 0 -0.0361 -0.0336 0 0 -0.0361 -0.0337 0 0 -0.036 -0.0335 0 0 -0.0722zm-0.1679 0l0 0 0.0335 0 0 0.036 0.0336 0 0 0.0362 0.0336 0 0 0.036 0.0336 0 0 0.0361 0.0336 0 0 0.0361 0.0335 0 0 0.072 0.0337 0 0 0.036 0.0336 0 0 0.0362 0.0334 0 0 0.0721 0.0338 0 0 0.0361 0.0334 0 0 0.072 0.0336 0 0 0.0722 0.0337 0 0 0.036 0.0335 0 0 0.1082 0.0336 0 0 0.0722 0.0337 0 0 0.072 0.0335 0 0 0.1082 0.0336 0 0 0.1083 0.0335 0 0 0.1082 0.0337 0 0 0.1081 0.0335 0 0 0.1083 0.0336 0 0 0.1082 0.0336 0 0 0.1441 0.0336 0 0 0.1804 0.0336 0 0 0.2163 0.0335 0 0 0.3246 0.0337 0 0 1.2622 0.0335 0 0 0.0361 0.0335 0 0 0.0361 0.0338 0 0 0.0359 0.3358 0 0 -0.0359 0.1007 0 0 -0.0361 0.1007 0 0 -0.0361 0.0337 0 0 -0.0361 0.067 0 0 -0.036 0.0338 0 0 -0.0362 0.0334 0 0 -0.072 0.0336 0 0 -0.2524 -0.0336 0 0 -0.0722 -0.0334 0 0 -0.1442 -0.0338 0 0 -0.2164 0.2352 0 0 0.036 0.1679 0 0 -0.036 0.0671 0 0 -0.0361 0.0337 0 0 -0.0722 0.0335 0 0 -0.1441 0.0336 0 0 -0.5409 0.0337 0 0 -0.6853 -0.0337 0 0 -0.1803 -0.0336 0 0 -0.0721 -0.2686 0 0 0.0361 -0.2016 0 0 -0.0361 -0.0334 0 0 -0.3967 0.0334 0 0 -0.3967 -0.0334 0 0 -0.072 -0.0338 0 0 -0.0722 -0.0335 0 0 -0.036 -0.0335 0 0 -0.0362 -0.0673 0 0 -0.036 -0.1343 0 0 -0.036 -0.1679 0 0 -0.0362 -1.209 0 0 0.0722z"/>
     <path id="_58071408" class="fil1" d="M22.8603 20.1405l-0.0335 0 0 0.1081 -0.0337 0 0 0.2163 0.0337 0 0 0.0362 0.0335 0 0 0.036 0.4366 0 0 0.036 0.0335 0 0 0.0722 0.0336 0 0 0.3967 0.0337 0 0 1.0097 -0.0337 0 0 0.0721 -0.1343 0 0 -0.036 -0.1007 0 0 -0.0361 -0.2014 0 0 0.0361 -0.0338 0 0 0.036 -0.0335 0 0 0.0361 -0.0335 0 0 0.2885 0.0335 0 0 0.5408 -0.0335 0 0 0.0722 -0.0337 0 0 0.0361 -0.0336 0 0 0.036 -0.0671 0 0 0.0362 -0.2015 0 0 0.036 -0.235 0 0 0.036 -0.8397 0 0 -0.072 0.0335 0 0 -0.0362 0.0337 0 0 -0.036 0.0336 0 0 -0.0361 0.0334 0 0 -0.0722 0.0338 0 0 -0.0359 0.0334 0 0 -0.036 0.0336 0 0 -0.0722 0.0337 0 0 -0.0361 0.0335 0 0 -0.0722 0.0336 0 0 -0.0719 0.0337 0 0 -0.0722 0.0335 0 0 -0.0722 0.0336 0 0 -0.0721 0.0335 0 0 -0.1082 0.0337 0 0 -0.1081 0.0335 0 0 -0.0722 0.0336 0 0 -0.1443 0.0336 0 0 -0.1082 0.0336 0 0 -0.1082 0.0336 0 0 -0.1803 0.0335 0 0 -0.1081 0.0337 0 0 -0.2164 0.0335 0 0 -0.2885 0.0335 0 0 -1.3342 0.0338 0 0 -0.0722 0.067 0 0 -0.0361 0.168 0 0 0.0361 0.1343 0 0 0.036 0.1008 0 0 0.0362 0.0671 0 0 0.036 0.0337 0 0 0.0359 0.0335 0 0 0.0363 0.0335 0 0 0.2524 -0.0335 0 0 0.1082zm-0.6044 -0.6131l0 0 -0.0338 0 0 0.036 -0.0335 0 0 0.0361 -0.0335 0 0 1.226 -0.0337 0 0 0.3606 -0.0335 0 0 0.2165 -0.0336 0 0 0.1804 -0.0336 0 0 0.1442 -0.0336 0 0 0.1082 -0.0336 0 0 0.1082 -0.0335 0 0 0.1081 -0.0337 0 0 0.1082 -0.0335 0 0 0.1081 -0.0336 0 0 0.1082 -0.0335 0 0 0.0722 -0.0337 0 0 0.0721 -0.0336 0 0 0.1081 -0.0335 0 0 0.0363 -0.0337 0 0 0.0719 -0.0336 0 0 0.0722 -0.0334 0 0 0.0361 -0.0338 0 0 0.0722 -0.0334 0 0 0.036 -0.0336 0 0 0.0359 -0.0337 0 0 0.0722 -0.0335 0 0 0.0361 -0.0336 0 0 0.036 -0.0336 0 0 0.0362 -0.0336 0 0 0.036 -0.0336 0 0 0.036 -0.0335 0 0 0.0722 1.209 0 0 -0.036 0.1679 0 0 -0.0362 0.1343 0 0 -0.036 0.0673 0 0 -0.036 0.0335 0 0 -0.0362 0.0335 0 0 -0.0721 0.0338 0 0 -0.0722 0.0334 0 0 -0.3965 -0.0334 0 0 -0.3967 0.0334 0 0 -0.0361 0.2016 0 0 0.0361 0.2686 0 0 -0.0722 0.0336 0 0 -0.1802 0.0337 0 0 -0.6853 -0.0337 0 0 -0.5409 -0.0336 0 0 -0.1443 -0.0335 0 0 -0.072 -0.0337 0 0 -0.0362 -0.0671 0 0 -0.036 -0.1679 0 0 0.036 -0.2352 0 0 -0.2163 0.0338 0 0 -0.1443 0.0334 0 0 -0.072 0.0336 0 0 -0.2524 -0.0336 0 0 -0.0722 -0.0334 0 0 -0.036 -0.0338 0 0 -0.0362 -0.067 0 0 -0.036 -0.0337 0 0 -0.0361 -0.1007 0 0 -0.036 -0.1007 0 0 -0.0362 -0.3358 0 0 0.0362z"/>
     <path id="_58070976" class="fil1" d="M3.5493 1.8931l-0.0336 0 0 0.036 -0.0336 0 0 0.0361 -0.0335 0 0 0.0721 -0.0337 0 0 0.036 -0.0335 0 0 0.036 -0.0336 0 0 0.0722 -0.0336 0 0 0.0361 -0.0336 0 0 0.0722 -0.0336 0 0 0.0721 -0.0336 0 0 0.072 -0.0336 0 0 0.0722 -0.0336 0 0 0.0721 -0.0336 0 0 0.1081 -0.0336 0 0 0.1082 -0.0334 0 0 0.1083 -0.0336 0 0 0.1082 -0.0337 0 0 0.1081 -0.0335 0 0 0.1083 -0.0336 0 0 0.1802 -0.0337 0 0 0.1082 -0.0335 0 0 0.2164 -0.0336 0 0 0.2885 -0.0337 0 0 1.3342 -0.0335 0 0 0.0722 -0.0671 0 0 0.0361 -0.168 0 0 -0.0361 -0.1342 0 0 -0.036 -0.1008 0 0 -0.0362 -0.0673 0 0 -0.036 -0.0335 0 0 -0.036 -0.0336 0 0 -0.0362 -0.0335 0 0 -0.2524 0.0335 0 0 -0.108 0.0336 0 0 -0.1082 0.0335 0 0 -0.2165 -0.0335 0 0 -0.0359 -0.0336 0 0 -0.0363 -0.4365 0 0 -0.0359 -0.0336 0 0 -0.0722 -0.0337 0 0 -0.3967 -0.0335 0 0 -1.0096 0.0335 0 0 -0.0722 0.1345 0 0 0.036 0.1006 0 0 0.0362 0.2015 0 0 -0.0362 0.0337 0 0 -0.036 0.0335 0 0 -0.0361 0.0336 0 0 -0.3246 -0.0336 0 0 -0.5048 0.0336 0 0 -0.0721 0.0335 0 0 -0.0361 0.0337 0 0 -0.036 0.0671 0 0 -0.0362 0.2015 0 0 -0.036 0.2351 0 0 -0.036 0.8397 0 0 0.072 -0.0336 0 0 0.0362zm-1.0075 -0.1444l0 0 -0.1679 0 0 0.0362 -0.1344 0 0 0.036 -0.0672 0 0 0.036 -0.0336 0 0 0.0362 -0.0335 0 0 0.0721 -0.0337 0 0 0.0721 -0.0335 0 0 0.3966 0.0335 0 0 0.3967 -0.0335 0 0 0.0361 -0.2016 0 0 -0.0361 -0.2686 0 0 0.0722 -0.0336 0 0 0.1804 -0.0336 0 0 0.685 0.0336 0 0 0.541 0.0336 0 0 0.1443 0.0336 0 0 0.0722 0.0335 0 0 0.0359 0.0673 0 0 0.0361 0.1678 0 0 -0.0361 0.2352 0 0 0.2165 -0.0337 0 0 0.1441 -0.0335 0 0 0.0721 -0.0336 0 0 0.2524 0.0336 0 0 0.0722 0.0335 0 0 0.036 0.0337 0 0 0.0362 0.0671 0 0 0.036 0.0335 0 0 0.0361 0.1008 0 0 0.0361 0.1007 0 0 0.0361 0.3359 0 0 -0.0361 0.0335 0 0 -0.0361 0.0337 0 0 -0.0361 0.0336 0 0 -1.262 0.0335 0 0 -0.3247 0.0337 0 0 -0.2164 0.0336 0 0 -0.1802 0.0335 0 0 -0.1444 0.0337 0 0 -0.1082 0.0336 0 0 -0.108 0.0334 0 0 -0.1082 0.0336 0 0 -0.1083 0.0336 0 0 -0.1082 0.0336 0 0 -0.1081 0.0336 0 0 -0.0722 0.0336 0 0 -0.0721 0.0336 0 0 -0.1082 0.0336 0 0 -0.036 0.0336 0 0 -0.0721 0.0336 0 0 -0.0722 0.0335 0 0 -0.0361 0.0337 0 0 -0.0722 0.0335 0 0 -0.036 0.0336 0 0 -0.036 0.0336 0 0 -0.0721 0.0336 0 0 -0.0361 0.0336 0 0 -0.036 0.0335 0 0 -0.0362 0.0337 0 0 -0.036 0.0335 0 0 -0.036 0.0335 0 0 -0.0722 -1.2089 0 0 0.036z"/>
     <path id="_58071384" class="fil1" d="M2.1052 19.8158l0.0335 0 0 -0.0359 0.0336 0 0 -0.0363 0.0335 0 0 -0.0359 0.0673 0 0 -0.036 0.1008 0 0 -0.0362 0.1342 0 0 -0.036 0.168 0 0 0.036 0.0671 0 0 0.0722 0.0335 0 0 1.2982 0.0337 0 0 0.3246 0.0336 0 0 0.2162 0.0335 0 0 0.1083 0.0337 0 0 0.1804 0.0336 0 0 0.1082 0.0335 0 0 0.1081 0.0337 0 0 0.1082 0.0336 0 0 0.1081 0.0334 0 0 0.1082 0.0336 0 0 0.1083 0.0336 0 0 0.0721 0.0336 0 0 0.072 0.0336 0 0 0.0722 0.0336 0 0 0.0721 0.0336 0 0 0.0722 0.0336 0 0 0.036 0.0336 0 0 0.0722 0.0336 0 0 0.0359 0.0335 0 0 0.0363 0.0337 0 0 0.072 0.0335 0 0 0.036 0.0336 0 0 0.0362 0.0336 0 0 0.036 0.0336 0 0 0.0722 -0.8397 0 0 -0.0362 -0.2351 0 0 -0.036 -0.2015 0 0 -0.036 -0.0671 0 0 -0.0362 -0.0337 0 0 -0.036 -0.0335 0 0 -0.072 -0.0336 0 0 -0.505 0.0336 0 0 -0.3245 -0.0336 0 0 -0.0361 -0.0335 0 0 -0.0361 -0.0337 0 0 -0.036 -0.2015 0 0 0.036 -0.1006 0 0 0.0361 -0.1345 0 0 -0.0721 -0.0335 0 0 -1.0098 0.0335 0 0 -0.3967 0.0337 0 0 -0.072 0.0336 0 0 -0.0362 0.4365 0 0 -0.036 0.0336 0 0 -0.036 0.0335 0 0 -0.2164 -0.0335 0 0 -0.1083 -0.0336 0 0 -0.1081 -0.0335 0 0 -0.2525zm0.3021 -0.2524l0 0 -0.1007 0 0 0.0361 -0.1008 0 0 0.036 -0.0335 0 0 0.0362 -0.0671 0 0 0.036 -0.0337 0 0 0.0359 -0.0335 0 0 0.0722 -0.0336 0 0 0.2525 0.0336 0 0 0.0722 0.0335 0 0 0.1442 0.0337 0 0 0.2164 -0.2352 0 0 -0.0362 -0.1678 0 0 0.0362 -0.0673 0 0 0.036 -0.0335 0 0 0.0722 -0.0336 0 0 0.1442 -0.0336 0 0 0.5048 -0.0336 0 0 0.7213 0.0336 0 0 0.1803 0.0336 0 0 0.0722 0.2686 0 0 -0.0361 0.2016 0 0 0.0361 0.0335 0 0 0.3965 -0.0335 0 0 0.3969 0.0335 0 0 0.072 0.0337 0 0 0.0722 0.0335 0 0 0.036 0.0336 0 0 0.036 0.0672 0 0 0.0362 0.1344 0 0 0.036 0.1679 0 0 0.036 1.2089 0 0 -0.072 -0.0335 0 0 -0.0362 -0.0335 0 0 -0.036 -0.0337 0 0 -0.036 -0.0335 0 0 -0.0362 -0.0336 0 0 -0.036 -0.0336 0 0 -0.072 -0.0336 0 0 -0.0363 -0.0336 0 0 -0.0359 -0.0335 0 0 -0.0722 -0.0337 0 0 -0.036 -0.0335 0 0 -0.0722 -0.0336 0 0 -0.0721 -0.0336 0 0 -0.0359 -0.0336 0 0 -0.1083 -0.0336 0 0 -0.0721 -0.0336 0 0 -0.0721 -0.0336 0 0 -0.1081 -0.0336 0 0 -0.1083 -0.0336 0 0 -0.1082 -0.0336 0 0 -0.1082 -0.0334 0 0 -0.1082 -0.0336 0 0 -0.1082 -0.0337 0 0 -0.1443 -0.0335 0 0 -0.1803 -0.0336 0 0 -0.2162 -0.0337 0 0 -0.3247 -0.0335 0 0 -1.2622 -0.0336 0 0 -0.036 -0.0337 0 0 -0.0361 -0.0335 0 0 -0.036 -0.3359 0 0 0.036z"/>
     <polygon id="_58070208" class="fil1" points="6.9414,1.9291 6.9414,1.9652 6.9077,1.9652 6.9077,2.0373 6.9414,2.0373 6.9414,2.0733 7.1427,2.0733 7.1427,2.1093 7.3443,2.1093 7.3443,2.0733 7.5458,2.0733 7.5458,2.0373 7.3108,2.0373 7.3108,2.0013 7.4115,2.0013 7.4115,1.9652 7.21,1.9652 7.21,1.9291 7.1092,1.9291 7.1092,1.8931 6.9749,1.8931 6.9749,1.9291 "/>
    </g>
   </g>
  </g>
 </g>
</svg>
