<?xml version="1.0" encoding="UTF-8"?>
<!DOCTYPE svg PUBLIC "-//W3C//DTD SVG 1.1//EN" "http://www.w3.org/Graphics/SVG/1.1/DTD/svg11.dtd">
<!-- Creator: CorelDRAW -->
<svg xmlns="http://www.w3.org/2000/svg" xml:space="preserve" width="25mm" height="25mm" style="shape-rendering:geometricPrecision; text-rendering:geometricPrecision; image-rendering:optimizeQuality; fill-rule:evenodd; clip-rule:evenodd"
viewBox="0 0 25 25"
 xmlns:xlink="http://www.w3.org/1999/xlink">
 <defs>
  <style type="text/css">
   <![CDATA[
    .fil0 {fill:none}
    .fil1 {fill:white}
   ]]>
  </style>
 </defs>
 <g id="Слой_x0020_1">
  <metadata id="CorelCorpID_0Corel-Layer"/>
  <g id="_58122752">
   <rect id="_56272520" class="fil0" x="0.00394478" y="-0.0399545" width="25" height="25"/>
   <path id="_41745392" class="fil1" d="M12.9044 10.7834l0.4678 -0.3508 0.0591 -1.1151 0.8951 -0.6282c0.2533,0.1768 0.5064,0.3536 0.7596,0.5304l-0.0766 0.6281 -0.2339 0.3509 -0.5847 0 0.0584 -0.4677 0.2923 0 0.234 0 -0.0586 -0.4677 -0.4738 -0.2339 -0.52 0.3509 0 1.0523 -0.8187 0.8185 0.0807 8.9716 0.1532 0.8166 0.117 1.1692 1.077 1.1694 0.6067 0.0266 0.0003 0.554 -2.4354 0.0007 -2.4355 -0.0007 0.0004 -0.554 0.6067 -0.0266 1.077 -1.1694 0.117 -1.1692 0.151 -0.8061 0.0829 -8.9821 -0.8187 -0.8185 0 -1.0523 -0.52 -0.3509 -0.4739 0.2339 -0.0585 0.4677 0.2339 0 0.2923 0 0.0585 0.4677 -0.5847 0 -0.2339 -0.3509 -0.0767 -0.6281c0.2532,-0.1768 0.5064,-0.3536 0.7596,-0.5304l0.8952 0.6282 0.0591 1.1151 0.4678 0.3508 -0.4678 -2.2217 -0.3509 -0.117 -0.9354 -4.4436 -1.2863 0 2.6895 -3.0403 0.7514 0 0.7514 0 2.6895 3.0403 -1.2863 0 -0.9354 4.4436 -0.3509 0.117 -0.4678 2.2217zm1.4033 -6.7823l-1.6372 0 0 4.2096 0.8188 0 0.8184 -4.2096zm-3.6077 0l1.6373 0 0 4.2096 -0.8188 0 -0.8185 -4.2096z"/>
  </g>
 </g>
</svg>
