<?xml version="1.0" encoding="UTF-8"?>
<!DOCTYPE svg PUBLIC "-//W3C//DTD SVG 1.1//EN" "http://www.w3.org/Graphics/SVG/1.1/DTD/svg11.dtd">
<!-- Creator: CorelDRAW -->
<svg xmlns="http://www.w3.org/2000/svg" xml:space="preserve" width="25mm" height="25mm" style="shape-rendering:geometricPrecision; text-rendering:geometricPrecision; image-rendering:optimizeQuality; fill-rule:evenodd; clip-rule:evenodd"
viewBox="0 0 25 25"
 xmlns:xlink="http://www.w3.org/1999/xlink">
 <defs>
  <style type="text/css">
   <![CDATA[
    .fil0 {fill:none}
    .fil1 {fill:white;fill-rule:nonzero}
   ]]>
  </style>
 </defs>
 <g id="Слой_x0020_1">
  <metadata id="CorelCorpID_0Corel-Layer"/>
  <g id="_58586744">
   <rect id="_58072416" class="fil0" x="0.0590468" y="-0.00649943" width="25" height="25"/>
   <g>
    <path id="_58194360" class="fil1" d="M17.2539 19.5104c1.3833,-2.8921 2.0117,-6.3153 -0.1386,-9.1759 0.2327,0.8816 -0.0756,2.233 -0.7561,2.9294 0.3294,-1.1101 0.401,-2.0947 0.2026,-3.4343 -0.3197,-2.1562 -1.5298,-4.5381 -2.6928,-6.184 -0.9343,-1.3225 -2.8155,-2.9549 -3.1413,-3.1313 0.4654,1.939 0.5594,3.5206 -0.2328,5.6404 -1.401,3.7501 -4.5609,6.1691 -3.7697,10.8694 0.4791,3.025 2.7237,6.07 5.1357,7.0055 -0.1301,-0.0764 -0.2561,-0.1592 -0.3777,-0.2466 -0.3733,-0.2687 -0.7157,-0.5801 -1.0259,-0.9198 -0.3113,-0.3391 -0.5902,-0.7072 -0.8427,-1.0921 -0.2512,-0.3857 -0.4815,-0.7863 -0.6745,-1.2054 -0.1919,-0.4195 -0.3535,-0.8532 -0.4836,-1.2967 -0.1242,-0.4452 -0.2154,-0.9004 -0.2681,-1.3609 -0.0513,-0.4611 -0.0522,-0.9277 -0.0122,-1.391 0.0363,-0.4647 0.1488,-0.9211 0.2958,-1.3623 0.1451,-0.4433 0.3587,-0.8622 0.6079,-1.2542 0.0646,-0.0968 0.1277,-0.1949 0.1962,-0.2887l0.2176 -0.2723c0.1432,-0.1805 0.2957,-0.3486 0.4411,-0.5242 0.2841,-0.3504 0.5606,-0.711 0.8155,-1.0859 0.2536,-0.3758 0.4915,-0.7624 0.7063,-1.1621 0.4269,-0.8003 0.7477,-1.6586 0.9391,-2.5456 0.0956,-0.4441 0.1508,-0.8959 0.1733,-1.3492 0.0114,-0.2266 0.0145,-0.4535 0.0138,-0.6813l0.0009 -0.3434c0.001,-0.0575 0.0038,-0.1159 0.0094,-0.1751 0.0097,-0.0601 0.011,-0.1207 0.0572,-0.1895l0.0465 -0.0694 0.0415 0.0769c0.2186,0.404 0.453,0.7998 0.68,1.2005 0.2282,0.3999 0.453,0.8028 0.665,1.2132 0.1052,0.2061 0.2078,0.4132 0.3046,0.6238 0.0955,0.211 0.1897,0.423 0.2723,0.6402 0.0441,0.1074 0.0843,0.2164 0.121,0.3268 0.038,0.1102 0.078,0.2195 0.109,0.3319 0.0696,0.2225 0.1234,0.4499 0.1733,0.6783l0.0617 0.3456 0.0416 0.3492c0.0135,0.1231 0.0149,0.2319 0.0229,0.3487 0.002,0.1172 0.003,0.237 0.0016,0.3545 -0.0066,0.2336 -0.0196,0.4668 -0.042,0.6976 -0.0206,0.2311 -0.048,0.4604 -0.073,0.6888 -0.0259,0.2282 -0.0487,0.4554 -0.0674,0.682 -0.0153,0.2263 -0.0275,0.4523 -0.022,0.6765 0.0015,0.1123 0.0052,0.2241 0.0171,0.335 0.0061,0.1115 0.0239,0.221 0.0411,0.3307 0.0125,0.1106 0.0467,0.2161 0.0687,0.3246 0.0184,0.0712 0.0416,0.1409 0.0648,0.2109 -0.0232,0.0306 -0.0455,0.0625 -0.0673,0.0952l-0.0609 -0.0058c-0.0125,-0.0364 -0.0243,-0.0729 -0.0354,-0.1094l0.0653 -0.0962 0.1561 -0.1773c0.058,-0.0522 0.1146,-0.1067 0.1742,-0.1569 0.0622,-0.0458 0.123,-0.0946 0.1866,-0.1375 0.1283,-0.0846 0.2599,-0.16 0.3935,-0.2281 0.1337,-0.0675 0.2687,-0.1282 0.4024,-0.1878 0.2674,-0.1184 0.5314,-0.231 0.7769,-0.3671 0.1226,-0.068 0.2395,-0.1429 0.3511,-0.2235l0.1596 -0.1292 0.1464 -0.1419 0.247 -0.2393 0.0131 0.3343c0.0209,0.5343 0,1.0629 -0.0391,1.5907 -0.0195,0.2639 -0.0463,0.527 -0.0767,0.7895 -0.031,0.2626 -0.0682,0.5244 -0.1122,0.785 -0.0878,0.5214 -0.1978,1.0392 -0.333,1.5506 -0.0318,0.1284 -0.0696,0.2551 -0.1064,0.3823 -0.0355,0.1273 -0.0746,0.2538 -0.1163,0.3795 -0.016,0.0513 -0.0328,0.1025 -0.0496,0.1537zm-9.9377 -4.5755l0 0c0.0371,-0.2831 0.0772,-0.5677 0.1456,-0.8467 0.0668,-0.2789 0.1475,-0.5555 0.2519,-0.8239 0.2028,-0.5389 0.4842,-1.0488 0.822,-1.5171 0.3377,-0.4688 0.7311,-0.8928 1.1241,-1.3084 0.3916,-0.4163 0.7875,-0.8281 1.0939,-1.2953 0.1569,-0.2342 0.2711,-0.4771 0.3793,-0.7455 0.1098,-0.2604 0.2145,-0.5247 0.3091,-0.7914 0.1899,-0.5338 0.3441,-1.0798 0.4478,-1.634 0.103,-0.5539 0.1562,-1.117 0.1319,-1.6758 -0.0257,-0.5576 -0.1183,-1.1127 -0.3154,-1.6325l-0.2032 -0.5352 0.4218 0.3805 0.4531 0.4087c0.1485,0.1391 0.2897,0.286 0.4349,0.4288 0.1422,0.1454 0.2757,0.2996 0.4138,0.449 0.1321,0.1546 0.2621,0.3115 0.3903,0.4693 0.1217,0.1624 0.2512,0.32 0.3667,0.4864 0.1174,0.1656 0.2333,0.3317 0.345,0.4997l0.3364 0.5027 0.0833 0.1292c0.0261,0.0453 0.0541,0.0923 0.0782,0.138 0.0485,0.0917 0.0936,0.1846 0.1343,0.2787 0.1639,0.3765 0.2864,0.7652 0.3881,1.1582 0.1027,0.3927 0.1784,0.7915 0.2346,1.1926 0.0558,0.4008 0.0934,0.8044 0.1016,1.2087 0.0088,0.404 -0.0108,0.8106 -0.0908,1.2062 0.0577,-0.3995 0.0511,-0.8033 0.028,-1.2035 -0.0254,-0.4007 -0.0796,-0.7989 -0.1515,-1.1933 -0.0729,-0.3942 -0.1654,-0.7845 -0.2741,-1.1692 -0.1099,-0.384 -0.2407,-0.7632 -0.4078,-1.1214 -0.0416,-0.0895 -0.0871,-0.1768 -0.1349,-0.2619 -0.0239,-0.0428 -0.0486,-0.0817 -0.0736,-0.1231 -0.0299,-0.0436 -0.0536,-0.0813 -0.0839,-0.1225l-0.3518 -0.4908c-0.1165,-0.1639 -0.2364,-0.3245 -0.3572,-0.4838 -0.1172,-0.1624 -0.2447,-0.3159 -0.3665,-0.4741 -0.1272,-0.1536 -0.2562,-0.3058 -0.3871,-0.4557 -0.1369,-0.1449 -0.269,-0.2944 -0.4096,-0.4352 -0.1437,-0.1382 -0.2833,-0.2805 -0.4302,-0.4152l-0.4483 -0.3959 0.2185 -0.155c0.2119,0.55 0.3251,1.1358 0.3436,1.7206 0.0196,0.5854 -0.0417,1.1684 -0.1536,1.7376 -0.1122,0.5696 -0.2757,1.1266 -0.4747,1.6689 -0.0999,0.2713 -0.2071,0.5385 -0.3243,0.8033 -0.1138,0.2585 -0.2486,0.5337 -0.4175,0.771 -0.3344,0.4839 -0.7468,0.8916 -1.1473,1.2985 -0.4025,0.4058 -0.7975,0.8157 -1.1421,1.2662 -0.3487,0.4471 -0.6438,0.9368 -0.8641,1.4614 -0.1133,0.2611 -0.2029,0.5321 -0.2807,0.8062 -0.082,0.2736 -0.1361,0.5544 -0.1876,0.836zm5.3476 -9.5599l0 0 -0.0185 -0.0341 0.0304 0.0027c-0.0043,0.0094 -0.0083,0.0197 -0.0119,0.0314zm0.0445 -0.0286l0 0 0.025 0.0021c-0.0042,0.0069 -0.0079,0.0146 -0.0113,0.0231l-0.0137 -0.0252zm5.0837 8.6824l0 0c-0.0012,-0.0453 -0.0029,-0.0906 -0.0048,-0.1356l0.1063 0.0388c-0.0332,0.0336 -0.0669,0.0657 -0.1015,0.0968zm0.1479 -0.0797l0 0 0.1073 0.0392 -0.1032 0.1009c-0.0009,-0.0486 -0.0024,-0.0955 -0.0041,-0.1401z"/>
    <path id="_58193688" class="fil1" d="M12.6638 5.375c0.0036,-0.0117 0.0076,-0.022 0.0119,-0.0314l0.0326 0.0028 0.0137 0.0252c-0.0284,0.0696 -0.0323,0.1829 -0.0353,0.279l-0.0038 0.341c-0.0012,0.2282 -0.0062,0.4574 -0.0197,0.6863 -0.0254,0.4578 -0.0896,0.9127 -0.1774,1.3624 -0.18,0.9003 -0.5067,1.7653 -0.9128,2.5872 -0.2059,0.4099 -0.4355,0.8077 -0.6819,1.1949 -0.2474,0.3871 -0.517,0.7579 -0.7978,1.1237 -0.1406,0.1797 -0.2903,0.3538 -0.4258,0.5343l-0.2025 0.2678c-0.0635,0.0918 -0.1205,0.1882 -0.1827,0.281 -0.2359,0.3783 -0.4371,0.7808 -0.5722,1.2063 -0.1388,0.4235 -0.2374,0.8614 -0.2766,1.3069 -0.0428,0.4445 -0.0471,0.8941 -0.0019,1.3407 0.0462,0.4463 0.1301,0.889 0.2463,1.3236 0.1218,0.4336 0.277,0.8574 0.4571,1.2708 0.1782,0.4145 0.3936,0.8127 0.6301,1.1971 0.2379,0.3841 0.5027,0.7526 0.7998,1.0933 0.2958,0.3413 0.6161,0.6636 0.9733,0.9414 0.2381,0.1838 0.4893,0.3499 0.7583,0.4834 -0.0765,-0.0629 -0.1523,-0.1344 -0.2258,-0.213 -1.8165,-1.1842 -3.6139,-4.8995 -1.4828,-7.4233 2.6415,-3.0817 1.9303,-5.3466 2.123,-5.5909 0.6722,1.2471 1.5386,2.5558 1.6507,4.0185 0.0875,1.145 -0.3806,2.2315 0.0138,3.313 0.429,-0.7164 1.4125,-0.7062 2.0019,-1.3411 0.0623,1.3386 -0.2838,5.4564 -2.6261,6.9132 -0.0577,0.0676 -0.1187,0.1317 -0.1838,0.1911 0.1972,-0.0925 0.3892,-0.1958 0.5705,-0.3156 0.1129,-0.0651 0.2146,-0.1463 0.3188,-0.2239 0.1061,-0.0747 0.2036,-0.1605 0.3,-0.2473l0.1457 -0.1287 0.1368 -0.1383 0.1366 -0.1382c0.0441,-0.0476 0.0851,-0.0978 0.1277,-0.1468 0.0848,-0.0981 0.1708,-0.195 0.2461,-0.3009 0.0772,-0.1043 0.1595,-0.2045 0.2284,-0.3146 0.1475,-0.2134 0.28,-0.4368 0.4067,-0.6629l0.1803 -0.345 0.1652 -0.3528c0.1036,-0.2382 0.2046,-0.4773 0.2935,-0.7216 0.0896,-0.244 0.1742,-0.49 0.2476,-0.7394 0.0388,-0.1241 0.0752,-0.249 0.1081,-0.3751 0.0339,-0.1254 0.069,-0.2507 0.0978,-0.3777 0.1246,-0.5053 0.224,-1.0168 0.3019,-1.5318 0.0762,-0.515 0.1389,-1.0323 0.1753,-1.5514 0.0335,-0.4732 0.0516,-0.949 0.0376,-1.4194 0.0346,-0.0311 0.0683,-0.0632 0.1015,-0.0968l0.0462 0.0171c0.0017,0.0449 0.0034,0.0912 0.0043,0.1401l-0.0632 0.0618c-0.0583,0.0501 -0.1194,0.0975 -0.1791,0.1461 -0.124,0.0906 -0.2522,0.1729 -0.384,0.2469 -0.2635,0.1471 -0.5357,0.2639 -0.7998,0.3822 -0.1323,0.0587 -0.2618,0.1194 -0.3887,0.1819 -0.1264,0.0631 -0.2478,0.1314 -0.3637,0.206 -0.0574,0.0376 -0.1104,0.08 -0.1659,0.1197 -0.0521,0.0431 -0.1008,0.0895 -0.1517,0.1337l-0.1339 0.1491 -0.114 0.164 -0.1799 0.2589 -0.0851 -0.284c-0.0343,-0.1148 -0.0746,-0.228 -0.1034,-0.344 -0.0234,-0.1171 -0.0584,-0.2324 -0.071,-0.3511 -0.0175,-0.1179 -0.035,-0.2356 -0.0407,-0.3542 -0.0113,-0.1182 -0.0141,-0.2361 -0.0146,-0.3541 -0.0034,-0.2362 0.0117,-0.4699 0.0295,-0.7024 0.0213,-0.2318 0.0468,-0.4622 0.0749,-0.6908 0.0551,-0.4574 0.113,-0.9102 0.1312,-1.3625l0.0043 -0.3355c-0.0059,-0.113 -0.0059,-0.2346 -0.0168,-0.3404l-0.0341 -0.3367 -0.0541 -0.3347c-0.0444,-0.2219 -0.0935,-0.4433 -0.1568,-0.6615 -0.0272,-0.1103 -0.0636,-0.2181 -0.098,-0.3265 -0.0331,-0.1089 -0.0698,-0.2166 -0.1103,-0.3232 -0.0754,-0.2149 -0.1629,-0.4259 -0.2517,-0.6364 -0.0904,-0.2101 -0.1866,-0.4176 -0.2854,-0.6242 -0.2002,-0.4122 -0.4157,-0.8177 -0.6343,-1.2222l-0.6399 -1.1801zm2.3512 10.2546l0 0c0.0111,0.0365 0.0229,0.073 0.0354,0.1094l-0.1034 -0.0098 0.068 -0.0996zm0.0963 0.1152l0 0c0.0218,-0.0327 0.0441,-0.0646 0.0673,-0.0952 0.0114,0.0348 0.0227,0.0697 0.0336,0.1048l-0.1009 -0.0096z"/>
    <path id="_58194912" class="fil1" d="M12.4681 24.3192c-0.3505,-0.1281 -0.6819,-0.3186 -0.9849,-0.5362 -0.3733,-0.2687 -0.7157,-0.5801 -1.0259,-0.9198 -0.3113,-0.3391 -0.5902,-0.7072 -0.8427,-1.0921 -0.2512,-0.3857 -0.4815,-0.7863 -0.6745,-1.2054 -0.1919,-0.4195 -0.3535,-0.8532 -0.4836,-1.2967 -0.1242,-0.4452 -0.2154,-0.9004 -0.2681,-1.3609 -0.0513,-0.4611 -0.0522,-0.9277 -0.0122,-1.391 0.0363,-0.4647 0.1488,-0.9211 0.2958,-1.3623 0.1451,-0.4433 0.3587,-0.8622 0.6079,-1.2542 0.0646,-0.0968 0.1277,-0.1949 0.1962,-0.2887l0.2176 -0.2723c0.1432,-0.1805 0.2957,-0.3486 0.4411,-0.5242 0.2841,-0.3504 0.5606,-0.711 0.8155,-1.0859 0.2536,-0.3758 0.4915,-0.7624 0.7063,-1.1621 0.4269,-0.8003 0.7477,-1.6586 0.9391,-2.5456 0.0956,-0.4441 0.1508,-0.8959 0.1733,-1.3492 0.0114,-0.2266 0.0145,-0.4535 0.0138,-0.6813l0.0009 -0.3434c0.001,-0.0575 0.0038,-0.1159 0.0094,-0.1751 0.0097,-0.0601 0.011,-0.1207 0.0572,-0.1895l0.0465 -0.0694 0.0415 0.0769c0.2186,0.404 0.453,0.7998 0.68,1.2005 0.2282,0.3999 0.453,0.8028 0.665,1.2132 0.1052,0.2061 0.2078,0.4132 0.3046,0.6238 0.0955,0.211 0.1897,0.423 0.2723,0.6402 0.0441,0.1074 0.0843,0.2164 0.121,0.3268 0.038,0.1102 0.078,0.2195 0.109,0.3319 0.0696,0.2225 0.1234,0.4499 0.1733,0.6783l0.0617 0.3456 0.0416 0.3492c0.0135,0.1231 0.0149,0.2319 0.0229,0.3487 0.002,0.1172 0.003,0.237 0.0016,0.3545 -0.0066,0.2336 -0.0196,0.4668 -0.042,0.6976 -0.0206,0.2311 -0.048,0.4604 -0.073,0.6888 -0.0259,0.2282 -0.0487,0.4554 -0.0674,0.682 -0.0153,0.2263 -0.0275,0.4523 -0.022,0.6765 0.0015,0.1123 0.0052,0.2241 0.0171,0.335 0.0061,0.1115 0.0239,0.221 0.0411,0.3307 0.0125,0.1106 0.0467,0.2161 0.0687,0.3246 0.0276,0.1067 0.066,0.2103 0.0984,0.3157l-0.2652 -0.0252 0.1333 -0.1958 0.1561 -0.1773c0.058,-0.0522 0.1146,-0.1067 0.1742,-0.1569 0.0622,-0.0458 0.123,-0.0946 0.1866,-0.1375 0.1283,-0.0846 0.2599,-0.16 0.3935,-0.2281 0.1337,-0.0675 0.2687,-0.1282 0.4024,-0.1878 0.2674,-0.1184 0.5314,-0.231 0.7769,-0.3671 0.1226,-0.068 0.2395,-0.1429 0.3511,-0.2235l0.1596 -0.1292 0.1464 -0.1419 0.247 -0.2393 0.0131 0.3343c0.0209,0.5343 0,1.0629 -0.0391,1.5907 -0.0195,0.2639 -0.0463,0.527 -0.0767,0.7895 -0.031,0.2626 -0.0682,0.5244 -0.1122,0.785 -0.0878,0.5214 -0.1978,1.0392 -0.333,1.5506 -0.0318,0.1284 -0.0696,0.2551 -0.1064,0.3823 -0.0355,0.1273 -0.0746,0.2538 -0.1163,0.3795 -0.0792,0.2524 -0.1697,0.5015 -0.2652,0.7485 -0.095,0.247 -0.2013,0.4899 -0.3127,0.7303l-0.1787 0.3555 -0.194 0.3472c-0.1362,0.2279 -0.2779,0.4522 -0.4351,0.6663 -0.0736,0.1105 -0.1608,0.2112 -0.2427,0.3154 -0.0801,0.1059 -0.1708,0.2031 -0.2604,0.301 -0.0451,0.0487 -0.0886,0.0989 -0.1349,0.1463l-0.144 0.1378 -0.1439 0.1374 -0.1541 0.1262c-0.102,0.0848 -0.2052,0.1679 -0.3168,0.2402 -0.1095,0.0749 -0.2166,0.153 -0.3341,0.215 -0.2269,0.1368 -0.4676,0.249 -0.7127,0.346 -0.0245,0.0083 -0.0489,0.0169 -0.0731,0.0257 0.0581,-0.0419 0.1135,-0.0871 0.1663,-0.1353 0.1972,-0.0925 0.3892,-0.1958 0.5705,-0.3156 0.1129,-0.0651 0.2146,-0.1463 0.3188,-0.2239 0.1061,-0.0747 0.2036,-0.1605 0.3,-0.2473l0.1457 -0.1287 0.1368 -0.1383 0.1366 -0.1382c0.0441,-0.0476 0.0851,-0.0978 0.1277,-0.1468 0.0848,-0.0981 0.1708,-0.195 0.2461,-0.3009 0.0772,-0.1043 0.1595,-0.2045 0.2284,-0.3146 0.1475,-0.2134 0.28,-0.4368 0.4067,-0.6629l0.1803 -0.345 0.1652 -0.3528c0.1036,-0.2382 0.2046,-0.4773 0.2935,-0.7216 0.0896,-0.244 0.1742,-0.49 0.2476,-0.7394 0.0388,-0.1241 0.0752,-0.249 0.1081,-0.3751 0.0339,-0.1254 0.069,-0.2507 0.0978,-0.3777 0.1246,-0.5053 0.224,-1.0168 0.3019,-1.5318 0.0762,-0.515 0.1389,-1.0323 0.1753,-1.5514 0.0367,-0.5187 0.055,-1.0404 0.0328,-1.555l0.26 0.0951 -0.1664 0.1627c-0.0583,0.0501 -0.1194,0.0975 -0.1791,0.1461 -0.124,0.0906 -0.2522,0.1729 -0.384,0.2469 -0.2635,0.1471 -0.5357,0.2639 -0.7998,0.3822 -0.1323,0.0587 -0.2618,0.1194 -0.3887,0.1819 -0.1264,0.0631 -0.2478,0.1314 -0.3637,0.206 -0.0574,0.0376 -0.1104,0.08 -0.1659,0.1197 -0.0521,0.0431 -0.1008,0.0895 -0.1517,0.1337l-0.1339 0.1491 -0.114 0.164 -0.1799 0.2589 -0.0851 -0.284c-0.0343,-0.1148 -0.0746,-0.228 -0.1034,-0.344 -0.0234,-0.1171 -0.0584,-0.2324 -0.071,-0.3511 -0.0175,-0.1179 -0.035,-0.2356 -0.0407,-0.3542 -0.0113,-0.1182 -0.0141,-0.2361 -0.0146,-0.3541 -0.0034,-0.2362 0.0117,-0.4699 0.0295,-0.7024 0.0213,-0.2318 0.0468,-0.4622 0.0749,-0.6908 0.0551,-0.4574 0.113,-0.9102 0.1312,-1.3625l0.0043 -0.3355c-0.0059,-0.113 -0.0059,-0.2346 -0.0168,-0.3404l-0.0341 -0.3367 -0.0541 -0.3347c-0.0444,-0.2219 -0.0935,-0.4433 -0.1568,-0.6615 -0.0272,-0.1103 -0.0636,-0.2181 -0.098,-0.3265 -0.0331,-0.1089 -0.0698,-0.2166 -0.1103,-0.3232 -0.0754,-0.2149 -0.1629,-0.4259 -0.2517,-0.6364 -0.0904,-0.2101 -0.1866,-0.4176 -0.2854,-0.6242 -0.2002,-0.4122 -0.4157,-0.8177 -0.6343,-1.2222l-0.6584 -1.2142 0.088 0.0076c-0.0388,0.0652 -0.0431,0.1945 -0.0466,0.3021l-0.0038 0.341c-0.0012,0.2282 -0.0062,0.4574 -0.0197,0.6863 -0.0254,0.4578 -0.0896,0.9127 -0.1774,1.3624 -0.18,0.9003 -0.5067,1.7653 -0.9128,2.5872 -0.2059,0.4099 -0.4355,0.8077 -0.6819,1.1949 -0.2474,0.3871 -0.517,0.7579 -0.7978,1.1237 -0.1406,0.1797 -0.2903,0.3538 -0.4258,0.5343l-0.2025 0.2678c-0.0635,0.0918 -0.1205,0.1882 -0.1827,0.281 -0.2359,0.3783 -0.4371,0.7808 -0.5722,1.2063 -0.1388,0.4235 -0.2374,0.8614 -0.2766,1.3069 -0.0428,0.4445 -0.0471,0.8941 -0.0019,1.3407 0.0462,0.4463 0.1301,0.889 0.2463,1.3236 0.1218,0.4336 0.277,0.8574 0.4571,1.2708 0.1782,0.4145 0.3936,0.8127 0.6301,1.1971 0.2379,0.3841 0.5027,0.7526 0.7998,1.0933 0.2958,0.3413 0.6161,0.6636 0.9733,0.9414 0.2381,0.1838 0.4893,0.3499 0.7583,0.4834 0.057,0.047 0.1143,0.0894 0.1716,0.1265z"/>
    <path id="_58123328" class="fil1" d="M12.0707 23.9797c-1.8165,-1.1842 -3.6139,-4.8995 -1.4828,-7.4233 2.6415,-3.0817 1.9303,-5.3466 2.123,-5.5909 0.6722,1.2471 1.5386,2.5558 1.6507,4.0185 0.0875,1.145 -0.3806,2.2315 0.0138,3.313 0.429,-0.7164 1.4125,-0.7062 2.0019,-1.3411 0.0623,1.3386 -0.2838,5.4564 -2.6261,6.9132 0.7669,-0.9027 0.8895,-2.4886 0.8626,-3.0598 -0.2942,0.3169 -0.7853,0.3119 -0.9994,0.6697 -0.1972,-0.5401 0.0368,-1.0827 -0.0069,-1.6543 -0.0561,-0.7304 -0.4885,-1.3839 -0.8243,-2.0067 -0.096,0.1221 0.2591,1.2528 -1.06,2.7916 -0.9077,1.075 -0.3879,2.583 0.3475,3.3701z"/>
    <path id="_58068984" class="fil1" d="M12.791 24.4724c-0.9873,-0.2879 -2.2612,-2.4496 -1.0678,-3.8628 1.3191,-1.5388 0.964,-2.6695 1.06,-2.7916 0.3358,0.6228 0.7682,1.2763 0.8243,2.0067 0.0437,0.5716 -0.1903,1.1142 0.0069,1.6543 0.2141,-0.3578 0.7052,-0.3528 0.9994,-0.6697 0.0354,0.7556 -0.1899,3.2864 -1.8228,3.6631z"/>
    <path id="_58069704" class="fil1" d="M7.3162 14.9349c0.0371,-0.2831 0.0772,-0.5677 0.1456,-0.8467 0.0668,-0.2789 0.1475,-0.5555 0.2519,-0.8239 0.2028,-0.5389 0.4842,-1.0488 0.822,-1.5171 0.3377,-0.4688 0.7311,-0.8928 1.1241,-1.3084 0.3916,-0.4163 0.7875,-0.8281 1.0939,-1.2953 0.1569,-0.2342 0.2711,-0.4771 0.3793,-0.7455 0.1098,-0.2604 0.2145,-0.5247 0.3091,-0.7914 0.1899,-0.5338 0.3441,-1.0798 0.4478,-1.634 0.103,-0.5539 0.1562,-1.117 0.1319,-1.6758 -0.0257,-0.5576 -0.1183,-1.1127 -0.3154,-1.6325l-0.2032 -0.5352 0.4218 0.3805 0.4531 0.4087c0.1485,0.1391 0.2897,0.286 0.4349,0.4288 0.1422,0.1454 0.2757,0.2996 0.4138,0.449 0.1321,0.1546 0.2621,0.3115 0.3903,0.4693 0.1217,0.1624 0.2512,0.32 0.3667,0.4864 0.1174,0.1656 0.2333,0.3317 0.345,0.4997l0.3364 0.5027 0.0833 0.1292c0.0261,0.0453 0.0541,0.0923 0.0782,0.138 0.0485,0.0917 0.0936,0.1846 0.1343,0.2787 0.1639,0.3765 0.2864,0.7652 0.3881,1.1582 0.1027,0.3927 0.1784,0.7915 0.2346,1.1926 0.0558,0.4008 0.0934,0.8044 0.1016,1.2087 0.0088,0.404 -0.0108,0.8106 -0.0908,1.2062 0.0577,-0.3995 0.0511,-0.8033 0.028,-1.2035 -0.0254,-0.4007 -0.0796,-0.7989 -0.1515,-1.1933 -0.0729,-0.3942 -0.1654,-0.7845 -0.2741,-1.1692 -0.1099,-0.384 -0.2407,-0.7632 -0.4078,-1.1214 -0.0416,-0.0895 -0.0871,-0.1768 -0.1349,-0.2619 -0.0239,-0.0428 -0.0486,-0.0817 -0.0736,-0.1231 -0.0299,-0.0436 -0.0536,-0.0813 -0.0839,-0.1225l-0.3518 -0.4908c-0.1165,-0.1639 -0.2364,-0.3245 -0.3572,-0.4838 -0.1172,-0.1624 -0.2447,-0.3159 -0.3665,-0.4741 -0.1272,-0.1536 -0.2562,-0.3058 -0.3871,-0.4557 -0.1369,-0.1449 -0.269,-0.2944 -0.4096,-0.4352 -0.1437,-0.1382 -0.2833,-0.2805 -0.4302,-0.4152l-0.4483 -0.3959 0.2185 -0.155c0.2119,0.55 0.3251,1.1358 0.3436,1.7206 0.0196,0.5854 -0.0417,1.1684 -0.1536,1.7376 -0.1122,0.5696 -0.2757,1.1266 -0.4747,1.6689 -0.0999,0.2713 -0.2071,0.5385 -0.3243,0.8033 -0.1138,0.2585 -0.2486,0.5337 -0.4175,0.771 -0.3344,0.4839 -0.7468,0.8916 -1.1473,1.2985 -0.4025,0.4058 -0.7975,0.8157 -1.1421,1.2662 -0.3487,0.4471 -0.6438,0.9368 -0.8641,1.4614 -0.1133,0.2611 -0.2029,0.5321 -0.2807,0.8062 -0.082,0.2736 -0.1361,0.5544 -0.1876,0.836z"/>
   </g>
  </g>
 </g>
</svg>
