<?xml version="1.0" encoding="UTF-8"?>
<!DOCTYPE svg PUBLIC "-//W3C//DTD SVG 1.1//EN" "http://www.w3.org/Graphics/SVG/1.1/DTD/svg11.dtd">
<!-- Creator: CorelDRAW -->
<svg xmlns="http://www.w3.org/2000/svg" xml:space="preserve" width="25mm" height="25mm" style="shape-rendering:geometricPrecision; text-rendering:geometricPrecision; image-rendering:optimizeQuality; fill-rule:evenodd; clip-rule:evenodd"
viewBox="0 0 25 25"
 xmlns:xlink="http://www.w3.org/1999/xlink">
 <defs>
  <style type="text/css">
   <![CDATA[
    .fil0 {fill:none}
    .fil1 {fill:white}
   ]]>
  </style>
 </defs>
 <g id="Слой_x0020_1">
  <metadata id="CorelCorpID_0Corel-Layer"/>
  <g id="_58068960">
   <rect id="_58193088" class="fil0" x="0.0286448" y="-0.0422545" width="25" height="25"/>
   <g>
    <path id="_58070856" class="fil1" d="M22.4482 14.0028l-7.2784 6.8885c-0.3215,0.3049 0.5908,1.6552 0.8002,2.0124l8.3198 -7.8941 -1.8416 -1.0068zm-4.1687 -11.813c0.4391,-0.5243 1.5053,0.2142 0.9899,0.8292l-6.2985 7.5181 5.1734 5.4545 3.2099 -3.0445c0.3998,-0.3793 0.8077,0.1211 1.0566,0.3835l-8.0246 7.6111c-0.2489,-0.2624 -0.7271,-0.6961 -0.3271,-1.0754l3.2098 -3.0445 -5.0779 -5.3537 -1.2146 1.4497c0.2289,0.2265 0.3629,0.4049 0.1362,0.6754 -0.0368,0.0439 -0.2706,0.0815 -0.3724,0.1093 -0.1929,1.7915 -0.4776,2.5932 -1.2958,4.4686 -0.5553,1.273 -0.9928,3.3054 -0.67,4.4134l-1.4264 0.2571 -0.125 -0.0906 1.4622 -4.7383 -2.3019 4.5124 -1.2131 -0.6518 3.4625 -5.8805 -3.6212 4.4211 -0.7809 0.891 -1.2373 -1.0367 1.1747 -1.4022 4.3514 -4.7747 -0.1223 -0.1055 0.0783 0.0896 -6.2225 5.4367c-1.585,-1.3324 -0.0304,-1.7589 0.9941,-2.4258 0.6215,-0.4044 2.3877,-1.6469 2.8605,-2.2111l-0.6752 0.4042 -4.3413 2.2936c-0.2202,-0.3233 -0.4665,-1.1806 -0.2227,-1.4716 0.0761,-0.0907 1.844,-0.4381 2.1678,-0.54 0.8371,-0.2635 1.2391,-0.6004 2.047,-1.0397 0.669,-0.3638 1.496,-0.9272 2.1015,-1.29 0.7269,-0.4354 1.352,-0.4805 2.0708,-0.7731 0.0467,-0.1831 0.0167,-0.1877 0.1938,-0.3991 0.209,-0.2495 0.2882,-0.1468 0.5373,0.0291l1.31 -1.5637 -6.8968 -7.2713c-0.4114,-0.4341 0.4618,-1.2662 1.0138,-0.6845l6.663 7.0248 6.203 -7.4041z"/>
   </g>
  </g>
 </g>
</svg>
