<?xml version="1.0" encoding="UTF-8"?>
<!DOCTYPE svg PUBLIC "-//W3C//DTD SVG 1.1//EN" "http://www.w3.org/Graphics/SVG/1.1/DTD/svg11.dtd">
<!-- Creator: CorelDRAW -->
<svg xmlns="http://www.w3.org/2000/svg" xml:space="preserve" width="25mm" height="25mm" style="shape-rendering:geometricPrecision; text-rendering:geometricPrecision; image-rendering:optimizeQuality; fill-rule:evenodd; clip-rule:evenodd"
viewBox="0 0 25 25"
 xmlns:xlink="http://www.w3.org/1999/xlink">
 <defs>
  <style type="text/css">
   <![CDATA[
    .fil0 {fill:none}
    .fil1 {fill:white}
   ]]>
  </style>
 </defs>
 <g id="Слой_x0020_1">
  <metadata id="CorelCorpID_0Corel-Layer"/>
  <g id="_58123472">
   <rect id="_58071648" class="fil0" x="-0.0179552" y="-0.0360545" width="25" height="25"/>
   <g>
    <path id="_58070328" class="fil1" d="M14.0974 6.8703l-8.4352 10.3991c-1.544,0.087 -2.8417,1.406 -2.8417,3.0092 0,1.6645 1.3499,3.0144 3.0143,3.0144 2.0972,0 3.1791,-1.857 2.9928,-3.374l8.4754 -10.4487c1.494,1.2127 6.4644,-3.3181 4.1001,-5.2367 -1.6548,2.0398 -2.6908,3.0585 -4.0658,1.7731 -1.6368,-1.5301 -0.612,-2.1943 1.0383,-4.2287 -2.3818,-1.932 -5.943,3.7426 -4.2782,5.0923z"/>
    <path id="_58071672" class="fil1" d="M18.2499 19.937c-0.1546,-0.5192 -0.6552,-2.6418 -0.8406,-3.411l0.9622 -1.6828 3.7859 2.1646 -2.2247 3.8911 -1.6828 -0.9619zm-18.2527 -13.2269l-0.0151 0.2703 0.8665 -0.1488 -0.0852 0.7351 0.8178 -0.1307 -0.0968 0.8221 0.9163 -0.1942 -0.0537 0.82c0.6248,-0.2258 0.7972,-0.3301 0.798,-0.1813 0.0016,0.289 -0.0279,0.194 -0.0526,0.7238 -0.0048,0.104 0.4627,-0.2469 0.8286,-0.141 0.2735,0.0791 0.0359,0.8974 0.0357,0.8975 -0.046,0.0461 0.1104,0.1207 0.1104,0.0888 0,-0.0002 0.0268,-0.0875 0.7671,-0.081l-0.0299 0.8029 0.4959 -0.1352 0.0148 0.7062 0.1052 0.06 0.7328 -0.1619 -0.0567 0.6881 0.2103 0.1202 0.6211 -0.1169 -0.1104 0.688 0.1051 0.0601 0.7061 -0.1487 -0.0301 0.6748 0.2105 0.1201 0.6475 -0.1036 -0.1368 0.6748c0.3714,0.2124 3.0978,2.3912 3.0044,2.5552l0.1757 0.1287 0.7478 -0.1954 -0.2025 0.7578 0.2104 0.1204 0.8014 -0.3028 -0.1503 0.7952 0.13 0.0938 0.7479 -0.3025 -0.1319 0.9336 0.1052 0.0603 0.7896 -0.3626 -0.2187 0.8284 0.3154 0.1806 0.4074 -0.1976 0.2085 0.8286 0.2704 0.0152 0.1202 -0.2103c-0.2629,-0.7662 -0.9965,-3.3316 -1.0958,-3.6966l2.4653 -4.3116 -15.1437 -8.6585 -1.8791 3.5306zm16.5545 14.4885l4.1015 2.345 0.6613 -0.1801 0.4809 -0.8412 -0.1951 -0.3908 2.4651 -4.3118 0.4357 -0.0298 0.4811 -0.8414c-0.037,-0.2067 -0.112,-0.4919 -0.1801,-0.6611l-7.2563 -4.1488 -2.3451 4.1012c0.3678,1.266 1.1051,3.9046 1.351,4.9588z"/>
   </g>
  </g>
 </g>
</svg>
