<?xml version="1.0" encoding="UTF-8"?>
<!DOCTYPE svg PUBLIC "-//W3C//DTD SVG 1.1//EN" "http://www.w3.org/Graphics/SVG/1.1/DTD/svg11.dtd">
<!-- Creator: CorelDRAW -->
<svg xmlns="http://www.w3.org/2000/svg" xml:space="preserve" width="25mm" height="25mm" style="shape-rendering:geometricPrecision; text-rendering:geometricPrecision; image-rendering:optimizeQuality; fill-rule:evenodd; clip-rule:evenodd"
viewBox="0 0 25 25"
 xmlns:xlink="http://www.w3.org/1999/xlink">
 <defs>
  <style type="text/css">
   <![CDATA[
    .fil0 {fill:none}
    .fil1 {fill:white}
   ]]>
  </style>
 </defs>
 <g id="Слой_x0020_1">
  <metadata id="CorelCorpID_0Corel-Layer"/>
  <g id="_58193664">
   <rect id="_58070808" class="fil0" x="-0.00985522" y="-0.0403545" width="25" height="25"/>
   <path id="_56273648" class="fil1" d="M5.6852 5.2035l13.5313 -0.0347c0.0205,-2.1941 0.2402,-3.0124 -0.4423,-3.0139l-0.5952 0 0 -0.3246c0,-0.1267 -0.0897,-0.2164 -0.2163,-0.2164l-1.6231 0 0 0.2164 1.4067 0c0.1246,0 0.1622,0.0376 0.1622,0.1623l0 0.1623 -2.3263 0 0 -0.3246 0.2705 0 0 -0.2164 -0.6492 0 0 0.2164 0.2164 0 0 0.3246 -2.3264 0 0 -0.1623c0,-0.1247 0.0376,-0.1623 0.1623,-0.1623l1.4067 0 0 -0.2164 -1.5149 0c-0.1461,0 -0.1492,0.0258 -0.2705,0.0541l0 0.4869 -0.8115 0 0 -0.3246c0,-0.1267 -0.0898,-0.2164 -0.2164,-0.2164l-1.6231 0 0 0.2164 1.569 0 0 0.3246 -2.2723 0 0 -0.3246 0.2164 0 0 -0.2164 -0.6492 0 0 0.2164 0.2164 0 0 0.3246 -2.2723 0 0 -0.3246 1.5149 0 0 -0.2164 -1.4608 0c-0.1661,0 -0.3246,0.0501 -0.3246,0.2164l0 0.3246 -0.7033 0c-0.1812,0.0089 -0.3777,0.085 -0.3817,0.3098 -0.0131,0.7269 -0.0207,2.2216 0.0066,2.7388zm0.2903 12.5366l12.9108 0c0.1673,0 0.3042,0.1369 0.3042,0.3042l0 4.9568c0,0.1673 -0.1369,0.3042 -0.3042,0.3042l-12.9108 0c-0.1674,0 -0.3042,-0.1369 -0.3042,-0.3042l0 -4.9568c0,-0.1673 0.1368,-0.3042 0.3042,-0.3042zm-0.3138 -0.3716l13.6569 0 0 -11.9547 -13.6569 0 0 11.9547zm0.9586 -11.048l1.2443 0 0.6294 0.5068 3.9962 0.0215 3.9962 -0.0215 0.6294 -0.5068 1.2443 0 -0.0332 0.624 -1.7328 0.592 -4.1039 0.0413 -4.104 -0.0413 -1.7327 -0.592 -0.0332 -0.624zm1.6264 2.7088l8.4869 0 0 6.4709 -8.4869 0 0 -6.4709zm7.1504 -5.8947c0.3326,0 0.6024,0.2674 0.6024,0.5971 0,0.3296 -0.2698,0.597 -0.6024,0.597 -0.3327,0 -0.6025,-0.2674 -0.6025,-0.597 0,-0.3297 0.2698,-0.5971 0.6025,-0.5971zm-2.8522 0.0054c0.3386,0 0.6132,0.2649 0.6132,0.5917 0,0.3267 -0.2746,0.5916 -0.6132,0.5916 -0.3386,0 -0.6132,-0.2649 -0.6132,-0.5916 0,-0.3268 0.2746,-0.5917 0.6132,-0.5917zm1.3976 -0.0054c0.3326,0 0.6024,0.2674 0.6024,0.5971 0,0.3296 -0.2698,0.597 -0.6024,0.597 -0.3327,0 -0.6025,-0.2674 -0.6025,-0.597 0,-0.3297 0.2698,-0.5971 0.6025,-0.5971zm3.0375 -0.0072c0.3649,0 0.6607,0.2855 0.6607,0.6375 0,0.3521 -0.2958,0.6376 -0.6607,0.6376 -0.3649,0 -0.6607,-0.2855 -0.6607,-0.6376 0,-0.352 0.2958,-0.6375 0.6607,-0.6375zm-7.8672 -0.039c0.3463,0 0.6271,0.271 0.6271,0.6052 0,0.3341 -0.2808,0.605 -0.6271,0.605 -0.3462,0 -0.6271,-0.2709 -0.6271,-0.605 0,-0.3342 0.2809,-0.6052 0.6271,-0.6052z"/>
  </g>
 </g>
</svg>
