<?xml version="1.0" encoding="UTF-8"?>
<!DOCTYPE svg PUBLIC "-//W3C//DTD SVG 1.1//EN" "http://www.w3.org/Graphics/SVG/1.1/DTD/svg11.dtd">
<!-- Creator: CorelDRAW -->
<svg xmlns="http://www.w3.org/2000/svg" xml:space="preserve" width="25mm" height="25mm" style="shape-rendering:geometricPrecision; text-rendering:geometricPrecision; image-rendering:optimizeQuality; fill-rule:evenodd; clip-rule:evenodd"
viewBox="0 0 25 25"
 xmlns:xlink="http://www.w3.org/1999/xlink">
 <defs>
  <style type="text/css">
   <![CDATA[
    .fil0 {fill:none}
    .fil1 {fill:white}
   ]]>
  </style>
 </defs>
 <g id="Слой_x0020_1">
  <metadata id="CorelCorpID_0Corel-Layer"/>
  <g id="_58123880">
   <rect id="_58194504" class="fil0" x="-0.0286552" y="-0.0529545" width="25" height="25"/>
   <g>
    <path id="_58193304" class="fil1" d="M16.7011 22.537l0 0c-1.0084,0.2698 -2.0721,0.5331 -3.1124,0.7969 -1.0827,0.275 -2.0747,0.4649 -3.1416,0.7682 -0.6794,0.1933 -2.5336,0.7145 -3.1817,0.7134l-2.0451 -19.6896 0.1443 -0.194c0,-1.3247 0.1793,-1.8677 1.2845,-2.086 0.5366,-0.1062 2.8277,-0.1881 2.8277,-0.6103l0 -0.1349c0,-0.355 -0.3371,-0.6706 -0.3371,-1.2807 0,-0.4289 1.1039,-0.7415 1.6178,-0.7415 1.5613,0 0.3165,1.82 1.0785,1.82l0.0673 0c0.6892,0 1.5194,-0.6066 2.6288,-0.6066l0.1347 0c1.429,0 1.5204,3.24 1.897,4.4393 0.1918,0.6107 0.3925,1.9573 0.5251,2.6429 0.1691,0.8747 0.3603,1.7943 0.5291,2.6391 0.3521,1.7608 0.6614,3.6002 1.081,5.2553 0.2145,0.8468 0.3408,1.7794 0.4955,2.6725 0.1086,0.628 0.5278,2.1094 0.5278,2.7076 0,0.2856 -1.1653,0.4258 -1.456,0.4986 -0.5518,0.138 -1.0253,0.2455 -1.5652,0.3898z"/>
    <polygon id="_58193088" class="fil1" points="15.0204,5.5698 15.0204,5.5698 15.0142,5.5667 15.0202,5.563 "/>
    <polygon id="_58194096" class="fil1" points="5.8366,6.4821 5.8366,6.4821 5.6344,6.5497 5.6344,6.2799 5.5668,5.6733 5.5644,5.1893 15.7835,3.0501 16.0124,4.38 "/>
    <path id="_58193784" class="fil1" d="M7.1173 9.4482l0 0 -0.2695 0.0673 0 -0.2022 -0.4053 -2.7667 9.0048 -1.8114 3.0572 15.6819 -9.5571 2.3085 -1.156 -7.4806c0.4982,-0.0415 6.2688,-1.0624 6.2688,-1.2808 0,-0.3522 -4.8755,0.9603 -6.3114,1.0746l-0.4293 -2.6921c0.9761,-0.0813 2.1941,-0.4066 3.1155,-0.592 0.3828,-0.0771 3.0861,-0.5261 3.0861,-0.6887 0,-0.2309 -5.761,1.0977 -6.1546,1.0487 -0.1936,-0.0241 -0.3838,-1.7787 -0.3838,-2.1273l0 -0.2697c0.4871,-0.0406 6.1338,-1.0739 6.1338,-1.3481 0,-0.2359 -5.1056,1.0587 -5.9992,1.0786z"/>
    <path id="_58194600" class="fil1" d="M13.6779 8.2271c-0.4077,-0.2007 -1.1004,-0.9501 -1.1004,-0.9914 0,-0.0013 0.5953,-0.4662 0.6869,-0.4631 0.162,0.0053 0.2426,0.7024 0.3605,0.7024 0.3214,0 0.8141,-1.9491 1.3955,-1.9363 0.0145,0 0.2123,0.8955 0.1092,1.0132 -0.1805,-0.047 -1.3193,1.2869 -1.4517,1.6752z"/>
    <path id="_58194576" class="fil1" d="M14.3579 10.9997c-0.4077,-0.2006 -1.1003,-0.95 -1.1003,-0.9913 0,-0.0013 0.5953,-0.4662 0.6869,-0.4631 0.162,0.0053 0.2426,0.7024 0.3605,0.7024 0.3214,0 0.8141,-1.9491 1.3955,-1.9363 0.0145,0 0.2123,0.8955 0.1092,1.0132 -0.1805,-0.0471 -1.3193,1.2869 -1.4518,1.6751z"/>
    <path id="_58194936" class="fil1" d="M14.9857 14.034c-0.4077,-0.2006 -1.1004,-0.9501 -1.1004,-0.9913 0,-0.0014 0.5954,-0.4662 0.687,-0.4631 0.162,0.0053 0.2426,0.7023 0.3604,0.7023 0.3214,0 0.8141,-1.9491 1.3956,-1.9363 0.0145,0 0.2123,0.8956 0.1092,1.0132 -0.1805,-0.047 -1.3193,1.2869 -1.4518,1.6752z"/>
   </g>
  </g>
 </g>
</svg>
