<?xml version="1.0" encoding="UTF-8"?>
<!DOCTYPE svg PUBLIC "-//W3C//DTD SVG 1.1//EN" "http://www.w3.org/Graphics/SVG/1.1/DTD/svg11.dtd">
<!-- Creator: CorelDRAW -->
<svg xmlns="http://www.w3.org/2000/svg" xml:space="preserve" width="25mm" height="25mm" style="shape-rendering:geometricPrecision; text-rendering:geometricPrecision; image-rendering:optimizeQuality; fill-rule:evenodd; clip-rule:evenodd"
viewBox="0 0 25 25"
 xmlns:xlink="http://www.w3.org/1999/xlink">
 <defs>
  <style type="text/css">
   <![CDATA[
    .fil0 {fill:none}
    .fil1 {fill:white}
   ]]>
  </style>
 </defs>
 <g id="Слой_x0020_1">
  <metadata id="CorelCorpID_0Corel-Layer"/>
  <g id="_58194096">
   <rect id="_58122656" class="fil0" x="-0.011132" y="-0.0426388" width="25" height="25"/>
   <g>
    <path id="_58070352" class="fil1" d="M7.7035 18.2632l0.4554 0 0 0.6831c0,0.7308 0.6334,1.0775 1.3661,1.1384l0 -17.7593c-0.7327,0.0609 -1.3661,0.4076 -1.3661,1.1384l0 0.6831 -0.4554 0 0 -0.6831c0,-0.7308 -0.6332,-1.0775 -1.3658,-1.1384l0 17.7593c0.7326,-0.0609 1.3658,-0.4076 1.3658,-1.1384l0 -0.6831z"/>
    <path id="_56270088" class="fil1" d="M16.5833 18.2632l0.683 0 0 0.6831c0,0.6985 0.5618,0.9845 1.1385,1.1384l0 -17.7593c-0.6791,0.0565 -1.1385,0.1636 -1.1385,0.9108l0 0.9107 -0.683 0 0 -0.9107c0,-0.7472 -0.4593,-0.8543 -1.1384,-0.9108l0 17.7593c0.5785,-0.1347 1.1384,-0.1901 1.1384,-0.9107l0 -0.9108z"/>
    <path id="_58193928" class="fil1" d="M12.2572 6.6515l0.4554 0 0 8.8795 -0.683 0 0 -12.2948c0,-0.7472 -0.4594,-0.8543 -1.1385,-0.9108l0 17.7593c0.6791,-0.0565 1.1385,-0.1636 1.1385,-0.9107l0 -0.9108 0.683 0 0 0.6831c0,0.7308 0.6332,1.0775 1.3661,1.1384l0 -17.7593c-1.3556,0.0302 -1.3661,0.4811 -1.3661,1.8215l-0.4554 0 0 2.5046z"/>
    <path id="_58194528" class="fil1" d="M22.5031 17.5802c0.5329,0 0.9105,-0.3777 0.9105,-0.9108l0 -8.4241c0,-0.6999 -0.6668,-0.9108 -1.3658,-0.9108l-0.6831 0 0 10.2457 1.1384 0z"/>
    <path id="_58194624" class="fil1" d="M19.9986 20.0847c0.5034,-0.1489 0.9107,-0.1983 0.9107,-0.9107l0 -16.1655c0,-0.6883 -0.2681,-0.6295 -0.9107,-0.6831l0 17.7593z"/>
    <path id="_58122440" class="fil1" d="M22.9585 6.4238c0.5329,0 0.9105,-0.3779 0.9105,-0.9108l0 -0.2277c0,-0.6998 -0.6668,-0.9107 -1.3659,-0.9107 -0.4713,0 0.0872,0.3535 -1.1384,0.4554l0 1.1384c1.3409,0.1116 0.4748,0.4554 1.3661,0.4554l0.2277 0z"/>
    <path id="_58123544" class="fil1" d="M7.9002 20.8387c-1.15,0 -1.5686,0.4561 -1.5938,1.5938l2.9599 0c-0.0656,-0.7866 -0.5817,-1.5938 -1.3661,-1.5938z"/>
    <path id="_58193328" class="fil1" d="M17.0387 20.9955c-1.0523,0 -1.5077,0.5575 -1.5938,1.5938l2.9599 0c-0.0767,-0.9223 -0.4134,-1.5938 -1.3661,-1.5938z"/>
    <path id="_58194960" class="fil1" d="M2.4746 17.7952c-0.5329,0 -0.9105,-0.3776 -0.9105,-0.9107l0 -8.4242c0,-0.6998 0.6668,-0.9107 1.3659,-0.9107l0.683 0 0 10.2456 -1.1384 0z"/>
    <path id="_58194672" class="fil1" d="M4.9791 20.2998c-0.5034,-0.1489 -0.9107,-0.1983 -0.9107,-0.9108l0 -16.1655c0,-0.6883 0.2681,-0.6294 0.9107,-0.683l0 17.7593z"/>
    <path id="_58194936" class="fil1" d="M2.0192 6.6389c-0.5328,0 -0.9105,-0.378 -0.9105,-0.9108l0 -0.2277c0,-0.6999 0.6668,-0.9107 1.3659,-0.9107 0.4714,0 -0.0872,0.3534 1.1384,0.4553l0 1.1385c-1.3409,0.1116 -0.4748,0.4554 -1.3661,0.4554l-0.2277 0z"/>
   </g>
  </g>
 </g>
</svg>
