<?xml version="1.0" encoding="UTF-8"?>
<!DOCTYPE svg PUBLIC "-//W3C//DTD SVG 1.1//EN" "http://www.w3.org/Graphics/SVG/1.1/DTD/svg11.dtd">
<!-- Creator: CorelDRAW -->
<svg xmlns="http://www.w3.org/2000/svg" xml:space="preserve" width="25mm" height="25mm" style="shape-rendering:geometricPrecision; text-rendering:geometricPrecision; image-rendering:optimizeQuality; fill-rule:evenodd; clip-rule:evenodd"
viewBox="0 0 25 25"
 xmlns:xlink="http://www.w3.org/1999/xlink">
 <defs>
  <style type="text/css">
   <![CDATA[
    .fil0 {fill:none}
    .fil1 {fill:white}
   ]]>
  </style>
 </defs>
 <g id="Слой_x0020_1">
  <metadata id="CorelCorpID_0Corel-Layer"/>
  <g id="_58070016">
   <rect id="_58123880" class="fil0" x="0.00514478" y="-0.0798545" width="25" height="25"/>
   <g>
    <path id="_58194504" class="fil1" d="M11.5189 4.3551c0.9592,-0.6396 4.9309,-0.1908 4.9309,-1.6437 0,-1.2084 -5.424,-2.0776 -5.424,-1.1506 0,0.9107 1.2048,0.9862 2.1366,0.9862 -0.919,0.5832 -4.602,0.1978 -4.602,1.4793l0 0.3288c0,1.3424 3.9379,0.7591 4.7665,1.4793 -1.3021,0 -4.7665,0.2133 -4.7665,1.3148 0,1.4884 3.8263,1.4793 4.7665,1.4793 -0.8858,0.6154 -4.7665,0.226 -4.7665,1.4793l0 0.3286c0,1.0178 2.3433,1.2593 3.2872,1.4793l0 1.9724 -2.6299 0 0 2.7941c0,0.6802 1.0706,1.9723 1.6437,1.9723l3.2872 0c0.6135,0 1.6437,-1.4039 1.6437,-2.1366l0 -2.6298 -2.6299 0 0 -1.808c0,-1.5136 -1.5085,-1.1191 -2.301,-1.8081 1.4707,0 5.5884,-0.2409 5.5884,-1.4793 0,-0.3475 -0.0588,-0.2166 -0.1644,-0.6573l-4.7519 -0.9116c-0.0315,-0.1617 4.9163,0.1984 4.9163,-1.7183 0,-1.1271 -3.9959,-1.1504 -4.9309,-1.1504z"/>
    <path id="_58194216" class="fil1" d="M14.1486 20.4624l-3.2872 0c-0.3787,0 -0.4931,0.1146 -0.4931,0.4931 0,0.3788 0.1144,0.4931 0.4931,0.4931l3.2872 0c0.3788,0 0.4931,-0.1143 0.4931,-0.4931 0,-0.3785 -0.1143,-0.4931 -0.4931,-0.4931z"/>
    <path id="_58193304" class="fil1" d="M11.5189 22.8459c0.2004,0.3812 0.2637,0.8217 0.9862,0.8217 0.564,0 0.8592,-0.3465 0.9862,-0.8217l-1.9724 0z"/>
    <path id="_58193088" class="fil1" d="M14.2536 21.7225l-3.2872 0c-0.3788,0 -0.4931,0.1145 -0.4931,0.4931 0,0.3787 0.1143,0.4931 0.4931,0.4931l3.2872 0c0.3787,0 0.4931,-0.1144 0.4931,-0.4931 0,-0.3786 -0.1144,-0.4931 -0.4931,-0.4931z"/>
    <path id="_58068480" class="fil1" d="M14.1752 18.9712l-3.2872 0c-0.3788,0 -0.4931,0.1145 -0.4931,0.4931 0,0.3787 0.1143,0.4931 0.4931,0.4931l3.2872 0c0.3787,0 0.4931,-0.1144 0.4931,-0.4931 0,-0.3786 -0.1144,-0.4931 -0.4931,-0.4931z"/>
   </g>
  </g>
 </g>
</svg>
