<?xml version="1.0" encoding="UTF-8"?>
<!DOCTYPE svg PUBLIC "-//W3C//DTD SVG 1.1//EN" "http://www.w3.org/Graphics/SVG/1.1/DTD/svg11.dtd">
<!-- Creator: CorelDRAW -->
<svg xmlns="http://www.w3.org/2000/svg" xml:space="preserve" width="25mm" height="25mm" style="shape-rendering:geometricPrecision; text-rendering:geometricPrecision; image-rendering:optimizeQuality; fill-rule:evenodd; clip-rule:evenodd"
viewBox="0 0 25 25"
 xmlns:xlink="http://www.w3.org/1999/xlink">
 <defs>
  <style type="text/css">
   <![CDATA[
    .fil0 {fill:none}
    .fil1 {fill:white}
   ]]>
  </style>
 </defs>
 <g id="Слой_x0020_1">
  <metadata id="CorelCorpID_0Corel-Layer"/>
  <g id="_58070112">
   <rect id="_58069776" class="fil0" x="0.0187448" y="-0.0207545" width="25" height="25"/>
   <g>
    <path id="_58069920" class="fil1" d="M4.0584 22.1808l0 0 0.07 -0.4897 -0.6297 -15.1095c-0.6592,0.1536 -2.0984,0.6743 -2.0984,1.3991 0,2.1387 0.7486,5.2549 1.1481,7.246 0.2145,1.0693 0.4528,2.457 0.7499,3.447 0.1145,0.3809 0.7536,3.215 0.7601,3.5071z"/>
    <polygon id="_58068960" class="fil1" points="3.7816,6.6082 3.7816,6.6082 5.1103,6.464 4.4139,21.2017 4.3383,21.2016 3.7603,6.7921 "/>
    <polygon id="_58069824" class="fil1" points="6.297,4.8329 6.297,4.8329 4.6632,22.4583 4.6179,22.4606 5.452,5.4622 5.4575,4.553 6.297,4.553 "/>
    <path id="_58069080" class="fil1" d="M5.3876 17.7738l0 0 1.2944 -14.4066 15.7657 -2.5714 0.008 5.646c-0.7337,0.0443 -2.1419,0.5225 -2.8542,0.7134 -0.9558,0.2399 -1.9061,0.459 -2.8679,0.6996 -1.88,0.4701 -3.8131,0.8994 -5.6946,1.3705 -0.9473,0.2372 -1.9205,0.4621 -2.8672,0.7002 -1.596,0.4007 -1.6051,0.0277 -1.8028,1.6948 -0.1201,1.0138 -0.2883,2.0702 -0.4633,3.1043 -0.1218,0.7197 -0.4482,2.4152 -0.4482,3.0492l-0.0699 0z"/>
    <polygon id="_58069128" class="fil1" points="6.7135,10.4861 4.6876,24.1291 4.7674,24.1624 22.5728,16.7921 23.6371,6.3404 "/>
    <polygon id="_58069800" class="fil1" points="15.4764,12.5917 15.4764,12.5917 16.457,12.2372 15.8593,17.0645 14.8787,17.419 "/>
    <path id="_58068480" class="fil1" d="M15.9758 10.6819l0 0c0.4147,-0.1118 0.7476,0.0852 0.743,0.4399 -0.0045,0.3547 -0.3447,0.7331 -0.7594,0.8448 -0.415,0.1118 -0.7476,-0.0853 -0.7431,-0.44 0.0046,-0.3547 0.3445,-0.7329 0.7595,-0.8447z"/>
   </g>
  </g>
 </g>
</svg>
