<?xml version="1.0" encoding="UTF-8"?>
<!DOCTYPE svg PUBLIC "-//W3C//DTD SVG 1.1//EN" "http://www.w3.org/Graphics/SVG/1.1/DTD/svg11.dtd">
<!-- Creator: CorelDRAW -->
<svg xmlns="http://www.w3.org/2000/svg" xml:space="preserve" width="25mm" height="25mm" style="shape-rendering:geometricPrecision; text-rendering:geometricPrecision; image-rendering:optimizeQuality; fill-rule:evenodd; clip-rule:evenodd"
viewBox="0 0 25 25"
 xmlns:xlink="http://www.w3.org/1999/xlink">
 <defs>
  <style type="text/css">
   <![CDATA[
    .fil0 {fill:none}
    .fil1 {fill:white}
   ]]>
  </style>
 </defs>
 <g id="Слой_x0020_1">
  <metadata id="CorelCorpID_0Corel-Layer"/>
  <g id="_58071408">
   <rect id="_58070976" class="fil0" x="0.0486448" y="0.00804553" width="25" height="25"/>
   <g>
    <path id="_58070208" class="fil1" d="M6.0655 19.8082l12.3301 0.3279c0.842,0 1.4941,-0.3952 1.4165,-1.0491l-0.0773 -0.8527c-0.1493,-1.2066 -1.1724,-0.7513 -1.1724,-1.901l-0.0902 -4.2613c-0.0607,-0.8895 -0.8316,-1.2913 -1.9928,-1.3118 -0.3188,-0.3747 -0.3865,-0.8171 -0.7795,-1.0255 -1.3371,-0.3602 -3.2019,-0.3571 -4.5522,-0.2829 -1.902,0.1026 -1.0993,0.5132 -2.0634,0.9961 -0.9001,0.451 -1.6381,-0.1009 -1.7692,1.2302l-0.3332 4.7207c0,1.085 -1.2497,0.8276 -1.2497,1.5738 -0.0219,0.3122 -0.0807,1.8157 0.3333,1.8356z"/>
    <path id="_58071216" class="fil1" d="M12.1472 16.7924c-1.5525,0 -3.4158,-0.8823 -3.4158,-2.6882 0,-1.8855 1.7855,-3.2784 4.1658,-3.2784 1.425,0 3.9155,0.9028 3.9155,2.6883 0,2.7683 -2.4994,3.2783 -4.6655,3.2783z"/>
    <path id="_58070040" class="fil1" d="M3.4593 12.1574c0.9406,-0.0495 1.786,-0.502 2.6268,-0.8854 0.6949,-0.3169 1.4303,-0.7855 1.4303,-1.6989 0,-0.6709 -0.8583,-0.724 -0.8583,-1.2204 0,-0.4587 0.8429,-1.249 1.4828,-1.2289l9.206 0.1521c0.5585,0.0088 1.4823,0.522 1.4823,0.9332 0,0.8733 -0.7802,1.3967 -0.7802,1.8665 0,0.9617 0.8413,1.1314 1.5702,1.3549 0.4722,0.1449 1.9027,0.5833 2.4088,0.5833 1.4299,0 1.7164,-2.3675 1.7164,-3.3739 0,-1.4866 -2.4639,-2.1498 -3.7747,-2.5567 -5.3153,-1.6502 -9.6911,-1.6502 -14.92,0.2872 -0.8045,0.2979 -3.6969,1.4502 -3.6969,2.1976 0,1.0319 0.9468,3.6504 2.1065,3.5894z"/>
    <polygon id="_58071504" class="fil1" points="1.5868,9.7167 1.6649,9.7167 1.5868,9.5731 1.5089,9.5731 "/>
   </g>
  </g>
 </g>
</svg>
