<?xml version="1.0" encoding="UTF-8"?>
<!DOCTYPE svg PUBLIC "-//W3C//DTD SVG 1.1//EN" "http://www.w3.org/Graphics/SVG/1.1/DTD/svg11.dtd">
<!-- Creator: CorelDRAW -->
<svg xmlns="http://www.w3.org/2000/svg" xml:space="preserve" width="25mm" height="25mm" style="shape-rendering:geometricPrecision; text-rendering:geometricPrecision; image-rendering:optimizeQuality; fill-rule:evenodd; clip-rule:evenodd"
viewBox="0 0 25 25"
 xmlns:xlink="http://www.w3.org/1999/xlink">
 <defs>
  <style type="text/css">
   <![CDATA[
    .fil0 {fill:none}
    .fil1 {fill:white}
   ]]>
  </style>
 </defs>
 <g id="Слой_x0020_1">
  <metadata id="CorelCorpID_0Corel-Layer"/>
  <g id="_58123232">
   <rect id="_58122464" class="fil0" x="-0.0135456" y="-0.0341545" width="25" height="25"/>
   <g>
    <path id="_58122896" class="fil1" d="M0.5377 12.417l23.8976 0.1017 -12.2116 -8.3602 -11.686 8.2585zm1.9942 0.4365l19.4945 0 0 7.9196 -6.9228 0 0 -4.2645 -3.3784 0 0 4.2645 -9.1933 0 0 -7.9196zm13.7901 1.8829l0 3.8768 3.5999 0 0 -3.8768 -3.5999 0zm-7.9196 -0.1107l0 2.2707 1.7722 0 0 -2.2707 -1.7722 0zm-3.8768 0.1107l0 3.3784 2.6029 0 0 -3.3784 -2.6029 0zm7.8642 -7.0334c0.7198,0 1.3569,0.5618 1.3569,1.3014 0,0.7187 -0.6076,1.3015 -1.3569,1.3015 -0.7493,0 -1.3567,-0.5828 -1.3567,-1.3015 0,-0.7187 0.6074,-1.3014 1.3567,-1.3014z"/>
   </g>
  </g>
 </g>
</svg>
