<?xml version="1.0" encoding="UTF-8"?>
<!DOCTYPE svg PUBLIC "-//W3C//DTD SVG 1.1//EN" "http://www.w3.org/Graphics/SVG/1.1/DTD/svg11.dtd">
<!-- Creator: CorelDRAW -->
<svg xmlns="http://www.w3.org/2000/svg" xml:space="preserve" width="25mm" height="25mm" style="shape-rendering:geometricPrecision; text-rendering:geometricPrecision; image-rendering:optimizeQuality; fill-rule:evenodd; clip-rule:evenodd"
viewBox="0 0 25 25"
 xmlns:xlink="http://www.w3.org/1999/xlink">
 <defs>
  <style type="text/css">
   <![CDATA[
    .fil0 {fill:none}
    .fil1 {fill:white}
   ]]>
  </style>
 </defs>
 <g id="Слой_x0020_1">
  <metadata id="CorelCorpID_0Corel-Layer"/>
  <g id="_57445344">
   <rect id="_56270088" class="fil0" x="0.0507448" y="0.0416455" width="25" height="25"/>
   <path id="_56273648" class="fil1" d="M1.6631 17.8862l0.1391 0.1392 0 -2.0864 3.4774 0c0.4023,-0.1651 0.4103,-0.1182 0.5564,-0.5565l-4.0338 0 0 -3.3383 4.0338 0 0 -3.8947c0.5254,-0.1224 0.8701,-0.2782 1.53,-0.2782l1.8083 0c0.9001,0 2.0488,0.9737 3.0602,0.9737l0.1313 -0.4202c-0.4592,-0.6943 -2.4073,-1.388 -3.6087,-1.388l-2.3647 0c-1.0996,0 -4.7293,1.5259 -4.7293,2.3646l0 6.1203 0.2781 0 0 0.2782 -0.2781 0 0 2.0863zm17.9435 -4.8684l0 0c0,0.3206 0.0967,0.4174 0.4173,0.4174l1.9472 0 0 -1.8082 -1.9472 0c-0.3206,0 -0.4173,0.0966 -0.4173,0.4172l0 0.9736zm-13.919 2.2419l0 0 -3.737 0 0 -3.0928 3.737 0 0 3.0928zm-3.8408 2.9603l0 0 0.0107 -2.2443 3.8653 0c0.007,0.6134 -0.0117,1.3421 0.0369,2.3122 -1.3574,0 -2.5744,-0.064 -3.9129,-0.0679zm5.102 -0.3338l-0.9737 0.4173 0.0248 -2.4539 4.1481 -1.9972 5.2856 -2.7819c1.3483,-0.7134 2.7793,-1.2519 4.8684,-1.2519l0.2782 0 1.6691 0c0.2165,0.1451 0.4174,0.1845 0.4174,0.5565 0,0.3119 -0.1102,0.3053 -0.2782,0.5563l-2.3646 0.1391c-3.286,0.2051 -5.7166,2.4299 -8.485,3.8948l-4.5901 2.9209z"/>
  </g>
 </g>
</svg>
