<?xml version="1.0" encoding="UTF-8"?>
<!DOCTYPE svg PUBLIC "-//W3C//DTD SVG 1.1//EN" "http://www.w3.org/Graphics/SVG/1.1/DTD/svg11.dtd">
<!-- Creator: CorelDRAW -->
<svg xmlns="http://www.w3.org/2000/svg" xml:space="preserve" width="25mm" height="25mm" style="shape-rendering:geometricPrecision; text-rendering:geometricPrecision; image-rendering:optimizeQuality; fill-rule:evenodd; clip-rule:evenodd"
viewBox="0 0 25 25"
 xmlns:xlink="http://www.w3.org/1999/xlink">
 <defs>
  <style type="text/css">
   <![CDATA[
    .fil0 {fill:none}
    .fil1 {fill:white}
   ]]>
  </style>
 </defs>
 <g id="Слой_x0020_1">
  <metadata id="CorelCorpID_0Corel-Layer"/>
  <g id="_58194096">
   <rect id="_58585952" class="fil0" x="0.0202448" y="-0.0299545" width="25" height="25"/>
   <g>
    <g>
     <path id="_58586744" class="fil1" d="M14.5013 10.5137c0,-0.5366 -0.4408,-0.9718 -0.9843,-0.9718 -0.5435,0 -0.9844,0.4352 -0.9844,0.9718 0,0.5368 0.4409,0.9719 0.9844,0.9719 0.5435,0 0.9843,-0.4351 0.9843,-0.9719zm-13.4943 10.9401l0 0 10.8154 -18.9395 1.4206 0 10.7903 19.0392 -0.7225 0.8722 -21.7307 0 -0.5731 -0.9719zm2.6165 -1.0717l0 0 8.9216 -15.0767 8.7222 15.0518 -17.6438 0.0249zm7.5989 -4.4574l0 0 -1.2471 -0.7982 0.1994 1.4966 -1.6961 2.2449 0.3992 0.6485 0.4988 -0.1497 1.6961 -2.2947 0.1497 -1.1474zm-1.2441 -1.698l0 0 -1.3208 -0.872 -0.0248 -0.5233 0.6229 -0.8972 0.5732 -0.8722 1.4702 0 0.9969 -0.0249 0.3987 0.4985 0.4985 1.2459 0.4984 2.1182 0.2491 0.9221 2.492 1.4952 1.3956 -1.3207 2.218 3.6882 -5.9559 0 0.0248 -0.5731 0.5233 -0.7727 0.947 -0.1993 0.4984 -0.2991 0.0498 -0.1245 -2.5668 -1.3956 0.0498 2.816 -0.299 0.4486 -0.299 0.0249 -0.4237 -0.4237 0.0251 -2.7661 -2.7165 -1.6946 0.0748 -0.4986zm1.6946 0.3242l0 0 1.2959 0.7476 -0.5732 -1.894 -0.7227 1.1464zm-0.3987 -2.7163l0 0 -0.9969 0 -0.7973 1.3954 0.8222 0.5732 0.5981 -0.9969 0.3739 -0.9717z"/>
    </g>
   </g>
  </g>
 </g>
</svg>
