<?xml version="1.0" encoding="UTF-8"?>
<!DOCTYPE svg PUBLIC "-//W3C//DTD SVG 1.1//EN" "http://www.w3.org/Graphics/SVG/1.1/DTD/svg11.dtd">
<!-- Creator: CorelDRAW -->
<svg xmlns="http://www.w3.org/2000/svg" xml:space="preserve" width="25mm" height="25mm" style="shape-rendering:geometricPrecision; text-rendering:geometricPrecision; image-rendering:optimizeQuality; fill-rule:evenodd; clip-rule:evenodd"
viewBox="0 0 25 25"
 xmlns:xlink="http://www.w3.org/1999/xlink">
 <defs>
  <style type="text/css">
   <![CDATA[
    .fil0 {fill:none}
    .fil1 {fill:white}
   ]]>
  </style>
 </defs>
 <g id="Слой_x0020_1">
  <metadata id="CorelCorpID_0Corel-Layer"/>
  <g id="_58070016">
   <rect id="_58122440" class="fil0" x="-0.0195552" y="0.0255455" width="25" height="25"/>
   <g>
    <path id="_58194624" class="fil1" d="M8.6994 19.4739c-0.0839,-0.104 -0.2612,-0.376 -0.2612,-0.6016 0,-0.1802 0.1439,-0.0739 0.2663,-0.5326l0.6384 0.332 -0.2227 -0.8294 0.6519 -0.2969c0.0705,0.1326 0.5305,0.871 0.5305,0.9275 0,0.2204 -0.3021,0.748 -0.3996,0.9321l-1.2036 0.0689zm8.8145 -17.2483l0 0c1.3334,0 2.4149,1.0566 2.4149,2.3593 0,1.3029 -1.0815,2.3595 -2.4149,2.3595 -1.3335,0 -2.4148,-1.0566 -2.4148,-2.3595 0,-1.3027 1.0813,-2.3593 2.4148,-2.3593zm-3.5569 8.8904l0 0 0.0048 11.7093 2.5435 0 0 -5.5954 1.526 0 0 5.5954 2.2891 0 0 -12.9713c0,-1.2571 -1.032,-2.289 -2.2891,-2.289l-1.7804 0c-1.4448,0 -5.6688,3.1049 -7.3757,3.5607l0.8278 2.1617 4.254 -2.1714zm-7.9159 7.6232l0 0c0,-0.5503 0.4882,-0.5283 0.2663,-1.0654l0.799 0 0.3013 0.6471 -0.501 0.3517 0.7324 0.0666 0 0.799 -0.9322 0c-0.3778,0 -0.6658,-0.4596 -0.6658,-0.799zm0.9321 -1.9976l0 0c0.0816,-0.3055 0.4209,-1.0654 0.7991,-1.0654l0.5327 0c0.5855,0 0.2698,0.5593 0.9323,0.7991l-0.3018 0.6496 -0.7635 0.0162 0.1238 -0.0572 -0.2496 -0.5405 -0.1407 0.065c-0.0793,0.2968 -0.0311,0.3995 -0.3995,0.3995 -0.1804,0 -0.074,-0.1439 -0.5328,-0.2663zm-0.5327 5.4601l0 0 3.4625 0c1.2929,0 1.1414,-2.3225 1.3005,-3.3608 0.183,-1.1947 0.4309,-3.0251 0.4309,-4.2301 0,-0.3117 -0.2211,-0.5327 -0.5328,-0.5327l-5.9928 0c-0.9164,0 -0.2332,3.3081 -0.0804,4.2088 0.2446,1.4405 -0.0235,3.9148 1.4121,3.9148z"/>
   </g>
  </g>
 </g>
</svg>
