<?xml version="1.0" encoding="UTF-8"?>
<!DOCTYPE svg PUBLIC "-//W3C//DTD SVG 1.1//EN" "http://www.w3.org/Graphics/SVG/1.1/DTD/svg11.dtd">
<!-- Creator: CorelDRAW -->
<svg xmlns="http://www.w3.org/2000/svg" xml:space="preserve" width="25mm" height="25mm" style="shape-rendering:geometricPrecision; text-rendering:geometricPrecision; image-rendering:optimizeQuality; fill-rule:evenodd; clip-rule:evenodd"
viewBox="0 0 25 25"
 xmlns:xlink="http://www.w3.org/1999/xlink">
 <defs>
  <style type="text/css">
   <![CDATA[
    .fil0 {fill:none}
    .fil1 {fill:white}
   ]]>
  </style>
 </defs>
 <g id="Слой_x0020_1">
  <metadata id="CorelCorpID_0Corel-Layer"/>
  <g id="_58586000">
   <rect id="_58123880" class="fil0" x="0.0576448" y="0.00414553" width="25" height="25"/>
   <path id="_58069800" class="fil1" d="M15.6987 15.0872c-1.2135,0.7769 -1.2239,1.2921 -2.68,1.9696 -1.3214,0.5547 -3.1115,0.7857 -4.5528,0.7857 -2.9146,0 -6.2909,-0.6717 -6.3717,-4.3053l20.6652 0c0,2.1902 -0.0032,1.5244 -2.7554,1.55 -2.5857,0 -2.8702,0 -4.3053,0zm7.3224 -12.0547l-5.5178 0 0 9.6916 5.5178 0 0 -9.6916zm-2.8003 14.6315l-2.2472 0 0 3.1664 2.2472 0 0 -3.1664zm0.472 -16.1814l-0.8611 0c0.0123,-0.5519 -0.056,-0.861 0.5167,-0.861 0.397,0 0.3359,0.4813 0.3444,0.861zm2.0665 1.2055l-4.9942 0 0 -0.8611 4.9942 0 0 0.8611zm-4.6496 14.6378l-0.6889 0.3444 -1.2054 0.6889c0.3808,0.7798 0.5486,1.2814 1.0332,2.2387l0.1722 3.7886 -11.3658 0 0.6644 -6.0314 0.7132 0.0041c1.9146,-0.193 3.5692,-0.4649 5.2823,-0.4595 0.3914,-0.2838 1.4374,-0.9395 3.1906,-2.4217l5.6483 0.1258 -3.4441 1.7221zm-1.7222 -4.133l-14.2933 0c0.0329,-1.4792 11.5493,-0.8611 14.1212,-0.8611l0.1721 0.8611z"/>
  </g>
 </g>
</svg>
